<?xml version="1.0" standalone="no"?>
<!DOCTYPE svg PUBLIC "-//W3C//DTD SVG 1.1//EN"
  "http://www.w3.org/Graphics/SVG/1.1/DTD/svg11.dtd">
<!-- Created with matplotlib (http://matplotlib.sourceforge.net/) -->
<svg width="576pt" height="432pt" viewBox="0 0 576 432"
   xmlns="http://www.w3.org/2000/svg"
   xmlns:xlink="http://www.w3.org/1999/xlink"
   version="1.1"
   id="svg1">
<g id="figure1">
<g id="patch1">
<path style="fill: #ffffff; stroke: #ffffff; stroke-width: 1.000000; stroke-linejoin: round; stroke-linecap: square;  opacity: 1.000000"  d="M0.000000 432.000000L576.000000 432.000000L576.000000 0.000000
L0.000000 0.000000L0.000000 432.000000"/>
</g>
<g id="axes1">
<g id="patch2">
<path style="fill: #ffffff; opacity: 1.000000"  d="M72.000000 388.800000L518.400000 388.800000L518.400000 43.200000
L72.000000 43.200000L72.000000 388.800000"/>
</g>
<g id="line2d1">
<defs>
  <clipPath id="p50431ccdcb28178602d99d9270004dde">
<rect x="72.000000" y="43.200000" width="446.400000" height="345.600000"/>
  </clipPath>
</defs><path style="fill: none; stroke: #0000ff; stroke-width: 1.000000; stroke-linejoin: round; stroke-linecap: square;  opacity: 1.000000" clip-path="url(#p50431ccdcb28178602d99d9270004dde)" d="M72.000000 388.540800L73.750588 388.800000L80.752941 388.713600
L87.755294 388.800000L89.505882 388.195200L91.256471 388.713600
L93.007059 388.281600L94.757647 388.540800L98.258824 388.368000
L100.009412 387.676800L103.510588 387.590400L107.011765 386.640000
L108.762353 386.294400L112.263529 382.579200L114.014118 382.147200
L115.764706 379.123200L117.515294 374.371200L119.265882 373.248000
L121.016471 365.040000L122.767059 360.460800L124.517647 352.944000
L126.268235 347.500800L128.018824 336.873600L131.520000 326.678400
L133.270588 315.273600L135.021176 318.902400L136.771765 310.608000
L138.522353 318.729600L140.272941 321.235200L142.023529 325.209600
L143.774118 325.814400L145.524706 331.430400L147.275294 335.923200
L149.025882 332.640000L150.776471 339.984000L152.527059 343.353600
L154.277647 341.971200L156.028235 344.563200L157.778824 350.352000
L159.529412 350.092800L161.280000 352.252800L163.030588 347.500800
L168.282353 354.412800L170.032941 354.672000L171.783529 352.512000
L173.534118 353.894400L175.284706 356.140800L177.035294 353.721600
L178.785882 353.721600L182.287059 355.276800L184.037647 357.782400
L185.788235 359.337600L187.538824 359.164800L189.289412 356.918400
L191.040000 361.497600L192.790588 361.411200L194.541176 361.670400
L196.291765 360.720000L199.792941 362.361600L201.543529 360.892800
L206.795294 364.780800L208.545882 363.225600L210.296471 362.620800
L212.047059 360.979200L213.797647 364.176000L217.298824 363.657600
L219.049412 363.916800L220.800000 361.670400L222.550588 362.534400
L224.301176 365.644800L226.051765 365.990400L227.802353 363.225600
L229.552941 363.312000L231.303529 365.385600L233.054118 364.608000
L234.804706 364.348800L236.555294 367.372800L238.305882 364.694400
L240.056471 367.459200L241.807059 364.262400L243.557647 364.953600
L245.308235 366.076800L247.058824 364.780800L248.809412 365.558400
L250.560000 367.372800L252.310588 367.977600L254.061176 367.718400
L255.811765 366.422400L257.562353 370.828800L259.312941 369.446400
L261.063529 367.372800L264.564706 371.174400L269.816471 373.680000
L271.567059 372.470400L275.068235 376.531200L276.818824 376.963200
L278.569412 376.358400L280.320000 377.654400L282.070588 376.617600
L283.821176 380.332800L285.571765 380.505600L287.322353 380.073600
L290.823529 382.060800L292.574118 381.024000L294.324706 382.406400
L296.075294 383.184000L297.825882 383.270400L303.077647 385.344000
L304.828235 384.566400L306.578824 384.825600L308.329412 385.862400
L310.080000 386.121600L311.830588 386.899200L313.581176 386.208000
L317.082353 387.072000L318.832941 387.331200L320.583529 386.899200
L322.334118 387.590400L324.084706 387.590400L325.835294 387.244800
L327.585882 387.763200L329.336471 387.331200L332.837647 388.281600
L334.588235 387.504000L336.338824 388.195200L339.840000 387.763200
L341.590588 388.195200L343.341176 387.936000L345.091765 388.108800
L346.842353 388.713600L348.592941 388.281600L352.094118 388.627200
L355.595294 388.454400L359.096471 388.627200L518.400000 388.800000
L518.400000 388.800000"/>
</g>
<g id="line2d2">
<path style="fill: none; stroke: #228b22; stroke-width: 1.000000; stroke-linejoin: round; stroke-linecap: square;  opacity: 1.000000" clip-path="url(#p50431ccdcb28178602d99d9270004dde)" d="M72.000000 388.800000L112.263529 388.800000L114.014118 388.368000
L115.764706 388.540800L117.515294 388.368000L119.265882 388.800000
L121.016471 387.936000L122.767059 388.022400L124.517647 388.627200
L126.268235 388.540800L128.018824 387.936000L131.520000 388.454400
L133.270588 387.676800L135.021176 387.936000L136.771765 387.331200
L138.522353 387.590400L142.023529 387.072000L143.774118 387.936000
L145.524706 387.244800L149.025882 387.244800L150.776471 387.936000
L152.527059 387.417600L156.028235 387.590400L157.778824 386.640000
L163.030588 386.467200L164.781176 386.035200L166.531765 386.121600
L168.282353 387.158400L170.032941 385.603200L171.783529 386.812800
L175.284706 386.294400L177.035294 386.640000L178.785882 385.430400
L180.536471 386.553600L182.287059 386.380800L184.037647 386.726400
L187.538824 386.121600L189.289412 386.726400L191.040000 386.467200
L192.790588 386.812800L194.541176 386.035200L198.042353 385.689600
L199.792941 386.467200L201.543529 384.998400L203.294118 384.307200
L205.044706 385.689600L206.795294 386.380800L208.545882 384.480000
L210.296471 384.912000L212.047059 384.998400L213.797647 384.566400
L215.548235 384.566400L219.049412 385.344000L220.800000 384.307200
L222.550588 385.344000L224.301176 384.307200L226.051765 384.998400
L227.802353 383.875200L229.552941 384.480000L234.804706 384.048000
L236.555294 383.270400L238.305882 384.480000L241.807059 381.542400
L243.557647 381.974400L245.308235 379.036800L247.058824 377.481600
L248.809412 373.334400L250.560000 372.124800L252.310588 367.718400
L254.061176 364.867200L255.811765 366.422400L257.562353 364.694400
L259.312941 367.545600L261.063529 365.990400L262.814118 361.411200
L264.564706 358.128000L266.315294 358.646400L268.065882 352.166400
L271.567059 346.291200L273.317647 339.984000L275.068235 339.465600
L276.818824 333.936000L278.569412 332.812800L280.320000 329.616000
L282.070588 332.467200L283.821176 329.875200L285.571765 338.256000
L287.322353 338.947200L289.072941 343.267200L290.823529 341.452800
L294.324706 344.649600L296.075294 340.416000L297.825882 343.008000
L299.576471 344.563200L301.327059 343.353600L303.077647 345.600000
L304.828235 345.772800L306.578824 344.563200L308.329412 347.328000
L310.080000 347.500800L313.581176 351.302400L315.331765 357.782400
L317.082353 357.523200L318.832941 358.387200L320.583529 357.696000
L322.334118 358.128000L324.084706 363.052800L325.835294 359.769600
L327.585882 364.176000L332.837647 360.720000L334.588235 364.176000
L336.338824 359.856000L338.089412 363.916800L339.840000 361.324800
L341.590588 360.720000L343.341176 361.065600L345.091765 362.707200
L346.842353 359.251200L348.592941 360.028800L350.343529 358.128000
L352.094118 361.238400L353.844706 360.201600L355.595294 360.633600
L357.345882 358.387200L359.096471 359.942400L360.847059 360.288000
L362.597647 361.411200L364.348235 360.460800L366.098824 360.720000
L367.849412 361.584000L369.600000 361.670400L371.350588 362.448000
L373.101176 362.534400L374.851765 360.547200L376.602353 361.756800
L378.352941 366.249600L380.103529 366.336000L381.854118 367.545600
L383.604706 367.027200L385.355294 365.990400L387.105882 367.459200
L390.607059 365.472000L392.357647 365.472000L394.108235 368.409600
L395.858824 367.286400L397.609412 368.928000L401.110588 370.828800
L402.861176 373.939200L404.611765 374.198400L406.362353 375.235200
L408.112941 377.827200L409.863529 379.641600L411.614118 380.332800
L413.364706 381.974400L416.865882 383.097600L418.616471 383.529600
L420.367059 385.257600L422.117647 386.035200L423.868235 385.862400
L429.120000 387.158400L430.870588 386.985600L432.621176 387.936000
L434.371765 387.417600L436.122353 388.022400L437.872941 387.676800
L439.623529 388.022400L443.124706 387.936000L444.875294 388.281600
L446.625882 387.676800L450.127059 388.454400L455.378824 388.540800
L457.129412 388.108800L460.630588 388.713600L467.632941 388.627200
L518.400000 388.800000L518.400000 388.800000"/>
</g>
<g id="line2d3">
<path style="fill: none; stroke: #ff0000; stroke-width: 1.000000; stroke-linejoin: round; stroke-linecap: square;  opacity: 1.000000" clip-path="url(#p50431ccdcb28178602d99d9270004dde)" d="M72.000000 388.800000L136.771765 388.713600L138.522353 388.454400
L143.774118 388.627200L145.524706 388.454400L147.275294 388.800000
L149.025882 388.368000L150.776471 388.713600L152.527059 388.368000
L154.277647 388.713600L156.028235 388.713600L159.529412 388.108800
L161.280000 387.849600L166.531765 388.454400L171.783529 387.244800
L173.534118 387.676800L177.035294 387.417600L178.785882 387.763200
L180.536471 387.244800L182.287059 388.022400L184.037647 388.368000
L185.788235 387.590400L191.040000 387.590400L192.790588 386.208000
L194.541176 386.640000L199.792941 384.998400L205.044706 379.209600
L206.795294 375.408000L210.296471 363.052800L213.797647 351.216000
L217.298824 352.771200L219.049412 349.833600L222.550588 352.252800
L224.301176 350.006400L226.051765 351.734400L229.552941 344.908800
L231.303529 345.513600L233.054118 349.401600L234.804706 343.872000
L236.555294 347.328000L238.305882 348.364800L240.056471 347.846400
L241.807059 350.956800L243.557647 349.056000L245.308235 352.339200
L247.058824 350.265600L248.809412 352.684800L252.310588 353.980800
L254.061176 357.177600L255.811765 356.832000L257.562353 357.696000
L259.312941 355.363200L261.063529 357.004800L262.814118 360.806400
L264.564706 362.534400L266.315294 360.633600L268.065882 360.979200
L269.816471 360.374400L271.567059 363.139200L273.317647 360.806400
L275.068235 363.139200L276.818824 362.707200L278.569412 361.843200
L280.320000 359.596800L282.070588 361.497600L283.821176 358.905600
L285.571765 359.596800L287.322353 361.756800L289.072941 360.806400
L292.574118 360.288000L294.324706 359.596800L296.075294 364.953600
L297.825882 362.188800L299.576471 363.830400L301.327059 363.139200
L303.077647 365.644800L304.828235 363.312000L306.578824 364.089600
L310.080000 366.163200L311.830588 363.312000L313.581176 365.472000
L315.331765 363.571200L317.082353 363.571200L318.832941 365.817600
L320.583529 363.312000L322.334118 366.163200L324.084706 365.817600
L325.835294 363.052800L327.585882 367.286400L329.336471 365.731200
L331.087059 364.953600L332.837647 366.249600L334.588235 366.163200
L336.338824 365.040000L338.089412 366.595200L339.840000 366.163200
L341.590588 369.187200L343.341176 365.904000L345.091765 364.521600
L346.842353 366.076800L348.592941 366.940800L350.343529 369.792000
L352.094118 366.681600L355.595294 366.422400L357.345882 370.396800
L359.096471 365.731200L360.847059 368.755200L362.597647 367.027200
L364.348235 366.768000L366.098824 368.582400L367.849412 370.915200
L369.600000 370.742400L374.851765 367.718400L376.602353 370.483200
L378.352941 368.150400L380.103529 369.360000L381.854118 369.100800
L385.355294 371.692800L387.105882 371.433600L388.856471 370.051200
L390.607059 374.198400L392.357647 372.988800L394.108235 373.334400
L395.858824 374.284800L397.609412 376.099200L399.360000 376.099200
L401.110588 375.580800L402.861176 378.432000L406.362353 378.518400
L408.112941 380.678400L409.863529 381.974400L411.614118 380.419200
L413.364706 381.888000L418.616471 383.961600L420.367059 383.788800
L422.117647 384.912000L423.868235 384.480000L425.618824 384.566400
L427.369412 385.257600L429.120000 385.516800L430.870588 384.566400
L432.621176 386.208000L434.371765 386.121600L437.872941 386.985600
L443.124706 387.072000L444.875294 387.936000L451.877647 387.158400
L453.628235 387.849600L455.378824 387.331200L457.129412 387.244800
L458.880000 387.936000L460.630588 387.590400L469.383529 388.281600
L471.134118 388.281600L472.884706 387.936000L474.635294 388.627200
L476.385882 388.281600L478.136471 388.627200L483.388235 388.195200
L495.642353 388.713600L499.143529 388.540800L502.644706 388.800000
L507.896471 388.713600L514.898824 388.800000L518.400000 388.800000
L518.400000 388.800000"/>
</g>
<g id="line2d4">
<path style="fill: none; stroke: #696969; stroke-width: 1.000000; stroke-linejoin: round; stroke-linecap: square;  opacity: 1.000000" clip-path="url(#p50431ccdcb28178602d99d9270004dde)" d="M72.000000 388.800000L115.764706 388.713600L117.515294 388.368000
L121.016471 388.540800L136.771765 388.281600L138.522353 388.022400
L140.272941 388.454400L142.023529 388.195200L143.774118 388.281600
L147.275294 387.244800L149.025882 388.454400L150.776471 387.158400
L152.527059 387.763200L154.277647 387.072000L156.028235 387.331200
L157.778824 388.368000L161.280000 387.763200L164.781176 387.676800
L166.531765 387.417600L168.282353 387.936000L170.032941 387.763200
L173.534118 386.553600L177.035294 387.504000L178.785882 386.467200
L180.536471 386.553600L182.287059 386.121600L184.037647 387.504000
L185.788235 386.208000L189.289412 387.417600L191.040000 386.380800
L194.541176 386.380800L198.042353 387.244800L199.792941 386.812800
L205.044706 387.072000L206.795294 386.121600L208.545882 387.244800
L210.296471 386.553600L212.047059 387.244800L213.797647 387.331200
L215.548235 385.689600L219.049412 386.640000L220.800000 386.294400
L222.550588 384.912000L224.301176 385.776000L226.051765 384.652800
L227.802353 384.825600L229.552941 385.776000L231.303529 384.220800
L233.054118 384.739200L234.804706 384.220800L236.555294 384.393600
L238.305882 381.974400L240.056471 384.480000L241.807059 382.579200
L243.557647 382.924800L245.308235 380.246400L247.058824 380.764800
L248.809412 375.494400L250.560000 373.507200L252.310588 373.680000
L254.061176 370.569600L255.811765 369.446400L257.562353 371.347200
L259.312941 371.347200L261.063529 368.841600L262.814118 359.424000
L264.564706 365.126400L266.315294 357.436800L268.065882 345.945600
L269.816471 349.660800L271.567059 333.763200L273.317647 336.268800
L275.068235 328.838400L276.818824 331.689600L278.569412 332.899200
L280.320000 333.504000L282.070588 323.222400L283.821176 337.046400
L285.571765 340.329600L287.322353 341.280000L289.072941 337.737600
L290.823529 345.600000L292.574118 342.748800L294.324706 345.600000
L296.075294 338.601600L297.825882 343.008000L299.576471 340.588800
L301.327059 342.921600L303.077647 344.044800L304.828235 344.649600
L306.578824 345.945600L308.329412 341.712000L310.080000 353.116800
L311.830588 351.475200L313.581176 353.116800L315.331765 353.116800
L317.082353 359.078400L318.832941 358.041600L320.583529 360.633600
L322.334118 357.955200L324.084706 362.707200L325.835294 364.003200
L327.585882 362.880000L329.336471 359.251200L331.087059 361.497600
L332.837647 359.510400L334.588235 366.163200L336.338824 362.620800
L339.840000 366.249600L341.590588 360.374400L343.341176 360.115200
L345.091765 357.868800L346.842353 361.324800L348.592941 362.275200
L350.343529 360.633600L352.094118 363.225600L353.844706 361.065600
L355.595294 364.176000L357.345882 360.720000L359.096471 359.251200
L360.847059 361.497600L364.348235 360.806400L366.098824 359.337600
L367.849412 360.806400L369.600000 358.819200L371.350588 360.201600
L373.101176 362.620800L374.851765 359.856000L376.602353 362.016000
L378.352941 366.940800L380.103529 358.041600L381.854118 364.608000
L383.604706 367.027200L385.355294 368.064000L387.105882 362.966400
L388.856471 366.163200L390.607059 367.891200L392.357647 366.508800
L395.858824 367.891200L397.609412 367.459200L399.360000 364.694400
L401.110588 366.681600L402.861176 367.286400L404.611765 373.334400
L406.362353 370.137600L408.112941 374.544000L409.863529 376.531200
L411.614118 376.185600L413.364706 379.728000L415.115294 379.555200
L416.865882 380.851200L418.616471 382.579200L420.367059 381.542400
L423.868235 385.948800L425.618824 384.566400L429.120000 386.553600
L430.870588 386.726400L432.621176 387.244800L434.371765 386.640000
L436.122353 387.849600L437.872941 386.726400L441.374118 388.281600
L443.124706 387.849600L444.875294 387.763200L446.625882 388.454400
L448.376471 387.849600L469.383529 388.627200L471.134118 388.368000
L472.884706 388.800000L476.385882 388.627200L485.138824 388.800000
L518.400000 388.800000L518.400000 388.800000"/>
</g>
<g id="line2d5">
<path style="fill: none; stroke: #ff00ff; stroke-width: 1.000000; stroke-linejoin: round; stroke-linecap: square;  opacity: 1.000000" clip-path="url(#p50431ccdcb28178602d99d9270004dde)" d="M72.000000 388.800000L236.555294 388.800000L238.305882 388.195200
L240.056471 385.776000L241.807059 379.641600L245.308235 349.228800
L250.560000 227.145600L254.061176 238.550400L255.811765 226.195200
L257.562353 236.563200L259.312941 226.627200L261.063529 232.588800
L262.814118 282.528000L264.564706 292.809600L266.315294 265.507200
L271.567059 292.118400L273.317647 290.736000L275.068235 314.064000
L276.818824 317.865600L278.569412 329.011200L280.320000 330.393600
L282.070588 329.788800L283.821176 333.849600L285.571765 343.612800
L287.322353 344.217600L289.072941 355.536000L290.823529 349.401600
L292.574118 353.462400L294.324706 350.265600L296.075294 349.401600
L297.825882 341.366400L299.576471 338.428800L301.327059 341.884800
L303.077647 348.278400L304.828235 352.166400L306.578824 353.808000
L308.329412 360.201600L310.080000 357.091200L311.830588 360.288000
L313.581176 371.692800L315.331765 375.494400L317.082353 385.257600
L318.832941 385.776000L322.334118 388.540800L325.835294 388.800000
L518.400000 388.800000L518.400000 388.800000"/>
</g>
<g id="line2d6">
<path style="fill: none; stroke: #ffff00; stroke-width: 1.000000; stroke-linejoin: round; stroke-linecap: square;  opacity: 1.000000" clip-path="url(#p50431ccdcb28178602d99d9270004dde)" d="M72.000000 388.800000L296.075294 388.800000L297.825882 388.368000
L299.576471 388.713600L303.077647 388.022400L308.329412 386.726400
L310.080000 382.492800L311.830588 380.332800L313.581176 381.024000
L315.331765 381.110400L317.082353 378.691200L318.832941 383.011200
L324.084706 381.888000L325.835294 382.320000L327.585882 381.628800
L329.336471 379.555200L331.087059 378.172800L332.837647 373.507200
L334.588235 375.148800L336.338824 379.987200L338.089412 372.988800
L339.840000 367.545600L341.590588 367.027200L343.341176 351.475200
L345.091765 352.771200L346.842353 332.380800L348.592941 324.345600
L350.343529 310.003200L352.094118 309.916800L353.844706 284.515200
L355.595294 282.268800L357.345882 256.953600L359.096471 208.828800
L360.847059 177.984000L362.597647 162.691200L364.348235 88.387200
L366.098824 77.241600L367.849412 92.620800L373.101176 250.560000
L374.851765 288.403200L376.602353 346.291200L378.352941 371.692800
L380.103529 380.505600L381.854118 385.776000L383.604706 387.244800
L385.355294 387.936000L392.357647 388.800000L518.400000 388.800000
L518.400000 388.800000"/>
</g>
<g id="line2d7">
<path style="fill: none; stroke: #8a2be2; stroke-width: 1.000000; stroke-linejoin: round; stroke-linecap: square;  opacity: 1.000000" clip-path="url(#p50431ccdcb28178602d99d9270004dde)" d="M72.000000 388.540800L77.251765 388.540800L79.002353 388.108800
L80.752941 386.294400L82.503529 387.244800L84.254118 386.121600
L86.004706 380.764800L87.755294 381.369600L89.505882 379.728000
L91.256471 373.852800L93.007059 375.926400L94.757647 369.792000
L96.508235 373.852800L98.258824 368.150400L100.009412 367.804800
L103.510588 352.771200L105.261176 342.489600L107.011765 334.454400
L108.762353 322.272000L110.512941 329.616000L112.263529 331.603200
L114.014118 336.700800L115.764706 348.019200L117.515294 329.097600
L119.265882 321.667200L121.016471 322.704000L122.767059 337.564800
L124.517647 285.811200L126.268235 303.264000L128.018824 300.585600
L129.769412 191.808000L131.520000 271.123200L133.270588 210.470400
L135.021176 294.796800L138.522353 192.758400L140.272941 118.800000
L142.023529 130.550400L143.774118 167.184000L145.524706 145.238400
L147.275294 273.715200L149.025882 358.300800L150.776471 385.603200
L152.527059 388.800000L374.851765 388.800000L376.602353 388.368000
L378.352941 388.800000L518.400000 388.800000L518.400000 388.800000"/>
</g>
<g id="line2d8">
<path style="fill: none; stroke: #00ffff; stroke-width: 1.000000; stroke-linejoin: round; stroke-linecap: square;  opacity: 1.000000" clip-path="url(#p50431ccdcb28178602d99d9270004dde)" d="M72.000000 388.800000L194.541176 388.627200L196.291765 388.281600
L198.042353 388.627200L201.543529 388.108800L203.294118 387.244800
L205.044706 388.108800L206.795294 387.763200L208.545882 386.812800
L210.296471 387.072000L213.797647 385.689600L215.548235 386.208000
L217.298824 384.652800L219.049412 385.516800L220.800000 383.961600
L222.550588 377.913600L224.301176 378.950400L226.051765 375.148800
L227.802353 375.753600L229.552941 374.112000L231.303529 373.161600
L233.054118 370.828800L234.804706 371.692800L236.555294 368.236800
L238.305882 369.360000L240.056471 369.532800L241.807059 368.150400
L243.557647 368.841600L245.308235 365.644800L247.058824 366.163200
L248.809412 360.460800L250.560000 365.212800L252.310588 360.028800
L255.811765 358.905600L257.562353 359.510400L259.312941 361.065600
L261.063529 357.868800L262.814118 360.979200L264.564706 353.376000
L266.315294 352.857600L268.065882 358.387200L269.816471 355.968000
L271.567059 358.300800L273.317647 359.596800L275.068235 354.844800
L276.818824 359.164800L278.569412 357.868800L280.320000 354.672000
L282.070588 355.104000L283.821176 357.609600L287.322353 354.240000
L289.072941 357.609600L290.823529 357.177600L292.574118 360.028800
L296.075294 353.116800L297.825882 358.300800L299.576471 360.288000
L301.327059 354.326400L306.578824 358.473600L308.329412 358.128000
L310.080000 359.856000L311.830588 359.596800L313.581176 361.238400
L315.331765 359.078400L317.082353 360.720000L318.832941 359.942400
L320.583529 366.595200L322.334118 364.089600L324.084706 364.003200
L325.835294 360.892800L327.585882 364.089600L331.087059 359.769600
L332.837647 363.139200L334.588235 365.644800L336.338824 364.348800
L338.089412 364.867200L339.840000 357.177600L341.590588 365.817600
L343.341176 362.016000L345.091765 361.065600L346.842353 364.953600
L348.592941 361.152000L350.343529 363.830400L352.094118 360.288000
L353.844706 359.856000L355.595294 353.289600L357.345882 358.041600
L359.096471 354.240000L360.847059 356.486400L362.597647 352.425600
L364.348235 353.548800L366.098824 356.313600L367.849412 341.452800
L369.600000 363.744000L371.350588 340.848000L373.101176 356.832000
L374.851765 344.476800L376.602353 345.686400L378.352941 347.500800
L380.103529 345.600000L381.854118 334.713600L383.604706 349.056000
L385.355294 346.291200L387.105882 344.304000L388.856471 353.116800
L390.607059 342.921600L392.357647 357.696000L394.108235 359.942400
L395.858824 359.856000L399.360000 370.051200L401.110588 367.804800
L402.861176 375.926400L404.611765 374.716800L406.362353 374.976000
L408.112941 380.592000L409.863529 378.777600L411.614118 381.715200
L413.364706 381.110400L415.115294 381.974400L416.865882 383.356800
L422.117647 385.862400L423.868235 386.208000L425.618824 386.121600
L427.369412 387.504000L429.120000 386.208000L430.870588 387.590400
L432.621176 386.812800L434.371765 388.108800L436.122353 387.417600
L437.872941 388.281600L443.124706 388.195200L444.875294 388.454400
L446.625882 388.368000L448.376471 388.627200L450.127059 388.368000
L451.877647 388.713600L518.400000 388.800000L518.400000 388.800000"/>
</g>
<g id="line2d9">
<path style="fill: none; stroke: #ffa500; stroke-width: 1.000000; stroke-linejoin: round; stroke-linecap: square;  opacity: 1.000000" clip-path="url(#p50431ccdcb28178602d99d9270004dde)" d="M72.000000 388.800000L136.771765 388.713600L138.522353 388.454400
L143.774118 388.627200L145.524706 388.454400L147.275294 388.800000
L149.025882 388.368000L150.776471 388.713600L152.527059 388.368000
L154.277647 388.713600L156.028235 388.713600L159.529412 388.108800
L161.280000 387.849600L166.531765 388.454400L171.783529 387.244800
L173.534118 387.676800L177.035294 387.417600L178.785882 387.849600
L180.536471 387.331200L184.037647 388.454400L185.788235 387.676800
L191.040000 387.676800L192.790588 386.467200L194.541176 387.331200
L196.291765 387.158400L198.042353 387.504000L199.792941 386.553600
L205.044706 386.985600L206.795294 386.208000L210.296471 386.208000
L212.047059 387.072000L213.797647 386.726400L220.800000 387.158400
L222.550588 386.294400L224.301176 387.849600L226.051765 387.331200
L227.802353 387.504000L229.552941 386.380800L236.555294 385.948800
L238.305882 386.380800L240.056471 385.603200L241.807059 383.702400
L243.557647 385.084800L245.308235 381.888000L247.058824 379.814400
L248.809412 376.617600L250.560000 375.148800L252.310588 374.371200
L254.061176 369.619200L255.811765 372.211200L257.562353 368.323200
L259.312941 371.865600L264.564706 362.448000L266.315294 361.411200
L269.816471 348.883200L271.567059 347.414400L273.317647 338.860800
L275.068235 338.428800L276.818824 334.195200L278.569412 333.417600
L280.320000 327.024000L282.070588 329.443200L283.821176 326.505600
L285.571765 335.145600L287.322353 336.700800L289.072941 341.193600
L290.823529 340.761600L292.574118 340.848000L294.324706 341.539200
L296.075294 340.416000L297.825882 341.884800L299.576471 342.230400
L301.327059 342.057600L303.077647 343.872000L304.828235 343.872000
L306.578824 343.180800L311.830588 347.673600L313.581176 350.092800
L315.331765 355.017600L317.082353 353.289600L318.832941 357.264000
L320.583529 354.499200L322.334118 356.745600L324.084706 361.152000
L325.835294 357.004800L327.585882 360.633600L331.087059 359.337600
L334.588235 362.534400L336.338824 359.251200L338.089412 361.843200
L339.840000 359.596800L341.590588 360.720000L343.341176 361.324800
L345.091765 358.992000L346.842353 359.424000L348.592941 360.201600
L350.343529 359.769600L352.094118 360.633600L353.844706 359.510400
L355.595294 359.769600L357.345882 360.633600L359.096471 360.374400
L366.098824 361.238400L367.849412 362.016000L369.600000 362.361600
L371.350588 363.398400L373.101176 362.188800L374.851765 358.646400
L376.602353 360.201600L378.352941 363.744000L380.103529 363.398400
L381.854118 365.299200L383.604706 365.558400L385.355294 366.681600
L387.105882 366.854400L388.856471 365.212800L390.607059 364.867200
L392.357647 366.163200L394.108235 368.668800L395.858824 366.595200
L399.360000 367.891200L401.110588 368.582400L402.861176 371.520000
L404.611765 373.075200L406.362353 372.556800L408.112941 375.753600
L409.863529 377.827200L411.614118 377.827200L418.616471 381.456000
L420.367059 381.974400L422.117647 383.788800L423.868235 383.356800
L425.618824 383.529600L427.369412 384.739200L429.120000 384.825600
L430.870588 383.961600L432.621176 386.208000L434.371765 385.603200
L436.122353 386.467200L443.124706 387.072000L444.875294 387.936000
L451.877647 387.158400L453.628235 387.763200L457.129412 387.244800
L458.880000 387.763200L460.630588 387.590400L464.131765 387.676800
L465.882353 387.676800L467.632941 388.195200L471.134118 388.281600
L472.884706 387.936000L474.635294 388.627200L476.385882 388.281600
L478.136471 388.627200L483.388235 388.195200L495.642353 388.713600
L499.143529 388.540800L502.644706 388.800000L507.896471 388.713600
L514.898824 388.800000L518.400000 388.800000L518.400000 388.800000"/>
</g>
<g id="matplotlib.axis1">
<g id="xtick1">
<g id="line2d10">
<defs><path id="m30e32995789d870ad79a2e54c91cf9c6" d="M0.000000 0.000000L0.000000 -4.000000"/></defs>
<g ><use style="fill: none; stroke: #000000; stroke-width: 0.500000; stroke-linejoin: round; stroke-linecap: butt;  opacity: 1.000000" xlink:href="#m30e32995789d870ad79a2e54c91cf9c6" x="72.000000" y="388.800000"/>
</g></g>
<g id="line2d11">
<defs><path id="m9281cae24120827b11d5ea8a7ad3e96b" d="M0.000000 0.000000L0.000000 4.000000"/></defs>
<g ><use style="fill: none; stroke: #000000; stroke-width: 0.500000; stroke-linejoin: round; stroke-linecap: butt;  opacity: 1.000000" xlink:href="#m9281cae24120827b11d5ea8a7ad3e96b" x="72.000000" y="43.200000"/>
</g></g>
<g id="text1">
<defs>
<path id="c_7a2040fe3b94fcd41d0a72c84e93b115" d="M31.781250 -66.406250q-7.609375 0.000000 -11.453125 7.500000q-3.828125 7.484375 -3.828125 22.531250q0.000000 14.984375 3.828125 22.484375q3.843750 7.500000 11.453125 7.500000q7.671875 0.000000 11.500000 -7.500000q3.843750 -7.500000 3.843750 -22.484375q0.000000 -15.046875 -3.843750 -22.531250q-3.828125 -7.500000 -11.500000 -7.500000M31.781250 -74.218750q12.265625 0.000000 18.734375 9.703125q6.468750 9.687500 6.468750 28.140625q0.000000 18.406250 -6.468750 28.109375q-6.468750 9.687500 -18.734375 9.687500q-12.250000 0.000000 -18.718750 -9.687500q-6.468750 -9.703125 -6.468750 -28.109375q0.000000 -18.453125 6.468750 -28.140625q6.468750 -9.703125 18.718750 -9.703125"/>
</defs>
<g style="fill: #000000; opacity: 1.000000" transform="translate(68.976562,401.706250)scale(0.120000)">
<use xlink:href="#c_7a2040fe3b94fcd41d0a72c84e93b115"/>
</g>
</g>
</g>
<g id="xtick2">
<g id="line2d12">
<g ><use style="fill: none; stroke: #000000; stroke-width: 0.500000; stroke-linejoin: round; stroke-linecap: butt;  opacity: 1.000000" xlink:href="#m30e32995789d870ad79a2e54c91cf9c6" x="159.529412" y="388.800000"/>
</g></g>
<g id="line2d13">
<g ><use style="fill: none; stroke: #000000; stroke-width: 0.500000; stroke-linejoin: round; stroke-linecap: butt;  opacity: 1.000000" xlink:href="#m9281cae24120827b11d5ea8a7ad3e96b" x="159.529412" y="43.200000"/>
</g></g>
<g id="text2">
<defs>
<path id="c_1260a2df50f305f3db244e29828f968e" d="M10.796875 -72.906250l38.718750 0.000000l0.000000 8.312500l-29.687500 0.000000l0.000000 17.859375q2.140625 -0.734375 4.281250 -1.093750q2.156250 -0.359375 4.312500 -0.359375q12.203125 0.000000 19.328125 6.687500q7.140625 6.687500 7.140625 18.109375q0.000000 11.765625 -7.328125 18.296875q-7.328125 6.515625 -20.656250 6.515625q-4.593750 0.000000 -9.359375 -0.781250q-4.750000 -0.781250 -9.828125 -2.343750l0.000000 -9.921875q4.390625 2.390625 9.078125 3.562500q4.687500 1.171875 9.906250 1.171875q8.453125 0.000000 13.375000 -4.437500q4.937500 -4.437500 4.937500 -12.062500q0.000000 -7.609375 -4.937500 -12.046875q-4.921875 -4.453125 -13.375000 -4.453125q-3.953125 0.000000 -7.890625 0.875000q-3.921875 0.875000 -8.015625 2.734375z"/>
</defs>
<g style="fill: #000000; opacity: 1.000000" transform="translate(152.748162,401.706250)scale(0.120000)">
<use xlink:href="#c_1260a2df50f305f3db244e29828f968e"/>
<use xlink:href="#c_7a2040fe3b94fcd41d0a72c84e93b115" x="63.623047"/>
</g>
</g>
</g>
<g id="xtick3">
<g id="line2d14">
<g ><use style="fill: none; stroke: #000000; stroke-width: 0.500000; stroke-linejoin: round; stroke-linecap: butt;  opacity: 1.000000" xlink:href="#m30e32995789d870ad79a2e54c91cf9c6" x="247.058824" y="388.800000"/>
</g></g>
<g id="line2d15">
<g ><use style="fill: none; stroke: #000000; stroke-width: 0.500000; stroke-linejoin: round; stroke-linecap: butt;  opacity: 1.000000" xlink:href="#m9281cae24120827b11d5ea8a7ad3e96b" x="247.058824" y="43.200000"/>
</g></g>
<g id="text3">
<defs>
<path id="c_42baa63129a918535c52adb20d687ea7" d="M12.406250 -8.296875l16.109375 0.000000l0.000000 -55.625000l-17.531250 3.515625l0.000000 -8.984375l17.437500 -3.515625l9.859375 0.000000l0.000000 64.609375l16.109375 0.000000l0.000000 8.296875l-41.984375 0.000000z"/>
</defs>
<g style="fill: #000000; opacity: 1.000000" transform="translate(236.652574,401.706250)scale(0.120000)">
<use xlink:href="#c_42baa63129a918535c52adb20d687ea7"/>
<use xlink:href="#c_7a2040fe3b94fcd41d0a72c84e93b115" x="63.623047"/>
<use xlink:href="#c_7a2040fe3b94fcd41d0a72c84e93b115" x="127.246094"/>
</g>
</g>
</g>
<g id="xtick4">
<g id="line2d16">
<g ><use style="fill: none; stroke: #000000; stroke-width: 0.500000; stroke-linejoin: round; stroke-linecap: butt;  opacity: 1.000000" xlink:href="#m30e32995789d870ad79a2e54c91cf9c6" x="334.588235" y="388.800000"/>
</g></g>
<g id="line2d17">
<g ><use style="fill: none; stroke: #000000; stroke-width: 0.500000; stroke-linejoin: round; stroke-linecap: butt;  opacity: 1.000000" xlink:href="#m9281cae24120827b11d5ea8a7ad3e96b" x="334.588235" y="43.200000"/>
</g></g>
<g id="text4">
<g style="fill: #000000; opacity: 1.000000" transform="translate(324.181985,401.706250)scale(0.120000)">
<use xlink:href="#c_42baa63129a918535c52adb20d687ea7"/>
<use xlink:href="#c_1260a2df50f305f3db244e29828f968e" x="63.623047"/>
<use xlink:href="#c_7a2040fe3b94fcd41d0a72c84e93b115" x="127.246094"/>
</g>
</g>
</g>
<g id="xtick5">
<g id="line2d18">
<g ><use style="fill: none; stroke: #000000; stroke-width: 0.500000; stroke-linejoin: round; stroke-linecap: butt;  opacity: 1.000000" xlink:href="#m30e32995789d870ad79a2e54c91cf9c6" x="422.117647" y="388.800000"/>
</g></g>
<g id="line2d19">
<g ><use style="fill: none; stroke: #000000; stroke-width: 0.500000; stroke-linejoin: round; stroke-linecap: butt;  opacity: 1.000000" xlink:href="#m9281cae24120827b11d5ea8a7ad3e96b" x="422.117647" y="43.200000"/>
</g></g>
<g id="text5">
<defs>
<path id="c_ed3f3ed3ebfbd18bcb9c012009a68ad1" d="M19.187500 -8.296875l34.421875 0.000000l0.000000 8.296875l-46.281250 0.000000l0.000000 -8.296875q5.609375 -5.812500 15.296875 -15.593750q9.703125 -9.796875 12.187500 -12.640625q4.734375 -5.312500 6.609375 -9.000000q1.890625 -3.687500 1.890625 -7.250000q0.000000 -5.812500 -4.078125 -9.468750q-4.078125 -3.671875 -10.625000 -3.671875q-4.640625 0.000000 -9.796875 1.609375q-5.140625 1.609375 -11.000000 4.890625l0.000000 -9.968750q5.953125 -2.390625 11.125000 -3.609375q5.187500 -1.218750 9.484375 -1.218750q11.328125 0.000000 18.062500 5.671875q6.734375 5.656250 6.734375 15.125000q0.000000 4.500000 -1.687500 8.531250q-1.671875 4.015625 -6.125000 9.484375q-1.218750 1.421875 -7.765625 8.187500q-6.531250 6.765625 -18.453125 18.921875"/>
</defs>
<g style="fill: #000000; opacity: 1.000000" transform="translate(411.492647,401.706250)scale(0.120000)">
<use xlink:href="#c_ed3f3ed3ebfbd18bcb9c012009a68ad1"/>
<use xlink:href="#c_7a2040fe3b94fcd41d0a72c84e93b115" x="63.623047"/>
<use xlink:href="#c_7a2040fe3b94fcd41d0a72c84e93b115" x="127.246094"/>
</g>
</g>
</g>
<g id="xtick6">
<g id="line2d20">
<g ><use style="fill: none; stroke: #000000; stroke-width: 0.500000; stroke-linejoin: round; stroke-linecap: butt;  opacity: 1.000000" xlink:href="#m30e32995789d870ad79a2e54c91cf9c6" x="509.647059" y="388.800000"/>
</g></g>
<g id="line2d21">
<g ><use style="fill: none; stroke: #000000; stroke-width: 0.500000; stroke-linejoin: round; stroke-linecap: butt;  opacity: 1.000000" xlink:href="#m9281cae24120827b11d5ea8a7ad3e96b" x="509.647059" y="43.200000"/>
</g></g>
<g id="text6">
<g style="fill: #000000; opacity: 1.000000" transform="translate(499.022059,401.706250)scale(0.120000)">
<use xlink:href="#c_ed3f3ed3ebfbd18bcb9c012009a68ad1"/>
<use xlink:href="#c_1260a2df50f305f3db244e29828f968e" x="63.623047"/>
<use xlink:href="#c_7a2040fe3b94fcd41d0a72c84e93b115" x="127.246094"/>
</g>
</g>
</g>
</g>
<g id="matplotlib.axis2">
<g id="ytick1">
<g id="line2d22">
<defs><path id="m3400efa6b1638b3fea9e19e898273957" d="M0.000000 0.000000L4.000000 0.000000"/></defs>
<g ><use style="fill: none; stroke: #000000; stroke-width: 0.500000; stroke-linejoin: round; stroke-linecap: butt;  opacity: 1.000000" xlink:href="#m3400efa6b1638b3fea9e19e898273957" x="72.000000" y="388.800000"/>
</g></g>
<g id="line2d23">
<defs><path id="m20b58b2501143cb5e0a5e8f1ef6f1643" d="M0.000000 0.000000L-4.000000 0.000000"/></defs>
<g ><use style="fill: none; stroke: #000000; stroke-width: 0.500000; stroke-linejoin: round; stroke-linecap: butt;  opacity: 1.000000" xlink:href="#m20b58b2501143cb5e0a5e8f1ef6f1643" x="518.400000" y="388.800000"/>
</g></g>
<g id="text7">
<g style="fill: #000000; opacity: 1.000000" transform="translate(61.953125,393.167188)scale(0.120000)">
<use xlink:href="#c_7a2040fe3b94fcd41d0a72c84e93b115"/>
</g>
</g>
</g>
<g id="ytick2">
<g id="line2d24">
<g ><use style="fill: none; stroke: #000000; stroke-width: 0.500000; stroke-linejoin: round; stroke-linecap: butt;  opacity: 1.000000" xlink:href="#m3400efa6b1638b3fea9e19e898273957" x="72.000000" y="345.600000"/>
</g></g>
<g id="line2d25">
<g ><use style="fill: none; stroke: #000000; stroke-width: 0.500000; stroke-linejoin: round; stroke-linecap: butt;  opacity: 1.000000" xlink:href="#m20b58b2501143cb5e0a5e8f1ef6f1643" x="518.400000" y="345.600000"/>
</g></g>
<g id="text8">
<g style="fill: #000000; opacity: 1.000000" transform="translate(46.796875,349.967188)scale(0.120000)">
<use xlink:href="#c_1260a2df50f305f3db244e29828f968e"/>
<use xlink:href="#c_7a2040fe3b94fcd41d0a72c84e93b115" x="63.623047"/>
<use xlink:href="#c_7a2040fe3b94fcd41d0a72c84e93b115" x="127.246094"/>
</g>
</g>
</g>
<g id="ytick3">
<g id="line2d26">
<g ><use style="fill: none; stroke: #000000; stroke-width: 0.500000; stroke-linejoin: round; stroke-linecap: butt;  opacity: 1.000000" xlink:href="#m3400efa6b1638b3fea9e19e898273957" x="72.000000" y="302.400000"/>
</g></g>
<g id="line2d27">
<g ><use style="fill: none; stroke: #000000; stroke-width: 0.500000; stroke-linejoin: round; stroke-linecap: butt;  opacity: 1.000000" xlink:href="#m20b58b2501143cb5e0a5e8f1ef6f1643" x="518.400000" y="302.400000"/>
</g></g>
<g id="text9">
<g style="fill: #000000; opacity: 1.000000" transform="translate(39.546875,306.767187)scale(0.120000)">
<use xlink:href="#c_42baa63129a918535c52adb20d687ea7"/>
<use xlink:href="#c_7a2040fe3b94fcd41d0a72c84e93b115" x="63.623047"/>
<use xlink:href="#c_7a2040fe3b94fcd41d0a72c84e93b115" x="127.246094"/>
<use xlink:href="#c_7a2040fe3b94fcd41d0a72c84e93b115" x="190.869141"/>
</g>
</g>
</g>
<g id="ytick4">
<g id="line2d28">
<g ><use style="fill: none; stroke: #000000; stroke-width: 0.500000; stroke-linejoin: round; stroke-linecap: butt;  opacity: 1.000000" xlink:href="#m3400efa6b1638b3fea9e19e898273957" x="72.000000" y="259.200000"/>
</g></g>
<g id="line2d29">
<g ><use style="fill: none; stroke: #000000; stroke-width: 0.500000; stroke-linejoin: round; stroke-linecap: butt;  opacity: 1.000000" xlink:href="#m20b58b2501143cb5e0a5e8f1ef6f1643" x="518.400000" y="259.200000"/>
</g></g>
<g id="text10">
<g style="fill: #000000; opacity: 1.000000" transform="translate(39.546875,263.567188)scale(0.120000)">
<use xlink:href="#c_42baa63129a918535c52adb20d687ea7"/>
<use xlink:href="#c_1260a2df50f305f3db244e29828f968e" x="63.623047"/>
<use xlink:href="#c_7a2040fe3b94fcd41d0a72c84e93b115" x="127.246094"/>
<use xlink:href="#c_7a2040fe3b94fcd41d0a72c84e93b115" x="190.869141"/>
</g>
</g>
</g>
<g id="ytick5">
<g id="line2d30">
<g ><use style="fill: none; stroke: #000000; stroke-width: 0.500000; stroke-linejoin: round; stroke-linecap: butt;  opacity: 1.000000" xlink:href="#m3400efa6b1638b3fea9e19e898273957" x="72.000000" y="216.000000"/>
</g></g>
<g id="line2d31">
<g ><use style="fill: none; stroke: #000000; stroke-width: 0.500000; stroke-linejoin: round; stroke-linecap: butt;  opacity: 1.000000" xlink:href="#m20b58b2501143cb5e0a5e8f1ef6f1643" x="518.400000" y="216.000000"/>
</g></g>
<g id="text11">
<g style="fill: #000000; opacity: 1.000000" transform="translate(39.109375,220.367188)scale(0.120000)">
<use xlink:href="#c_ed3f3ed3ebfbd18bcb9c012009a68ad1"/>
<use xlink:href="#c_7a2040fe3b94fcd41d0a72c84e93b115" x="63.623047"/>
<use xlink:href="#c_7a2040fe3b94fcd41d0a72c84e93b115" x="127.246094"/>
<use xlink:href="#c_7a2040fe3b94fcd41d0a72c84e93b115" x="190.869141"/>
</g>
</g>
</g>
<g id="ytick6">
<g id="line2d32">
<g ><use style="fill: none; stroke: #000000; stroke-width: 0.500000; stroke-linejoin: round; stroke-linecap: butt;  opacity: 1.000000" xlink:href="#m3400efa6b1638b3fea9e19e898273957" x="72.000000" y="172.800000"/>
</g></g>
<g id="line2d33">
<g ><use style="fill: none; stroke: #000000; stroke-width: 0.500000; stroke-linejoin: round; stroke-linecap: butt;  opacity: 1.000000" xlink:href="#m20b58b2501143cb5e0a5e8f1ef6f1643" x="518.400000" y="172.800000"/>
</g></g>
<g id="text12">
<g style="fill: #000000; opacity: 1.000000" transform="translate(39.109375,177.167188)scale(0.120000)">
<use xlink:href="#c_ed3f3ed3ebfbd18bcb9c012009a68ad1"/>
<use xlink:href="#c_1260a2df50f305f3db244e29828f968e" x="63.623047"/>
<use xlink:href="#c_7a2040fe3b94fcd41d0a72c84e93b115" x="127.246094"/>
<use xlink:href="#c_7a2040fe3b94fcd41d0a72c84e93b115" x="190.869141"/>
</g>
</g>
</g>
<g id="ytick7">
<g id="line2d34">
<g ><use style="fill: none; stroke: #000000; stroke-width: 0.500000; stroke-linejoin: round; stroke-linecap: butt;  opacity: 1.000000" xlink:href="#m3400efa6b1638b3fea9e19e898273957" x="72.000000" y="129.600000"/>
</g></g>
<g id="line2d35">
<g ><use style="fill: none; stroke: #000000; stroke-width: 0.500000; stroke-linejoin: round; stroke-linecap: butt;  opacity: 1.000000" xlink:href="#m20b58b2501143cb5e0a5e8f1ef6f1643" x="518.400000" y="129.600000"/>
</g></g>
<g id="text13">
<defs>
<path id="c_3dcfa38a02242cb63ec6726c6e70be7a" d="M40.578125 -39.312500q7.078125 1.515625 11.046875 6.312500q3.984375 4.781250 3.984375 11.812500q0.000000 10.781250 -7.421875 16.703125q-7.421875 5.906250 -21.093750 5.906250q-4.578125 0.000000 -9.437500 -0.906250q-4.859375 -0.906250 -10.031250 -2.718750l0.000000 -9.515625q4.093750 2.390625 8.968750 3.609375q4.890625 1.218750 10.218750 1.218750q9.265625 0.000000 14.125000 -3.656250q4.859375 -3.656250 4.859375 -10.640625q0.000000 -6.453125 -4.515625 -10.078125q-4.515625 -3.640625 -12.562500 -3.640625l-8.500000 0.000000l0.000000 -8.109375l8.890625 0.000000q7.265625 0.000000 11.125000 -2.906250q3.859375 -2.906250 3.859375 -8.375000q0.000000 -5.609375 -3.984375 -8.609375q-3.968750 -3.015625 -11.390625 -3.015625q-4.062500 0.000000 -8.703125 0.890625q-4.640625 0.875000 -10.203125 2.718750l0.000000 -8.781250q5.625000 -1.562500 10.531250 -2.343750q4.906250 -0.781250 9.250000 -0.781250q11.234375 0.000000 17.765625 5.109375q6.546875 5.093750 6.546875 13.781250q0.000000 6.062500 -3.468750 10.234375q-3.468750 4.171875 -9.859375 5.781250"/>
</defs>
<g style="fill: #000000; opacity: 1.000000" transform="translate(39.156250,133.967188)scale(0.120000)">
<use xlink:href="#c_3dcfa38a02242cb63ec6726c6e70be7a"/>
<use xlink:href="#c_7a2040fe3b94fcd41d0a72c84e93b115" x="63.623047"/>
<use xlink:href="#c_7a2040fe3b94fcd41d0a72c84e93b115" x="127.246094"/>
<use xlink:href="#c_7a2040fe3b94fcd41d0a72c84e93b115" x="190.869141"/>
</g>
</g>
</g>
<g id="ytick8">
<g id="line2d36">
<g ><use style="fill: none; stroke: #000000; stroke-width: 0.500000; stroke-linejoin: round; stroke-linecap: butt;  opacity: 1.000000" xlink:href="#m3400efa6b1638b3fea9e19e898273957" x="72.000000" y="86.400000"/>
</g></g>
<g id="line2d37">
<g ><use style="fill: none; stroke: #000000; stroke-width: 0.500000; stroke-linejoin: round; stroke-linecap: butt;  opacity: 1.000000" xlink:href="#m20b58b2501143cb5e0a5e8f1ef6f1643" x="518.400000" y="86.400000"/>
</g></g>
<g id="text14">
<g style="fill: #000000; opacity: 1.000000" transform="translate(39.156250,90.767187)scale(0.120000)">
<use xlink:href="#c_3dcfa38a02242cb63ec6726c6e70be7a"/>
<use xlink:href="#c_1260a2df50f305f3db244e29828f968e" x="63.623047"/>
<use xlink:href="#c_7a2040fe3b94fcd41d0a72c84e93b115" x="127.246094"/>
<use xlink:href="#c_7a2040fe3b94fcd41d0a72c84e93b115" x="190.869141"/>
</g>
</g>
</g>
<g id="ytick9">
<g id="line2d38">
<g ><use style="fill: none; stroke: #000000; stroke-width: 0.500000; stroke-linejoin: round; stroke-linecap: butt;  opacity: 1.000000" xlink:href="#m3400efa6b1638b3fea9e19e898273957" x="72.000000" y="43.200000"/>
</g></g>
<g id="line2d39">
<g ><use style="fill: none; stroke: #000000; stroke-width: 0.500000; stroke-linejoin: round; stroke-linecap: butt;  opacity: 1.000000" xlink:href="#m20b58b2501143cb5e0a5e8f1ef6f1643" x="518.400000" y="43.200000"/>
</g></g>
<g id="text15">
<defs>
<path id="c_a0416418d96557a09b8c1332d34883ba" d="M37.796875 -64.312500l-24.906250 38.921875l24.906250 0.000000zM35.203125 -72.906250l12.406250 0.000000l0.000000 47.515625l10.406250 0.000000l0.000000 8.203125l-10.406250 0.000000l0.000000 17.187500l-9.812500 0.000000l0.000000 -17.187500l-32.906250 0.000000l0.000000 -9.515625z"/>
</defs>
<g style="fill: #000000; opacity: 1.000000" transform="translate(38.828125,47.567187)scale(0.120000)">
<use xlink:href="#c_a0416418d96557a09b8c1332d34883ba"/>
<use xlink:href="#c_7a2040fe3b94fcd41d0a72c84e93b115" x="63.623047"/>
<use xlink:href="#c_7a2040fe3b94fcd41d0a72c84e93b115" x="127.246094"/>
<use xlink:href="#c_7a2040fe3b94fcd41d0a72c84e93b115" x="190.869141"/>
</g>
</g>
</g>
</g>
<g id="patch3">
<path style="fill: none; stroke: #000000; stroke-width: 1.000000; stroke-linejoin: round; stroke-linecap: square;  opacity: 1.000000"  d="M72.000000 43.200000L518.400000 43.200000"/>
</g>
<g id="patch4">
<path style="fill: none; stroke: #000000; stroke-width: 1.000000; stroke-linejoin: round; stroke-linecap: square;  opacity: 1.000000"  d="M518.400000 388.800000L518.400000 43.200000"/>
</g>
<g id="patch5">
<path style="fill: none; stroke: #000000; stroke-width: 1.000000; stroke-linejoin: round; stroke-linecap: square;  opacity: 1.000000"  d="M72.000000 388.800000L518.400000 388.800000"/>
</g>
<g id="patch6">
<path style="fill: none; stroke: #000000; stroke-width: 1.000000; stroke-linejoin: round; stroke-linecap: square;  opacity: 1.000000"  d="M72.000000 388.800000L72.000000 43.200000"/>
</g>
<g id="legend1">
<g id="patch7">
<path style="fill: #ffffff; stroke: #000000; stroke-width: 1.000000; stroke-linejoin: round; stroke-linecap: square;  opacity: 1.000000"  d="M350.485000 238.738750L511.200000 238.738750L511.200000 50.400000
L350.485000 50.400000L350.485000 238.738750z"/>
</g>
<g id="line2d40">
<path style="fill: none; stroke: #0000ff; stroke-width: 1.000000; stroke-linejoin: round; stroke-linecap: square;  opacity: 1.000000"  d="M360.565000 61.760625L380.725000 61.760625"/>
</g>
<g id="line2d41">
</g>
<g id="text16">
<defs>
<path id="c_5cc9741494d2ad8f9764e03ae145569f" d="M48.687500 -27.296875q0.000000 -9.906250 -4.078125 -15.546875q-4.078125 -5.640625 -11.203125 -5.640625q-7.140625 0.000000 -11.218750 5.640625q-4.078125 5.640625 -4.078125 15.546875q0.000000 9.906250 4.078125 15.546875q4.078125 5.640625 11.218750 5.640625q7.125000 0.000000 11.203125 -5.640625q4.078125 -5.640625 4.078125 -15.546875M18.109375 -46.390625q2.843750 -4.875000 7.156250 -7.234375q4.328125 -2.375000 10.328125 -2.375000q9.968750 0.000000 16.187500 7.906250q6.234375 7.906250 6.234375 20.796875q0.000000 12.890625 -6.234375 20.812500q-6.218750 7.906250 -16.187500 7.906250q-6.000000 0.000000 -10.328125 -2.375000q-4.312500 -2.375000 -7.156250 -7.250000l0.000000 8.203125l-9.031250 0.000000l0.000000 -75.984375l9.031250 0.000000z"/>
<path id="c_5099edb83619131346ae654950954dea" d="M9.421875 -75.984375l8.984375 0.000000l0.000000 75.984375l-8.984375 0.000000z"/>
<path id="c_3b515ad41f960e225ec85275856806ca" d="M8.500000 -21.578125l0.000000 -33.109375l8.984375 0.000000l0.000000 32.765625q0.000000 7.765625 3.015625 11.656250q3.031250 3.875000 9.093750 3.875000q7.265625 0.000000 11.484375 -4.640625q4.234375 -4.640625 4.234375 -12.656250l0.000000 -31.000000l8.984375 0.000000l0.000000 54.687500l-8.984375 0.000000l0.000000 -8.406250q-3.265625 4.984375 -7.593750 7.406250q-4.312500 2.421875 -10.031250 2.421875q-9.421875 0.000000 -14.312500 -5.859375q-4.875000 -5.859375 -4.875000 -17.140625M31.109375 -56.000000z"/>
<path id="c_0bce5afba2dc6b9024b26277c38ad8e8" d="M56.203125 -29.593750l0.000000 4.390625l-41.312500 0.000000q0.593750 9.281250 5.593750 14.140625q5.000000 4.859375 13.937500 4.859375q5.171875 0.000000 10.031250 -1.265625q4.859375 -1.265625 9.656250 -3.812500l0.000000 8.500000q-4.843750 2.046875 -9.921875 3.125000q-5.078125 1.078125 -10.296875 1.078125q-13.093750 0.000000 -20.734375 -7.609375q-7.640625 -7.625000 -7.640625 -20.625000q0.000000 -13.421875 7.250000 -21.296875q7.250000 -7.890625 19.562500 -7.890625q11.031250 0.000000 17.453125 7.109375q6.421875 7.093750 6.421875 19.296875M47.218750 -32.234375q-0.093750 -7.359375 -4.125000 -11.750000q-4.031250 -4.406250 -10.671875 -4.406250q-7.515625 0.000000 -12.031250 4.250000q-4.515625 4.250000 -5.203125 11.968750z"/>
</defs>
<g style="fill: #000000; opacity: 1.000000" transform="translate(396.565000,66.800625)scale(0.144000)">
<use xlink:href="#c_5cc9741494d2ad8f9764e03ae145569f"/>
<use xlink:href="#c_5099edb83619131346ae654950954dea" x="63.476562"/>
<use xlink:href="#c_3b515ad41f960e225ec85275856806ca" x="91.259766"/>
<use xlink:href="#c_0bce5afba2dc6b9024b26277c38ad8e8" x="154.638672"/>
</g>
</g>
<g id="line2d42">
<path style="fill: none; stroke: #228b22; stroke-width: 1.000000; stroke-linejoin: round; stroke-linecap: square;  opacity: 1.000000"  d="M360.565000 82.507500L380.725000 82.507500"/>
</g>
<g id="line2d43">
</g>
<g id="text17">
<defs>
<path id="c_e3864de5dabf2f8dd9eee74726882ec1" d="M45.406250 -27.984375q0.000000 -9.765625 -4.031250 -15.125000q-4.015625 -5.375000 -11.296875 -5.375000q-7.218750 0.000000 -11.250000 5.375000q-4.031250 5.359375 -4.031250 15.125000q0.000000 9.718750 4.031250 15.093750q4.031250 5.375000 11.250000 5.375000q7.281250 0.000000 11.296875 -5.375000q4.031250 -5.375000 4.031250 -15.093750M54.390625 -6.781250q0.000000 13.953125 -6.203125 20.765625q-6.187500 6.812500 -18.984375 6.812500q-4.734375 0.000000 -8.937500 -0.703125q-4.203125 -0.703125 -8.156250 -2.171875l0.000000 -8.734375q3.953125 2.140625 7.812500 3.156250q3.859375 1.031250 7.859375 1.031250q8.843750 0.000000 13.234375 -4.609375q4.390625 -4.609375 4.390625 -13.937500l0.000000 -4.453125q-2.781250 4.843750 -7.125000 7.234375q-4.343750 2.390625 -10.406250 2.390625q-10.046875 0.000000 -16.203125 -7.656250q-6.156250 -7.671875 -6.156250 -20.328125q0.000000 -12.687500 6.156250 -20.343750q6.156250 -7.671875 16.203125 -7.671875q6.062500 0.000000 10.406250 2.390625q4.343750 2.390625 7.125000 7.218750l0.000000 -8.296875l8.984375 0.000000z"/>
<path id="c_6ec8d5749226675394676a5d2a3b468b" d="M41.109375 -46.296875q-1.515625 -0.875000 -3.296875 -1.281250q-1.781250 -0.421875 -3.921875 -0.421875q-7.625000 0.000000 -11.703125 4.953125q-4.078125 4.953125 -4.078125 14.234375l0.000000 28.812500l-9.031250 0.000000l0.000000 -54.687500l9.031250 0.000000l0.000000 8.500000q2.843750 -4.984375 7.375000 -7.390625q4.546875 -2.421875 11.046875 -2.421875q0.921875 0.000000 2.046875 0.125000q1.125000 0.109375 2.484375 0.359375z"/>
<path id="c_fe791a90f5471e2ab20a5ed41a7fa451" d="M54.890625 -33.015625l0.000000 33.015625l-8.984375 0.000000l0.000000 -32.718750q0.000000 -7.765625 -3.031250 -11.609375q-3.031250 -3.859375 -9.078125 -3.859375q-7.281250 0.000000 -11.484375 4.640625q-4.203125 4.625000 -4.203125 12.640625l0.000000 30.906250l-9.031250 0.000000l0.000000 -54.687500l9.031250 0.000000l0.000000 8.500000q3.234375 -4.937500 7.593750 -7.375000q4.375000 -2.437500 10.093750 -2.437500q9.421875 0.000000 14.250000 5.828125q4.843750 5.828125 4.843750 17.156250"/>
</defs>
<g style="fill: #000000; opacity: 1.000000" transform="translate(396.565000,87.547500)scale(0.144000)">
<use xlink:href="#c_e3864de5dabf2f8dd9eee74726882ec1"/>
<use xlink:href="#c_6ec8d5749226675394676a5d2a3b468b" x="63.476562"/>
<use xlink:href="#c_0bce5afba2dc6b9024b26277c38ad8e8" x="102.339844"/>
<use xlink:href="#c_0bce5afba2dc6b9024b26277c38ad8e8" x="163.863281"/>
<use xlink:href="#c_fe791a90f5471e2ab20a5ed41a7fa451" x="225.386719"/>
</g>
</g>
<g id="line2d44">
<path style="fill: none; stroke: #ff0000; stroke-width: 1.000000; stroke-linejoin: round; stroke-linecap: square;  opacity: 1.000000"  d="M360.565000 103.254375L380.725000 103.254375"/>
</g>
<g id="line2d45">
</g>
<g id="text18">
<defs>
<path id="c_d821beae607506e87470f334d9ff47af" d="M45.406250 -46.390625l0.000000 -29.593750l8.984375 0.000000l0.000000 75.984375l-8.984375 0.000000l0.000000 -8.203125q-2.828125 4.875000 -7.156250 7.250000q-4.312500 2.375000 -10.375000 2.375000q-9.906250 0.000000 -16.140625 -7.906250q-6.218750 -7.921875 -6.218750 -20.812500q0.000000 -12.890625 6.218750 -20.796875q6.234375 -7.906250 16.140625 -7.906250q6.062500 0.000000 10.375000 2.375000q4.328125 2.359375 7.156250 7.234375M14.796875 -27.296875q0.000000 9.906250 4.078125 15.546875q4.078125 5.640625 11.203125 5.640625q7.125000 0.000000 11.218750 -5.640625q4.109375 -5.640625 4.109375 -15.546875q0.000000 -9.906250 -4.109375 -15.546875q-4.093750 -5.640625 -11.218750 -5.640625q-7.125000 0.000000 -11.203125 5.640625q-4.078125 5.640625 -4.078125 15.546875"/>
</defs>
<g style="fill: #000000; opacity: 1.000000" transform="translate(396.565000,108.294375)scale(0.144000)">
<use xlink:href="#c_6ec8d5749226675394676a5d2a3b468b"/>
<use xlink:href="#c_0bce5afba2dc6b9024b26277c38ad8e8" x="38.863281"/>
<use xlink:href="#c_d821beae607506e87470f334d9ff47af" x="100.386719"/>
</g>
</g>
<g id="line2d46">
<path style="fill: none; stroke: #696969; stroke-width: 1.000000; stroke-linejoin: round; stroke-linecap: square;  opacity: 1.000000"  d="M360.565000 124.001250L380.725000 124.001250"/>
</g>
<g id="line2d47">
</g>
<g id="text19">
<defs>
<path id="c_6a63bda47b2f3da1cec6aadd80692cfe" d="M9.421875 -54.687500l8.984375 0.000000l0.000000 54.687500l-8.984375 0.000000zM9.421875 -75.984375l8.984375 0.000000l0.000000 11.390625l-8.984375 0.000000z"/>
<path id="c_74d54c94aa871ec39e2bc6697dde6c00" d="M54.890625 -33.015625l0.000000 33.015625l-8.984375 0.000000l0.000000 -32.718750q0.000000 -7.765625 -3.031250 -11.609375q-3.031250 -3.859375 -9.078125 -3.859375q-7.281250 0.000000 -11.484375 4.640625q-4.203125 4.625000 -4.203125 12.640625l0.000000 30.906250l-9.031250 0.000000l0.000000 -75.984375l9.031250 0.000000l0.000000 29.796875q3.234375 -4.937500 7.593750 -7.375000q4.375000 -2.437500 10.093750 -2.437500q9.421875 0.000000 14.250000 5.828125q4.843750 5.828125 4.843750 17.156250"/>
<path id="c_0f8c41144cfbf448378cb6fd1cc8e549" d="M18.312500 -70.218750l0.000000 15.531250l18.500000 0.000000l0.000000 6.984375l-18.500000 0.000000l0.000000 29.687500q0.000000 6.687500 1.828125 8.593750q1.828125 1.906250 7.453125 1.906250l9.218750 0.000000l0.000000 7.515625l-9.218750 0.000000q-10.406250 0.000000 -14.359375 -3.875000q-3.953125 -3.890625 -3.953125 -14.140625l0.000000 -29.687500l-6.593750 0.000000l0.000000 -6.984375l6.593750 0.000000l0.000000 -15.531250z"/>
<path id="c_8e0810ad13fe20a2a87a2619799b154d" d="M44.281250 -53.078125l0.000000 8.500000q-3.796875 -1.953125 -7.906250 -2.921875q-4.093750 -0.984375 -8.500000 -0.984375q-6.687500 0.000000 -10.031250 2.046875q-3.343750 2.046875 -3.343750 6.156250q0.000000 3.125000 2.390625 4.906250q2.390625 1.781250 9.625000 3.390625l3.078125 0.687500q9.562500 2.046875 13.593750 5.781250q4.031250 3.734375 4.031250 10.421875q0.000000 7.625000 -6.031250 12.078125q-6.031250 4.437500 -16.578125 4.437500q-4.390625 0.000000 -9.156250 -0.859375q-4.765625 -0.859375 -10.031250 -2.562500l0.000000 -9.281250q4.984375 2.593750 9.812500 3.890625q4.828125 1.281250 9.578125 1.281250q6.343750 0.000000 9.750000 -2.171875q3.421875 -2.171875 3.421875 -6.125000q0.000000 -3.656250 -2.468750 -5.609375q-2.453125 -1.953125 -10.812500 -3.765625l-3.125000 -0.734375q-8.343750 -1.750000 -12.062500 -5.390625q-3.703125 -3.640625 -3.703125 -9.984375q0.000000 -7.718750 5.468750 -11.906250q5.468750 -4.203125 15.531250 -4.203125q4.968750 0.000000 9.359375 0.734375q4.406250 0.718750 8.109375 2.187500"/>
</defs>
<g style="fill: #000000; opacity: 1.000000" transform="translate(396.565000,129.041250)scale(0.144000)">
<use xlink:href="#c_5099edb83619131346ae654950954dea"/>
<use xlink:href="#c_6a63bda47b2f3da1cec6aadd80692cfe" x="27.783203"/>
<use xlink:href="#c_e3864de5dabf2f8dd9eee74726882ec1" x="55.566406"/>
<use xlink:href="#c_74d54c94aa871ec39e2bc6697dde6c00" x="119.042969"/>
<use xlink:href="#c_0f8c41144cfbf448378cb6fd1cc8e549" x="182.421875"/>
<use xlink:href="#c_fe791a90f5471e2ab20a5ed41a7fa451" x="221.630859"/>
<use xlink:href="#c_0bce5afba2dc6b9024b26277c38ad8e8" x="285.009766"/>
<use xlink:href="#c_8e0810ad13fe20a2a87a2619799b154d" x="346.533203"/>
<use xlink:href="#c_8e0810ad13fe20a2a87a2619799b154d" x="398.632813"/>
</g>
</g>
<g id="line2d48">
<path style="fill: none; stroke: #ff00ff; stroke-width: 1.000000; stroke-linejoin: round; stroke-linecap: square;  opacity: 1.000000"  d="M360.565000 144.748125L380.725000 144.748125"/>
</g>
<g id="line2d49">
</g>
<g id="text20">
<defs>
<path id="c_7b26b13f539f13a4c64eef23b6952d29" d="M4.890625 -31.390625l26.312500 0.000000l0.000000 8.000000l-26.312500 0.000000z"/>
<path id="c_4653c6dfde66c7610eae0911760d3490" d="M52.000000 -44.187500q3.375000 -6.062500 8.062500 -8.937500q4.687500 -2.875000 11.031250 -2.875000q8.546875 0.000000 13.187500 5.984375q4.640625 5.968750 4.640625 17.000000l0.000000 33.015625l-9.031250 0.000000l0.000000 -32.718750q0.000000 -7.859375 -2.796875 -11.656250q-2.781250 -3.812500 -8.484375 -3.812500q-6.984375 0.000000 -11.046875 4.640625q-4.046875 4.625000 -4.046875 12.640625l0.000000 30.906250l-9.031250 0.000000l0.000000 -32.718750q0.000000 -7.906250 -2.781250 -11.687500q-2.781250 -3.781250 -8.593750 -3.781250q-6.890625 0.000000 -10.953125 4.656250q-4.046875 4.656250 -4.046875 12.625000l0.000000 30.906250l-9.031250 0.000000l0.000000 -54.687500l9.031250 0.000000l0.000000 8.500000q3.078125 -5.031250 7.375000 -7.421875q4.296875 -2.390625 10.203125 -2.390625q5.968750 0.000000 10.140625 3.031250q4.171875 3.015625 6.171875 8.781250"/>
<path id="c_01d93a582460e35a7945ca50d148ffeb" d="M34.281250 -27.484375q-10.890625 0.000000 -15.093750 2.484375q-4.203125 2.484375 -4.203125 8.500000q0.000000 4.781250 3.156250 7.593750q3.156250 2.796875 8.562500 2.796875q7.484375 0.000000 12.000000 -5.296875q4.515625 -5.296875 4.515625 -14.078125l0.000000 -2.000000zM52.203125 -31.203125l0.000000 31.203125l-8.984375 0.000000l0.000000 -8.296875q-3.078125 4.968750 -7.671875 7.343750q-4.593750 2.375000 -11.234375 2.375000q-8.390625 0.000000 -13.359375 -4.718750q-4.953125 -4.718750 -4.953125 -12.625000q0.000000 -9.218750 6.171875 -13.906250q6.187500 -4.687500 18.437500 -4.687500l12.609375 0.000000l0.000000 -0.890625q0.000000 -6.203125 -4.078125 -9.593750q-4.078125 -3.390625 -11.453125 -3.390625q-4.687500 0.000000 -9.140625 1.125000q-4.437500 1.125000 -8.531250 3.375000l0.000000 -8.312500q4.921875 -1.906250 9.562500 -2.843750q4.640625 -0.953125 9.031250 -0.953125q11.875000 0.000000 17.734375 6.156250q5.859375 6.140625 5.859375 18.640625"/>
</defs>
<g style="fill: #000000; opacity: 1.000000" transform="translate(396.565000,149.788125)scale(0.144000)">
<use xlink:href="#c_e3864de5dabf2f8dd9eee74726882ec1"/>
<use xlink:href="#c_6ec8d5749226675394676a5d2a3b468b" x="63.476562"/>
<use xlink:href="#c_0bce5afba2dc6b9024b26277c38ad8e8" x="102.339844"/>
<use xlink:href="#c_0bce5afba2dc6b9024b26277c38ad8e8" x="163.863281"/>
<use xlink:href="#c_fe791a90f5471e2ab20a5ed41a7fa451" x="225.386719"/>
<use xlink:href="#c_7b26b13f539f13a4c64eef23b6952d29" x="288.765625"/>
<use xlink:href="#c_4653c6dfde66c7610eae0911760d3490" x="324.849609"/>
<use xlink:href="#c_01d93a582460e35a7945ca50d148ffeb" x="422.261719"/>
<use xlink:href="#c_e3864de5dabf2f8dd9eee74726882ec1" x="483.541016"/>
<use xlink:href="#c_0bce5afba2dc6b9024b26277c38ad8e8" x="547.017578"/>
<use xlink:href="#c_fe791a90f5471e2ab20a5ed41a7fa451" x="608.541016"/>
<use xlink:href="#c_0f8c41144cfbf448378cb6fd1cc8e549" x="671.919922"/>
<use xlink:href="#c_01d93a582460e35a7945ca50d148ffeb" x="711.128906"/>
</g>
</g>
<g id="line2d50">
<path style="fill: none; stroke: #ffff00; stroke-width: 1.000000; stroke-linejoin: round; stroke-linecap: square;  opacity: 1.000000"  d="M360.565000 165.495000L380.725000 165.495000"/>
</g>
<g id="line2d51">
</g>
<g id="text21">
<defs>
<path id="c_3fe22c4af425ac970aec982ae9662abe" d="M32.171875 5.078125q-3.796875 9.765625 -7.421875 12.734375q-3.609375 2.984375 -9.656250 2.984375l-7.187500 0.000000l0.000000 -7.515625l5.281250 0.000000q3.703125 0.000000 5.750000 -1.765625q2.062500 -1.750000 4.546875 -8.296875l1.609375 -4.093750l-22.109375 -53.812500l9.515625 0.000000l17.093750 42.765625l17.093750 -42.765625l9.515625 0.000000z"/>
<path id="c_f05dd90d41f04bb96ef1ca503cc2044b" d="M30.609375 -48.390625q-7.218750 0.000000 -11.421875 5.640625q-4.203125 5.640625 -4.203125 15.453125q0.000000 9.812500 4.171875 15.453125q4.187500 5.640625 11.453125 5.640625q7.187500 0.000000 11.375000 -5.656250q4.203125 -5.671875 4.203125 -15.437500q0.000000 -9.718750 -4.203125 -15.406250q-4.187500 -5.687500 -11.375000 -5.687500M30.609375 -56.000000q11.718750 0.000000 18.406250 7.625000q6.703125 7.609375 6.703125 21.078125q0.000000 13.421875 -6.703125 21.078125q-6.687500 7.640625 -18.406250 7.640625q-11.765625 0.000000 -18.437500 -7.640625q-6.656250 -7.656250 -6.656250 -21.078125q0.000000 -13.468750 6.656250 -21.078125q6.671875 -7.625000 18.437500 -7.625000"/>
<path id="c_57adaa7083d7229075db8bc2c5b2febe" d="M4.203125 -54.687500l8.984375 0.000000l11.234375 42.671875l11.171875 -42.671875l10.593750 0.000000l11.234375 42.671875l11.187500 -42.671875l8.984375 0.000000l-14.312500 54.687500l-10.593750 0.000000l-11.765625 -44.828125l-11.812500 44.828125l-10.609375 0.000000z"/>
</defs>
<g style="fill: #000000; opacity: 1.000000" transform="translate(396.565000,170.535000)scale(0.144000)">
<use xlink:href="#c_5cc9741494d2ad8f9764e03ae145569f"/>
<use xlink:href="#c_5099edb83619131346ae654950954dea" x="63.476562"/>
<use xlink:href="#c_3b515ad41f960e225ec85275856806ca" x="91.259766"/>
<use xlink:href="#c_0bce5afba2dc6b9024b26277c38ad8e8" x="154.638672"/>
<use xlink:href="#c_7b26b13f539f13a4c64eef23b6952d29" x="216.162109"/>
<use xlink:href="#c_3fe22c4af425ac970aec982ae9662abe" x="250.496094"/>
<use xlink:href="#c_0bce5afba2dc6b9024b26277c38ad8e8" x="309.675781"/>
<use xlink:href="#c_5099edb83619131346ae654950954dea" x="371.199219"/>
<use xlink:href="#c_5099edb83619131346ae654950954dea" x="398.982422"/>
<use xlink:href="#c_f05dd90d41f04bb96ef1ca503cc2044b" x="426.765625"/>
<use xlink:href="#c_57adaa7083d7229075db8bc2c5b2febe" x="487.947266"/>
</g>
</g>
<g id="line2d52">
<path style="fill: none; stroke: #8a2be2; stroke-width: 1.000000; stroke-linejoin: round; stroke-linecap: square;  opacity: 1.000000"  d="M360.565000 186.241875L380.725000 186.241875"/>
</g>
<g id="line2d53">
</g>
<g id="text22">
<g style="fill: #000000; opacity: 1.000000" transform="translate(396.565000,191.281875)scale(0.144000)">
<use xlink:href="#c_74d54c94aa871ec39e2bc6697dde6c00"/>
<use xlink:href="#c_3b515ad41f960e225ec85275856806ca" x="63.378906"/>
<use xlink:href="#c_0bce5afba2dc6b9024b26277c38ad8e8" x="126.757812"/>
</g>
</g>
<g id="line2d54">
<path style="fill: none; stroke: #00ffff; stroke-width: 1.000000; stroke-linejoin: round; stroke-linecap: square;  opacity: 1.000000"  d="M360.565000 206.988750L380.725000 206.988750"/>
</g>
<g id="line2d55">
</g>
<g id="text23">
<g style="fill: #000000; opacity: 1.000000" transform="translate(396.565000,212.028750)scale(0.144000)">
<use xlink:href="#c_8e0810ad13fe20a2a87a2619799b154d"/>
<use xlink:href="#c_01d93a582460e35a7945ca50d148ffeb" x="52.099609"/>
<use xlink:href="#c_0f8c41144cfbf448378cb6fd1cc8e549" x="113.378906"/>
<use xlink:href="#c_3b515ad41f960e225ec85275856806ca" x="152.587891"/>
<use xlink:href="#c_6ec8d5749226675394676a5d2a3b468b" x="215.966797"/>
<use xlink:href="#c_01d93a582460e35a7945ca50d148ffeb" x="257.080078"/>
<use xlink:href="#c_0f8c41144cfbf448378cb6fd1cc8e549" x="318.359375"/>
<use xlink:href="#c_6a63bda47b2f3da1cec6aadd80692cfe" x="357.568359"/>
<use xlink:href="#c_f05dd90d41f04bb96ef1ca503cc2044b" x="385.351562"/>
<use xlink:href="#c_fe791a90f5471e2ab20a5ed41a7fa451" x="446.533203"/>
</g>
</g>
<g id="line2d56">
<path style="fill: none; stroke: #ffa500; stroke-width: 1.000000; stroke-linejoin: round; stroke-linecap: square;  opacity: 1.000000"  d="M360.565000 227.735625L380.725000 227.735625"/>
</g>
<g id="line2d57">
</g>
<g id="text24">
<defs>
<path id="c_c48ceabac27bf136feba2f4bf2716ab6" d="M2.984375 -54.687500l9.515625 0.000000l17.093750 45.890625l17.093750 -45.890625l9.515625 0.000000l-20.515625 54.687500l-12.203125 0.000000z"/>
</defs>
<g style="fill: #000000; opacity: 1.000000" transform="translate(396.565000,232.775625)scale(0.144000)">
<use xlink:href="#c_c48ceabac27bf136feba2f4bf2716ab6"/>
<use xlink:href="#c_01d93a582460e35a7945ca50d148ffeb" x="59.179687"/>
<use xlink:href="#c_5099edb83619131346ae654950954dea" x="120.458984"/>
<use xlink:href="#c_3b515ad41f960e225ec85275856806ca" x="148.242187"/>
<use xlink:href="#c_0bce5afba2dc6b9024b26277c38ad8e8" x="211.621094"/>
</g>
</g>
</g>
</g>
</g>
</svg>
