<?xml version="1.0" standalone="no"?>
<!DOCTYPE svg PUBLIC "-//W3C//DTD SVG 1.1//EN"
  "http://www.w3.org/Graphics/SVG/1.1/DTD/svg11.dtd">
<!-- Created with matplotlib (http://matplotlib.sourceforge.net/) -->
<svg width="576pt" height="432pt" viewBox="0 0 576 432"
   xmlns="http://www.w3.org/2000/svg"
   xmlns:xlink="http://www.w3.org/1999/xlink"
   version="1.1"
   id="svg1">
<g id="figure1">
<g id="patch1">
<path style="fill: #ffffff; stroke: #ffffff; stroke-width: 1.000000; stroke-linejoin: round; stroke-linecap: square;  opacity: 1.000000"  d="M0.000000 432.000000L576.000000 432.000000L576.000000 0.000000
L0.000000 0.000000L0.000000 432.000000"/>
</g>
<g id="axes1">
<g id="patch2">
<path style="fill: #ffffff; opacity: 1.000000"  d="M72.000000 388.800000L518.400000 388.800000L518.400000 43.200000
L72.000000 43.200000L72.000000 388.800000"/>
</g>
<g id="line2d1">
<defs>
  <clipPath id="p50431ccdcb28178602d99d9270004dde">
<rect x="72.000000" y="43.200000" width="446.400000" height="345.600000"/>
  </clipPath>
</defs><path style="fill: none; stroke: #0000ff; stroke-width: 1.000000; stroke-linejoin: round; stroke-linecap: square;  opacity: 1.000000" clip-path="url(#p50431ccdcb28178602d99d9270004dde)" d="M72.000000 388.696320L84.254118 388.644480L96.508235 387.944640
L101.760000 386.467200L103.510588 385.585920L107.011765 382.501440
L112.263529 374.708160L115.764706 371.278080L117.515294 367.752960
L121.016471 366.629760L122.767059 366.837120L124.517647 364.504320
L126.268235 364.573440L128.018824 364.193280L129.769412 362.292480
L131.520000 362.655360L135.021176 360.840960L136.771765 357.747840
L138.522353 356.184000L143.774118 349.220160L145.524706 348.304320
L147.275294 345.712320L149.025882 345.479040L150.776471 346.317120
L152.527059 346.368960L154.277647 345.686400L156.028235 347.500800
L157.778824 347.984640L159.529412 347.198400L161.280000 347.578560
L163.030588 347.189760L166.531765 347.932800L168.282353 348.986880
L171.783529 349.176960L175.284706 349.297920L177.035294 348.554880
L178.785882 347.137920L180.536471 346.550400L182.287059 346.714560
L185.788235 344.399040L187.538824 344.433600L189.289412 343.768320
L192.790588 343.569600L198.042353 344.027520L199.792941 343.474560
L201.543529 343.560960L208.545882 345.712320L210.296471 345.746880
L212.047059 347.181120L213.797647 348.114240L215.548235 350.239680
L217.298824 351.095040L219.049412 352.995840L220.800000 351.613440
L222.550588 351.777600L224.301176 352.321920L226.051765 351.216000
L227.802353 352.192320L229.552941 351.267840L233.054118 353.350080
L234.804706 353.116800L236.555294 353.280960L240.056471 355.466880
L241.807059 358.490880L243.557647 360.581760L245.308235 364.521600
L247.058824 366.552000L248.809412 370.172160L250.560000 372.323520
L252.310588 375.045120L254.061176 376.341120L255.811765 376.116480
L257.562353 376.816320L259.312941 376.876800L262.814118 379.123200
L271.567059 381.680640L273.317647 381.637440L275.068235 382.363200
L278.569412 382.008960L280.320000 382.510080L289.072941 382.734720
L292.574118 383.201280L294.324706 383.123520L297.825882 384.402240
L299.576471 384.168960L301.327059 384.531840L303.077647 384.445440
L306.578824 384.912000L310.080000 384.946560L311.830588 385.551360
L317.082353 385.620480L318.832941 385.966080L324.084706 385.948800
L336.338824 387.149760L345.091765 388.411200L355.595294 388.730880
L436.122353 388.800000L518.400000 388.800000L518.400000 388.800000"/>
</g>
<g id="line2d2">
<path style="fill: none; stroke: #228b22; stroke-width: 1.000000; stroke-linejoin: round; stroke-linecap: square;  opacity: 1.000000" clip-path="url(#p50431ccdcb28178602d99d9270004dde)" d="M72.000000 388.800000L152.527059 388.523520L157.778824 388.013760
L164.781176 386.942400L166.531765 386.259840L171.783529 386.026560
L173.534118 385.542720L177.035294 385.603200L180.536471 385.560000
L182.287059 385.110720L184.037647 385.560000L187.538824 384.315840
L191.040000 384.030720L192.790588 383.166720L196.291765 382.665600
L198.042353 381.525120L201.543529 381.265920L203.294118 381.093120
L210.296471 381.430080L213.797647 381.818880L224.301176 379.866240
L227.802353 378.786240L229.552941 378.552960L231.303529 377.585280
L233.054118 378.475200L234.804706 377.809920L240.056471 376.781760
L241.807059 375.995520L243.557647 375.615360L247.058824 373.930560
L248.809412 373.921920L250.560000 371.295360L254.061176 369.187200
L255.811765 369.316800L257.562353 368.651520L261.063529 369.904320
L262.814118 369.645120L264.564706 370.992960L268.065882 371.304000
L269.816471 371.355840L273.317647 372.245760L276.818824 371.079360
L280.320000 373.317120L282.070588 373.775040L283.821176 374.760000
L285.571765 374.578560L289.072941 376.142400L290.823529 376.513920
L294.324706 376.565760L297.825882 376.513920L301.327059 375.693120
L303.077647 375.814080L304.828235 375.485760L308.329412 374.008320
L310.080000 374.379840L317.082353 371.900160L318.832941 369.835200
L322.334118 369.325440L324.084706 368.124480L325.835294 366.318720
L329.336471 365.446080L331.087059 362.750400L334.588235 359.303040
L336.338824 357.549120L338.089412 357.497280L339.840000 355.648320
L341.590588 356.218560L345.091765 354.317760L346.842353 354.170880
L348.592941 352.278720L350.343529 351.000000L352.094118 350.792640
L353.844706 349.712640L355.595294 349.583040L357.345882 347.958720
L359.096471 347.137920L360.847059 345.764160L362.597647 345.202560
L364.348235 342.204480L366.098824 341.115840L367.849412 340.770240
L369.600000 338.212800L371.350588 339.050880L373.101176 336.795840
L376.602353 333.927360L378.352941 333.996480L380.103529 335.024640
L381.854118 336.821760L383.604706 339.431040L385.355294 339.059520
L387.105882 341.547840L390.607059 343.811520L392.357647 342.213120
L394.108235 342.187200L395.858824 344.381760L397.609412 345.142080
L401.110588 350.421120L402.861176 354.965760L404.611765 358.067520
L408.112941 365.713920L409.863529 367.934400L413.364706 369.195840
L415.115294 370.249920L420.367059 371.865600L422.117647 374.215680
L423.868235 374.837760L430.870588 380.306880L432.621176 382.371840
L436.122353 384.557760L443.124706 387.227520L450.127059 388.290240
L458.880000 388.696320L465.882353 388.756800L502.644706 388.800000
L518.400000 388.800000L518.400000 388.800000"/>
</g>
<g id="line2d3">
<path style="fill: none; stroke: #ff0000; stroke-width: 1.000000; stroke-linejoin: round; stroke-linecap: square;  opacity: 1.000000" clip-path="url(#p50431ccdcb28178602d99d9270004dde)" d="M72.000000 388.800000L161.280000 388.549440L171.783529 387.054720
L177.035294 384.272640L180.536471 381.663360L182.287059 381.067200
L184.037647 381.188160L185.788235 380.064960L187.538824 379.607040
L191.040000 377.300160L196.291765 372.755520L198.042353 373.066560
L199.792941 372.591360L201.543529 373.006080L205.044706 373.014720
L208.545882 372.729600L210.296471 372.556800L213.797647 371.079360
L220.800000 372.703680L226.051765 373.896000L227.802353 373.489920
L229.552941 374.751360L234.804706 373.299840L236.555294 373.775040
L238.305882 373.455360L243.557647 369.843840L245.308235 368.098560
L247.058824 367.165440L250.560000 363.916800L252.310588 363.286080
L254.061176 363.234240L255.811765 364.262400L257.562353 362.491200
L259.312941 361.653120L261.063529 361.488960L262.814118 362.612160
L266.315294 360.910080L269.816471 360.408960L271.567059 360.702720
L275.068235 359.104320L276.818824 357.609600L278.569412 358.620480
L280.320000 358.655040L282.070588 357.929280L283.821176 356.685120
L285.571765 356.166720L287.322353 355.112640L289.072941 354.654720
L290.823529 352.382400L294.324706 351.103680L297.825882 350.628480
L299.576471 350.490240L301.327059 349.488000L304.828235 350.602560
L306.578824 350.706240L308.329412 349.945920L311.830588 350.775360
L313.581176 351.578880L315.331765 352.874880L317.082353 352.598400
L318.832941 351.838080L322.334118 354.810240L325.835294 356.486400
L327.585882 357.998400L329.336471 357.125760L331.087059 357.635520
L332.837647 357.073920L334.588235 358.439040L336.338824 357.998400
L338.089412 358.516800L339.840000 359.441280L341.590588 359.510400
L343.341176 358.801920L346.842353 354.991680L348.592941 354.153600
L350.343529 352.434240L352.094118 352.935360L353.844706 355.475520
L355.595294 356.970240L359.096471 362.352960L360.847059 364.314240
L362.597647 364.936320L366.098824 367.346880L367.849412 367.778880
L369.600000 369.584640L371.350588 370.042560L373.101176 371.243520
L374.851765 371.381760L376.602353 372.142080L378.352941 372.237120
L380.103529 372.755520L383.604706 374.941440L385.355294 374.950080
L387.105882 376.289280L390.607059 377.161920L392.357647 378.181440
L397.609412 379.987200L401.110588 380.635200L408.112941 382.268160
L411.614118 382.769280L413.364706 382.458240L415.115294 383.477760
L423.868235 384.022080L427.369412 384.480000L429.120000 384.359040
L432.621176 384.765120L434.371765 385.119360L436.122353 384.756480
L437.872941 384.747840L439.623529 385.214400L441.374118 384.937920
L443.124706 385.421760L457.129412 385.836480L462.381176 385.672320
L467.632941 386.285760L472.884706 386.544960L476.385882 387.504000
L488.640000 388.670400L518.400000 388.800000L518.400000 388.800000"/>
</g>
<g id="line2d4">
<path style="fill: none; stroke: #696969; stroke-width: 1.000000; stroke-linejoin: round; stroke-linecap: square;  opacity: 1.000000" clip-path="url(#p50431ccdcb28178602d99d9270004dde)" d="M72.000000 388.800000L163.030588 388.540800L173.534118 386.769600
L175.284706 387.236160L177.035294 387.210240L178.785882 386.398080
L180.536471 387.158400L182.287059 385.767360L184.037647 387.132480
L185.788235 385.896960L187.538824 385.499520L189.289412 386.449920
L191.040000 385.300800L194.541176 385.058880L196.291765 384.868800
L198.042353 385.430400L201.543529 384.445440L203.294118 383.780160
L205.044706 383.927040L206.795294 381.456000L208.545882 383.685120
L212.047059 380.790720L213.797647 382.069440L215.548235 380.652480
L217.298824 379.805760L219.049412 382.285440L220.800000 380.384640
L222.550588 380.177280L226.051765 378.803520L231.303529 377.930880
L233.054118 378.829440L234.804706 378.034560L236.555294 378.077760
L238.305882 375.563520L240.056471 377.593920L241.807059 374.198400
L243.557647 377.092800L245.308235 372.833280L247.058824 375.606720
L248.809412 369.912960L250.560000 368.409600L255.811765 368.323200
L257.562353 369.005760L259.312941 368.202240L261.063529 369.437760
L262.814118 367.217280L264.564706 371.424960L266.315294 371.589120
L268.065882 369.161280L269.816471 373.213440L271.567059 369.437760
L273.317647 369.636480L275.068235 370.759680L276.818824 371.070720
L278.569412 373.550400L280.320000 373.239360L282.070588 371.200320
L283.821176 373.852800L285.571765 374.345280L287.322353 375.693120
L289.072941 373.265280L290.823529 375.874560L292.574118 375.140160
L294.324706 376.945920L296.075294 374.751360L297.825882 374.837760
L306.578824 372.885120L308.329412 370.975680L310.080000 372.634560
L311.830588 373.757760L313.581176 368.539200L315.331765 368.133120
L317.082353 370.880640L318.832941 366.837120L320.583529 366.733440
L322.334118 366.068160L324.084706 366.603840L327.585882 364.348800
L329.336471 358.490880L331.087059 361.877760L332.837647 356.927040
L334.588235 360.849600L336.338824 356.538240L339.840000 358.015680
L341.590588 354.568320L343.341176 353.160000L345.091765 349.842240
L346.842353 350.472960L348.592941 349.427520L350.343529 342.964800
L352.094118 349.945920L353.844706 343.414080L355.595294 344.977920
L357.345882 341.081280L360.847059 340.493760L362.597647 341.193600
L364.348235 340.977600L366.098824 334.454400L367.849412 337.089600
L369.600000 329.572800L371.350588 339.940800L373.101176 337.443840
L376.602353 339.992640L378.352941 346.152960L380.103529 337.132800
L381.854118 340.623360L383.604706 342.342720L385.355294 344.908800
L387.105882 340.960320L388.856471 340.485120L390.607059 343.681920
L392.357647 340.683840L394.108235 342.696960L395.858824 345.746880
L397.609412 352.157760L399.360000 356.235840L401.110588 362.059200
L404.611765 366.137280L406.362353 366.310080L408.112941 367.735680
L409.863529 367.217280L411.614118 367.666560L413.364706 369.601920
L415.115294 369.843840L416.865882 373.826880L418.616471 376.254720
L420.367059 376.747200L423.868235 380.652480L425.618824 380.712960
L427.369412 381.870720L429.120000 382.138560L430.870588 383.270400
L432.621176 383.676480L434.371765 382.752000L436.122353 383.944320
L437.872941 383.659200L443.124706 384.773760L444.875294 385.551360
L448.376471 386.441280L455.378824 388.134720L460.630588 388.558080
L465.882353 388.730880L485.138824 388.800000L518.400000 388.800000
L518.400000 388.800000"/>
</g>
<g id="line2d5">
<path style="fill: none; stroke: #ff00ff; stroke-width: 1.000000; stroke-linejoin: round; stroke-linecap: square;  opacity: 1.000000" clip-path="url(#p50431ccdcb28178602d99d9270004dde)" d="M72.000000 388.800000L224.301176 388.558080L226.051765 388.428480
L227.802353 386.735040L229.552941 381.188160L231.303529 372.548160
L233.054118 358.413120L234.804706 350.360640L236.555294 346.152960
L238.305882 346.360320L240.056471 315.273600L243.557647 283.711680
L245.308235 276.117120L247.058824 259.761600L248.809412 217.105920
L250.560000 191.773440L252.310588 212.820480L255.811765 233.625600
L257.562353 236.399040L259.312941 241.902720L262.814118 296.455680
L264.564706 309.562560L266.315294 309.718080L268.065882 313.511040
L269.816471 330.981120L271.567059 334.238400L273.317647 330.410880
L275.068235 340.571520L276.818824 344.822400L278.569412 346.533120
L282.070588 342.947520L285.571765 350.395200L287.322353 349.237440
L289.072941 345.159360L290.823529 339.655680L292.574118 345.522240
L296.075294 339.638400L299.576471 357.307200L301.327059 360.322560
L303.077647 368.513280L304.828235 371.304000L306.578824 377.429760
L308.329412 382.233600L310.080000 384.626880L311.830588 386.311680
L313.581176 387.348480L317.082353 388.359360L320.583529 388.765440
L345.091765 388.800000L518.400000 388.800000L518.400000 388.800000"/>
</g>
<g id="line2d6">
<path style="fill: none; stroke: #ffff00; stroke-width: 1.000000; stroke-linejoin: round; stroke-linecap: square;  opacity: 1.000000" clip-path="url(#p50431ccdcb28178602d99d9270004dde)" d="M72.000000 388.800000L308.329412 388.730880L310.080000 387.495360
L311.830588 386.674560L313.581176 386.544960L315.331765 383.702400
L317.082353 383.538240L318.832941 381.948480L320.583529 381.507840
L322.334118 382.734720L324.084706 381.231360L325.835294 378.008640
L327.585882 369.688320L329.336471 371.727360L331.087059 370.699200
L332.837647 369.040320L334.588235 366.621120L336.338824 368.435520
L338.089412 371.537280L339.840000 369.221760L341.590588 365.385600
L343.341176 357.877440L345.091765 356.961600L346.842353 353.211840
L348.592941 342.524160L350.343529 327.386880L353.844706 318.651840
L355.595294 311.808960L360.847059 260.815680L362.597647 263.779200
L366.098824 182.934720L367.849412 178.692480L371.350588 199.592640
L374.851765 267.364800L376.602353 291.487680L378.352941 294.027840
L380.103529 303.359040L381.854118 305.268480L383.604706 318.401280
L385.355294 318.409920L387.105882 320.863680L388.856471 345.254400
L390.607059 353.324160L397.609412 362.845440L399.360000 362.465280
L401.110588 375.701760L402.861176 378.423360L404.611765 374.034240
L406.362353 379.270080L408.112941 381.369600L409.863529 381.905280
L411.614118 386.743680L413.364706 388.221120L415.115294 388.791360
L483.388235 388.800000L518.400000 388.800000L518.400000 388.800000"/>
</g>
<g id="line2d7">
<path style="fill: none; stroke: #8a2be2; stroke-width: 1.000000; stroke-linejoin: round; stroke-linecap: square;  opacity: 1.000000" clip-path="url(#p50431ccdcb28178602d99d9270004dde)" d="M72.000000 388.800000L89.505882 388.558080L91.256471 388.082880
L94.757647 385.750080L96.508235 385.646400L98.258824 378.017280
L100.009412 379.010880L101.760000 370.690560L103.510588 371.865600
L105.261176 360.331200L108.762353 348.528960L110.512941 332.916480
L112.263529 330.661440L114.014118 336.968640L115.764706 340.441920
L117.515294 329.857920L119.265882 335.957760L121.016471 327.464640
L122.767059 336.614400L126.268235 323.784000L128.018824 329.279040
L129.769412 295.159680L131.520000 311.420160L133.270588 248.711040
L135.021176 274.440960L136.771765 177.975360L138.522353 122.791680
L140.272941 129.055680L142.023529 83.920320L143.774118 72.601920
L145.524706 73.258560L147.275294 163.676160L149.025882 322.479360
L150.776471 370.249920L152.527059 381.792960L154.277647 386.156160
L156.028235 388.100160L159.529412 388.730880L199.792941 388.800000
L518.400000 388.800000L518.400000 388.800000"/>
</g>
<g id="line2d8">
<path style="fill: none; stroke: #00ffff; stroke-width: 1.000000; stroke-linejoin: round; stroke-linecap: square;  opacity: 1.000000" clip-path="url(#p50431ccdcb28178602d99d9270004dde)" d="M72.000000 388.800000L205.044706 388.609920L215.548235 387.400320
L219.049412 386.337600L220.800000 384.436800L222.550588 380.972160
L227.802353 378.285120L229.552941 378.233280L233.054118 376.902720
L234.804706 376.989120L236.555294 375.960960L240.056471 376.505280
L241.807059 376.401600L243.557647 375.217920L247.058824 374.794560
L248.809412 373.144320L250.560000 375.140160L252.310588 372.496320
L254.061176 371.813760L255.811765 371.882880L257.562353 369.878400
L259.312941 369.221760L261.063529 367.649280L262.814118 368.280000
L264.564706 368.452800L266.315294 366.500160L268.065882 367.139520
L269.816471 363.718080L271.567059 363.674880L273.317647 361.964160
L275.068235 358.508160L276.818824 355.872960L278.569412 356.512320
L280.320000 349.410240L282.070588 348.287040L283.821176 344.943360
L285.571765 347.431680L287.322353 339.819840L289.072941 347.639040
L290.823529 339.854400L292.574118 350.377920L294.324706 347.440320
L296.075294 339.197760L297.825882 349.764480L299.576471 342.904320
L301.327059 344.908800L303.077647 342.066240L306.578824 346.671360
L308.329412 343.474560L310.080000 344.615040L311.830588 344.390400
L313.581176 345.116160L315.331765 348.183360L317.082353 344.666880
L318.832941 343.008000L320.583529 349.470720L322.334118 345.764160
L324.084706 346.835520L325.835294 346.835520L327.585882 347.993280
L329.336471 347.630400L332.837647 347.915520L334.588235 349.660800
L336.338824 349.937280L338.089412 349.833600L339.840000 352.935360
L341.590588 352.486080L345.091765 354.075840L346.842353 356.581440
L348.592941 354.775680L350.343529 357.281280L352.094118 357.557760
L353.844706 357.073920L355.595294 359.475840L357.345882 359.268480
L359.096471 358.076160L360.847059 360.270720L362.597647 361.722240
L366.098824 361.696320L367.849412 360.555840L369.600000 366.664320
L371.350588 360.659520L373.101176 365.014080L374.851765 363.078720
L376.602353 365.843520L378.352941 364.288320L380.103529 365.817600
L381.854118 364.564800L383.604706 366.223680L385.355294 366.128640
L387.105882 368.107200L388.856471 367.908480L392.357647 369.437760
L394.108235 370.206720L395.858824 367.009920L397.609412 370.863360
L399.360000 371.727360L401.110588 369.593280L402.861176 372.349440
L406.362353 372.133440L409.863529 375.503040L411.614118 374.898240
L413.364706 375.840000L415.115294 377.256960L416.865882 376.704000
L418.616471 378.561600L420.367059 378.604800L423.868235 380.963520
L430.870588 383.400000L432.621176 384.652800L434.371765 384.419520
L436.122353 385.266240L437.872941 385.283520L443.124706 386.735040
L464.131765 388.549440L490.390588 388.722240L504.395294 388.774080
L518.400000 388.800000L518.400000 388.800000"/>
</g>
<g id="line2d9">
<path style="fill: none; stroke: #ffa500; stroke-width: 1.000000; stroke-linejoin: round; stroke-linecap: square;  opacity: 1.000000" clip-path="url(#p50431ccdcb28178602d99d9270004dde)" d="M72.000000 388.800000L166.531765 388.488960L177.035294 387.694080
L182.287059 386.994240L184.037647 387.175680L185.788235 386.864640
L187.538824 387.072000L205.044706 384.721920L210.296471 383.348160
L212.047059 382.086720L217.298824 380.885760L219.049412 380.583360
L220.800000 380.695680L222.550588 380.410560L224.301176 379.589760
L226.051765 379.736640L227.802353 379.019520L229.552941 379.330560
L231.303529 378.466560L233.054118 378.768960L234.804706 377.861760
L238.305882 377.274240L241.807059 375.485760L245.308235 374.474880
L248.809412 373.222080L250.560000 370.932480L255.811765 367.899840
L257.562353 367.061760L261.063529 367.182720L262.814118 366.845760
L264.564706 367.968960L266.315294 367.917120L268.065882 368.262720
L269.816471 368.098560L271.567059 369.731520L276.818824 369.264960
L278.569412 370.154880L280.320000 371.571840L290.823529 375.425280
L292.574118 375.261120L297.825882 375.822720L301.327059 374.716800
L303.077647 374.967360L306.578824 374.250240L308.329412 373.455360
L310.080000 373.887360L313.581176 372.384000L315.331765 372.479040
L317.082353 371.615040L318.832941 369.610560L320.583529 369.463680
L324.084706 367.925760L325.835294 366.180480L327.585882 365.921280
L329.336471 365.195520L331.087059 362.646720L334.588235 359.717760
L336.338824 357.523200L338.089412 357.609600L339.840000 355.993920
L341.590588 356.201280L345.091765 354.585600L346.842353 354.516480
L348.592941 352.365120L352.094118 351.000000L355.595294 349.790400
L357.345882 348.589440L360.847059 346.723200L362.597647 345.807360
L364.348235 343.077120L367.849412 341.634240L369.600000 339.215040
L371.350588 341.124480L373.101176 338.247360L374.851765 337.271040
L376.602353 335.776320L378.352941 335.482560L380.103529 336.528000
L381.854118 338.126400L383.604706 341.150400L385.355294 340.528320
L387.105882 343.154880L390.607059 344.658240L392.357647 343.267200
L394.108235 343.310400L399.360000 348.243840L401.110588 350.827200
L402.861176 355.268160L406.362353 362.370240L408.112941 366.137280
L409.863529 368.012160L413.364706 369.126720L415.115294 370.846080
L418.616471 371.494080L420.367059 372.530880L422.117647 374.483520
L423.868235 375.330240L427.369412 378.293760L434.371765 383.330880
L436.122353 383.348160L437.872941 383.711040L439.623529 384.462720
L441.374118 384.307200L443.124706 385.041600L448.376471 385.646400
L450.127059 385.421760L453.628235 386.078400L455.378824 386.112960
L458.880000 385.646400L464.131765 385.922880L467.632941 386.277120
L472.884706 386.527680L476.385882 387.504000L490.390588 388.661760
L497.392941 388.774080L518.400000 388.800000L518.400000 388.800000"/>
</g>
<g id="matplotlib.axis1">
<g id="xtick1">
<g id="line2d10">
<defs><path id="m30e32995789d870ad79a2e54c91cf9c6" d="M0.000000 0.000000L0.000000 -4.000000"/></defs>
<g ><use style="fill: none; stroke: #000000; stroke-width: 0.500000; stroke-linejoin: round; stroke-linecap: butt;  opacity: 1.000000" xlink:href="#m30e32995789d870ad79a2e54c91cf9c6" x="72.000000" y="388.800000"/>
</g></g>
<g id="line2d11">
<defs><path id="m9281cae24120827b11d5ea8a7ad3e96b" d="M0.000000 0.000000L0.000000 4.000000"/></defs>
<g ><use style="fill: none; stroke: #000000; stroke-width: 0.500000; stroke-linejoin: round; stroke-linecap: butt;  opacity: 1.000000" xlink:href="#m9281cae24120827b11d5ea8a7ad3e96b" x="72.000000" y="43.200000"/>
</g></g>
<g id="text1">
<defs>
<path id="c_7a2040fe3b94fcd41d0a72c84e93b115" d="M31.781250 -66.406250q-7.609375 0.000000 -11.453125 7.500000q-3.828125 7.484375 -3.828125 22.531250q0.000000 14.984375 3.828125 22.484375q3.843750 7.500000 11.453125 7.500000q7.671875 0.000000 11.500000 -7.500000q3.843750 -7.500000 3.843750 -22.484375q0.000000 -15.046875 -3.843750 -22.531250q-3.828125 -7.500000 -11.500000 -7.500000M31.781250 -74.218750q12.265625 0.000000 18.734375 9.703125q6.468750 9.687500 6.468750 28.140625q0.000000 18.406250 -6.468750 28.109375q-6.468750 9.687500 -18.734375 9.687500q-12.250000 0.000000 -18.718750 -9.687500q-6.468750 -9.703125 -6.468750 -28.109375q0.000000 -18.453125 6.468750 -28.140625q6.468750 -9.703125 18.718750 -9.703125"/>
</defs>
<g style="fill: #000000; opacity: 1.000000" transform="translate(68.976562,401.706250)scale(0.120000)">
<use xlink:href="#c_7a2040fe3b94fcd41d0a72c84e93b115"/>
</g>
</g>
</g>
<g id="xtick2">
<g id="line2d12">
<g ><use style="fill: none; stroke: #000000; stroke-width: 0.500000; stroke-linejoin: round; stroke-linecap: butt;  opacity: 1.000000" xlink:href="#m30e32995789d870ad79a2e54c91cf9c6" x="159.529412" y="388.800000"/>
</g></g>
<g id="line2d13">
<g ><use style="fill: none; stroke: #000000; stroke-width: 0.500000; stroke-linejoin: round; stroke-linecap: butt;  opacity: 1.000000" xlink:href="#m9281cae24120827b11d5ea8a7ad3e96b" x="159.529412" y="43.200000"/>
</g></g>
<g id="text2">
<defs>
<path id="c_1260a2df50f305f3db244e29828f968e" d="M10.796875 -72.906250l38.718750 0.000000l0.000000 8.312500l-29.687500 0.000000l0.000000 17.859375q2.140625 -0.734375 4.281250 -1.093750q2.156250 -0.359375 4.312500 -0.359375q12.203125 0.000000 19.328125 6.687500q7.140625 6.687500 7.140625 18.109375q0.000000 11.765625 -7.328125 18.296875q-7.328125 6.515625 -20.656250 6.515625q-4.593750 0.000000 -9.359375 -0.781250q-4.750000 -0.781250 -9.828125 -2.343750l0.000000 -9.921875q4.390625 2.390625 9.078125 3.562500q4.687500 1.171875 9.906250 1.171875q8.453125 0.000000 13.375000 -4.437500q4.937500 -4.437500 4.937500 -12.062500q0.000000 -7.609375 -4.937500 -12.046875q-4.921875 -4.453125 -13.375000 -4.453125q-3.953125 0.000000 -7.890625 0.875000q-3.921875 0.875000 -8.015625 2.734375z"/>
</defs>
<g style="fill: #000000; opacity: 1.000000" transform="translate(152.748162,401.706250)scale(0.120000)">
<use xlink:href="#c_1260a2df50f305f3db244e29828f968e"/>
<use xlink:href="#c_7a2040fe3b94fcd41d0a72c84e93b115" x="63.623047"/>
</g>
</g>
</g>
<g id="xtick3">
<g id="line2d14">
<g ><use style="fill: none; stroke: #000000; stroke-width: 0.500000; stroke-linejoin: round; stroke-linecap: butt;  opacity: 1.000000" xlink:href="#m30e32995789d870ad79a2e54c91cf9c6" x="247.058824" y="388.800000"/>
</g></g>
<g id="line2d15">
<g ><use style="fill: none; stroke: #000000; stroke-width: 0.500000; stroke-linejoin: round; stroke-linecap: butt;  opacity: 1.000000" xlink:href="#m9281cae24120827b11d5ea8a7ad3e96b" x="247.058824" y="43.200000"/>
</g></g>
<g id="text3">
<defs>
<path id="c_42baa63129a918535c52adb20d687ea7" d="M12.406250 -8.296875l16.109375 0.000000l0.000000 -55.625000l-17.531250 3.515625l0.000000 -8.984375l17.437500 -3.515625l9.859375 0.000000l0.000000 64.609375l16.109375 0.000000l0.000000 8.296875l-41.984375 0.000000z"/>
</defs>
<g style="fill: #000000; opacity: 1.000000" transform="translate(236.652574,401.706250)scale(0.120000)">
<use xlink:href="#c_42baa63129a918535c52adb20d687ea7"/>
<use xlink:href="#c_7a2040fe3b94fcd41d0a72c84e93b115" x="63.623047"/>
<use xlink:href="#c_7a2040fe3b94fcd41d0a72c84e93b115" x="127.246094"/>
</g>
</g>
</g>
<g id="xtick4">
<g id="line2d16">
<g ><use style="fill: none; stroke: #000000; stroke-width: 0.500000; stroke-linejoin: round; stroke-linecap: butt;  opacity: 1.000000" xlink:href="#m30e32995789d870ad79a2e54c91cf9c6" x="334.588235" y="388.800000"/>
</g></g>
<g id="line2d17">
<g ><use style="fill: none; stroke: #000000; stroke-width: 0.500000; stroke-linejoin: round; stroke-linecap: butt;  opacity: 1.000000" xlink:href="#m9281cae24120827b11d5ea8a7ad3e96b" x="334.588235" y="43.200000"/>
</g></g>
<g id="text4">
<g style="fill: #000000; opacity: 1.000000" transform="translate(324.181985,401.706250)scale(0.120000)">
<use xlink:href="#c_42baa63129a918535c52adb20d687ea7"/>
<use xlink:href="#c_1260a2df50f305f3db244e29828f968e" x="63.623047"/>
<use xlink:href="#c_7a2040fe3b94fcd41d0a72c84e93b115" x="127.246094"/>
</g>
</g>
</g>
<g id="xtick5">
<g id="line2d18">
<g ><use style="fill: none; stroke: #000000; stroke-width: 0.500000; stroke-linejoin: round; stroke-linecap: butt;  opacity: 1.000000" xlink:href="#m30e32995789d870ad79a2e54c91cf9c6" x="422.117647" y="388.800000"/>
</g></g>
<g id="line2d19">
<g ><use style="fill: none; stroke: #000000; stroke-width: 0.500000; stroke-linejoin: round; stroke-linecap: butt;  opacity: 1.000000" xlink:href="#m9281cae24120827b11d5ea8a7ad3e96b" x="422.117647" y="43.200000"/>
</g></g>
<g id="text5">
<defs>
<path id="c_ed3f3ed3ebfbd18bcb9c012009a68ad1" d="M19.187500 -8.296875l34.421875 0.000000l0.000000 8.296875l-46.281250 0.000000l0.000000 -8.296875q5.609375 -5.812500 15.296875 -15.593750q9.703125 -9.796875 12.187500 -12.640625q4.734375 -5.312500 6.609375 -9.000000q1.890625 -3.687500 1.890625 -7.250000q0.000000 -5.812500 -4.078125 -9.468750q-4.078125 -3.671875 -10.625000 -3.671875q-4.640625 0.000000 -9.796875 1.609375q-5.140625 1.609375 -11.000000 4.890625l0.000000 -9.968750q5.953125 -2.390625 11.125000 -3.609375q5.187500 -1.218750 9.484375 -1.218750q11.328125 0.000000 18.062500 5.671875q6.734375 5.656250 6.734375 15.125000q0.000000 4.500000 -1.687500 8.531250q-1.671875 4.015625 -6.125000 9.484375q-1.218750 1.421875 -7.765625 8.187500q-6.531250 6.765625 -18.453125 18.921875"/>
</defs>
<g style="fill: #000000; opacity: 1.000000" transform="translate(411.492647,401.706250)scale(0.120000)">
<use xlink:href="#c_ed3f3ed3ebfbd18bcb9c012009a68ad1"/>
<use xlink:href="#c_7a2040fe3b94fcd41d0a72c84e93b115" x="63.623047"/>
<use xlink:href="#c_7a2040fe3b94fcd41d0a72c84e93b115" x="127.246094"/>
</g>
</g>
</g>
<g id="xtick6">
<g id="line2d20">
<g ><use style="fill: none; stroke: #000000; stroke-width: 0.500000; stroke-linejoin: round; stroke-linecap: butt;  opacity: 1.000000" xlink:href="#m30e32995789d870ad79a2e54c91cf9c6" x="509.647059" y="388.800000"/>
</g></g>
<g id="line2d21">
<g ><use style="fill: none; stroke: #000000; stroke-width: 0.500000; stroke-linejoin: round; stroke-linecap: butt;  opacity: 1.000000" xlink:href="#m9281cae24120827b11d5ea8a7ad3e96b" x="509.647059" y="43.200000"/>
</g></g>
<g id="text6">
<g style="fill: #000000; opacity: 1.000000" transform="translate(499.022059,401.706250)scale(0.120000)">
<use xlink:href="#c_ed3f3ed3ebfbd18bcb9c012009a68ad1"/>
<use xlink:href="#c_1260a2df50f305f3db244e29828f968e" x="63.623047"/>
<use xlink:href="#c_7a2040fe3b94fcd41d0a72c84e93b115" x="127.246094"/>
</g>
</g>
</g>
</g>
<g id="matplotlib.axis2">
<g id="ytick1">
<g id="line2d22">
<defs><path id="m3400efa6b1638b3fea9e19e898273957" d="M0.000000 0.000000L4.000000 0.000000"/></defs>
<g ><use style="fill: none; stroke: #000000; stroke-width: 0.500000; stroke-linejoin: round; stroke-linecap: butt;  opacity: 1.000000" xlink:href="#m3400efa6b1638b3fea9e19e898273957" x="72.000000" y="388.800000"/>
</g></g>
<g id="line2d23">
<defs><path id="m20b58b2501143cb5e0a5e8f1ef6f1643" d="M0.000000 0.000000L-4.000000 0.000000"/></defs>
<g ><use style="fill: none; stroke: #000000; stroke-width: 0.500000; stroke-linejoin: round; stroke-linecap: butt;  opacity: 1.000000" xlink:href="#m20b58b2501143cb5e0a5e8f1ef6f1643" x="518.400000" y="388.800000"/>
</g></g>
<g id="text7">
<g style="fill: #000000; opacity: 1.000000" transform="translate(61.953125,393.167188)scale(0.120000)">
<use xlink:href="#c_7a2040fe3b94fcd41d0a72c84e93b115"/>
</g>
</g>
</g>
<g id="ytick2">
<g id="line2d24">
<g ><use style="fill: none; stroke: #000000; stroke-width: 0.500000; stroke-linejoin: round; stroke-linecap: butt;  opacity: 1.000000" xlink:href="#m3400efa6b1638b3fea9e19e898273957" x="72.000000" y="345.600000"/>
</g></g>
<g id="line2d25">
<g ><use style="fill: none; stroke: #000000; stroke-width: 0.500000; stroke-linejoin: round; stroke-linecap: butt;  opacity: 1.000000" xlink:href="#m20b58b2501143cb5e0a5e8f1ef6f1643" x="518.400000" y="345.600000"/>
</g></g>
<g id="text8">
<g style="fill: #000000; opacity: 1.000000" transform="translate(39.156250,349.967188)scale(0.120000)">
<use xlink:href="#c_1260a2df50f305f3db244e29828f968e"/>
<use xlink:href="#c_7a2040fe3b94fcd41d0a72c84e93b115" x="63.623047"/>
<use xlink:href="#c_7a2040fe3b94fcd41d0a72c84e93b115" x="127.246094"/>
<use xlink:href="#c_7a2040fe3b94fcd41d0a72c84e93b115" x="190.869141"/>
</g>
</g>
</g>
<g id="ytick3">
<g id="line2d26">
<g ><use style="fill: none; stroke: #000000; stroke-width: 0.500000; stroke-linejoin: round; stroke-linecap: butt;  opacity: 1.000000" xlink:href="#m3400efa6b1638b3fea9e19e898273957" x="72.000000" y="302.400000"/>
</g></g>
<g id="line2d27">
<g ><use style="fill: none; stroke: #000000; stroke-width: 0.500000; stroke-linejoin: round; stroke-linecap: butt;  opacity: 1.000000" xlink:href="#m20b58b2501143cb5e0a5e8f1ef6f1643" x="518.400000" y="302.400000"/>
</g></g>
<g id="text9">
<g style="fill: #000000; opacity: 1.000000" transform="translate(31.906250,306.767187)scale(0.120000)">
<use xlink:href="#c_42baa63129a918535c52adb20d687ea7"/>
<use xlink:href="#c_7a2040fe3b94fcd41d0a72c84e93b115" x="63.623047"/>
<use xlink:href="#c_7a2040fe3b94fcd41d0a72c84e93b115" x="127.246094"/>
<use xlink:href="#c_7a2040fe3b94fcd41d0a72c84e93b115" x="190.869141"/>
<use xlink:href="#c_7a2040fe3b94fcd41d0a72c84e93b115" x="254.492188"/>
</g>
</g>
</g>
<g id="ytick4">
<g id="line2d28">
<g ><use style="fill: none; stroke: #000000; stroke-width: 0.500000; stroke-linejoin: round; stroke-linecap: butt;  opacity: 1.000000" xlink:href="#m3400efa6b1638b3fea9e19e898273957" x="72.000000" y="259.200000"/>
</g></g>
<g id="line2d29">
<g ><use style="fill: none; stroke: #000000; stroke-width: 0.500000; stroke-linejoin: round; stroke-linecap: butt;  opacity: 1.000000" xlink:href="#m20b58b2501143cb5e0a5e8f1ef6f1643" x="518.400000" y="259.200000"/>
</g></g>
<g id="text10">
<g style="fill: #000000; opacity: 1.000000" transform="translate(31.906250,263.567187)scale(0.120000)">
<use xlink:href="#c_42baa63129a918535c52adb20d687ea7"/>
<use xlink:href="#c_1260a2df50f305f3db244e29828f968e" x="63.623047"/>
<use xlink:href="#c_7a2040fe3b94fcd41d0a72c84e93b115" x="127.246094"/>
<use xlink:href="#c_7a2040fe3b94fcd41d0a72c84e93b115" x="190.869141"/>
<use xlink:href="#c_7a2040fe3b94fcd41d0a72c84e93b115" x="254.492188"/>
</g>
</g>
</g>
<g id="ytick5">
<g id="line2d30">
<g ><use style="fill: none; stroke: #000000; stroke-width: 0.500000; stroke-linejoin: round; stroke-linecap: butt;  opacity: 1.000000" xlink:href="#m3400efa6b1638b3fea9e19e898273957" x="72.000000" y="216.000000"/>
</g></g>
<g id="line2d31">
<g ><use style="fill: none; stroke: #000000; stroke-width: 0.500000; stroke-linejoin: round; stroke-linecap: butt;  opacity: 1.000000" xlink:href="#m20b58b2501143cb5e0a5e8f1ef6f1643" x="518.400000" y="216.000000"/>
</g></g>
<g id="text11">
<g style="fill: #000000; opacity: 1.000000" transform="translate(31.468750,220.367187)scale(0.120000)">
<use xlink:href="#c_ed3f3ed3ebfbd18bcb9c012009a68ad1"/>
<use xlink:href="#c_7a2040fe3b94fcd41d0a72c84e93b115" x="63.623047"/>
<use xlink:href="#c_7a2040fe3b94fcd41d0a72c84e93b115" x="127.246094"/>
<use xlink:href="#c_7a2040fe3b94fcd41d0a72c84e93b115" x="190.869141"/>
<use xlink:href="#c_7a2040fe3b94fcd41d0a72c84e93b115" x="254.492188"/>
</g>
</g>
</g>
<g id="ytick6">
<g id="line2d32">
<g ><use style="fill: none; stroke: #000000; stroke-width: 0.500000; stroke-linejoin: round; stroke-linecap: butt;  opacity: 1.000000" xlink:href="#m3400efa6b1638b3fea9e19e898273957" x="72.000000" y="172.800000"/>
</g></g>
<g id="line2d33">
<g ><use style="fill: none; stroke: #000000; stroke-width: 0.500000; stroke-linejoin: round; stroke-linecap: butt;  opacity: 1.000000" xlink:href="#m20b58b2501143cb5e0a5e8f1ef6f1643" x="518.400000" y="172.800000"/>
</g></g>
<g id="text12">
<g style="fill: #000000; opacity: 1.000000" transform="translate(31.468750,177.167187)scale(0.120000)">
<use xlink:href="#c_ed3f3ed3ebfbd18bcb9c012009a68ad1"/>
<use xlink:href="#c_1260a2df50f305f3db244e29828f968e" x="63.623047"/>
<use xlink:href="#c_7a2040fe3b94fcd41d0a72c84e93b115" x="127.246094"/>
<use xlink:href="#c_7a2040fe3b94fcd41d0a72c84e93b115" x="190.869141"/>
<use xlink:href="#c_7a2040fe3b94fcd41d0a72c84e93b115" x="254.492188"/>
</g>
</g>
</g>
<g id="ytick7">
<g id="line2d34">
<g ><use style="fill: none; stroke: #000000; stroke-width: 0.500000; stroke-linejoin: round; stroke-linecap: butt;  opacity: 1.000000" xlink:href="#m3400efa6b1638b3fea9e19e898273957" x="72.000000" y="129.600000"/>
</g></g>
<g id="line2d35">
<g ><use style="fill: none; stroke: #000000; stroke-width: 0.500000; stroke-linejoin: round; stroke-linecap: butt;  opacity: 1.000000" xlink:href="#m20b58b2501143cb5e0a5e8f1ef6f1643" x="518.400000" y="129.600000"/>
</g></g>
<g id="text13">
<defs>
<path id="c_3dcfa38a02242cb63ec6726c6e70be7a" d="M40.578125 -39.312500q7.078125 1.515625 11.046875 6.312500q3.984375 4.781250 3.984375 11.812500q0.000000 10.781250 -7.421875 16.703125q-7.421875 5.906250 -21.093750 5.906250q-4.578125 0.000000 -9.437500 -0.906250q-4.859375 -0.906250 -10.031250 -2.718750l0.000000 -9.515625q4.093750 2.390625 8.968750 3.609375q4.890625 1.218750 10.218750 1.218750q9.265625 0.000000 14.125000 -3.656250q4.859375 -3.656250 4.859375 -10.640625q0.000000 -6.453125 -4.515625 -10.078125q-4.515625 -3.640625 -12.562500 -3.640625l-8.500000 0.000000l0.000000 -8.109375l8.890625 0.000000q7.265625 0.000000 11.125000 -2.906250q3.859375 -2.906250 3.859375 -8.375000q0.000000 -5.609375 -3.984375 -8.609375q-3.968750 -3.015625 -11.390625 -3.015625q-4.062500 0.000000 -8.703125 0.890625q-4.640625 0.875000 -10.203125 2.718750l0.000000 -8.781250q5.625000 -1.562500 10.531250 -2.343750q4.906250 -0.781250 9.250000 -0.781250q11.234375 0.000000 17.765625 5.109375q6.546875 5.093750 6.546875 13.781250q0.000000 6.062500 -3.468750 10.234375q-3.468750 4.171875 -9.859375 5.781250"/>
</defs>
<g style="fill: #000000; opacity: 1.000000" transform="translate(31.515625,133.967187)scale(0.120000)">
<use xlink:href="#c_3dcfa38a02242cb63ec6726c6e70be7a"/>
<use xlink:href="#c_7a2040fe3b94fcd41d0a72c84e93b115" x="63.623047"/>
<use xlink:href="#c_7a2040fe3b94fcd41d0a72c84e93b115" x="127.246094"/>
<use xlink:href="#c_7a2040fe3b94fcd41d0a72c84e93b115" x="190.869141"/>
<use xlink:href="#c_7a2040fe3b94fcd41d0a72c84e93b115" x="254.492188"/>
</g>
</g>
</g>
<g id="ytick8">
<g id="line2d36">
<g ><use style="fill: none; stroke: #000000; stroke-width: 0.500000; stroke-linejoin: round; stroke-linecap: butt;  opacity: 1.000000" xlink:href="#m3400efa6b1638b3fea9e19e898273957" x="72.000000" y="86.400000"/>
</g></g>
<g id="line2d37">
<g ><use style="fill: none; stroke: #000000; stroke-width: 0.500000; stroke-linejoin: round; stroke-linecap: butt;  opacity: 1.000000" xlink:href="#m20b58b2501143cb5e0a5e8f1ef6f1643" x="518.400000" y="86.400000"/>
</g></g>
<g id="text14">
<g style="fill: #000000; opacity: 1.000000" transform="translate(31.515625,90.767187)scale(0.120000)">
<use xlink:href="#c_3dcfa38a02242cb63ec6726c6e70be7a"/>
<use xlink:href="#c_1260a2df50f305f3db244e29828f968e" x="63.623047"/>
<use xlink:href="#c_7a2040fe3b94fcd41d0a72c84e93b115" x="127.246094"/>
<use xlink:href="#c_7a2040fe3b94fcd41d0a72c84e93b115" x="190.869141"/>
<use xlink:href="#c_7a2040fe3b94fcd41d0a72c84e93b115" x="254.492188"/>
</g>
</g>
</g>
<g id="ytick9">
<g id="line2d38">
<g ><use style="fill: none; stroke: #000000; stroke-width: 0.500000; stroke-linejoin: round; stroke-linecap: butt;  opacity: 1.000000" xlink:href="#m3400efa6b1638b3fea9e19e898273957" x="72.000000" y="43.200000"/>
</g></g>
<g id="line2d39">
<g ><use style="fill: none; stroke: #000000; stroke-width: 0.500000; stroke-linejoin: round; stroke-linecap: butt;  opacity: 1.000000" xlink:href="#m20b58b2501143cb5e0a5e8f1ef6f1643" x="518.400000" y="43.200000"/>
</g></g>
<g id="text15">
<defs>
<path id="c_a0416418d96557a09b8c1332d34883ba" d="M37.796875 -64.312500l-24.906250 38.921875l24.906250 0.000000zM35.203125 -72.906250l12.406250 0.000000l0.000000 47.515625l10.406250 0.000000l0.000000 8.203125l-10.406250 0.000000l0.000000 17.187500l-9.812500 0.000000l0.000000 -17.187500l-32.906250 0.000000l0.000000 -9.515625z"/>
</defs>
<g style="fill: #000000; opacity: 1.000000" transform="translate(31.187500,47.567187)scale(0.120000)">
<use xlink:href="#c_a0416418d96557a09b8c1332d34883ba"/>
<use xlink:href="#c_7a2040fe3b94fcd41d0a72c84e93b115" x="63.623047"/>
<use xlink:href="#c_7a2040fe3b94fcd41d0a72c84e93b115" x="127.246094"/>
<use xlink:href="#c_7a2040fe3b94fcd41d0a72c84e93b115" x="190.869141"/>
<use xlink:href="#c_7a2040fe3b94fcd41d0a72c84e93b115" x="254.492188"/>
</g>
</g>
</g>
</g>
<g id="patch3">
<path style="fill: none; stroke: #000000; stroke-width: 1.000000; stroke-linejoin: round; stroke-linecap: square;  opacity: 1.000000"  d="M72.000000 43.200000L518.400000 43.200000"/>
</g>
<g id="patch4">
<path style="fill: none; stroke: #000000; stroke-width: 1.000000; stroke-linejoin: round; stroke-linecap: square;  opacity: 1.000000"  d="M518.400000 388.800000L518.400000 43.200000"/>
</g>
<g id="patch5">
<path style="fill: none; stroke: #000000; stroke-width: 1.000000; stroke-linejoin: round; stroke-linecap: square;  opacity: 1.000000"  d="M72.000000 388.800000L518.400000 388.800000"/>
</g>
<g id="patch6">
<path style="fill: none; stroke: #000000; stroke-width: 1.000000; stroke-linejoin: round; stroke-linecap: square;  opacity: 1.000000"  d="M72.000000 388.800000L72.000000 43.200000"/>
</g>
<g id="legend1">
<g id="patch7">
<path style="fill: #ffffff; stroke: #000000; stroke-width: 1.000000; stroke-linejoin: round; stroke-linecap: square;  opacity: 1.000000"  d="M350.485000 238.738750L511.200000 238.738750L511.200000 50.400000
L350.485000 50.400000L350.485000 238.738750z"/>
</g>
<g id="line2d40">
<path style="fill: none; stroke: #0000ff; stroke-width: 1.000000; stroke-linejoin: round; stroke-linecap: square;  opacity: 1.000000"  d="M360.565000 61.760625L380.725000 61.760625"/>
</g>
<g id="line2d41">
</g>
<g id="text16">
<defs>
<path id="c_5cc9741494d2ad8f9764e03ae145569f" d="M48.687500 -27.296875q0.000000 -9.906250 -4.078125 -15.546875q-4.078125 -5.640625 -11.203125 -5.640625q-7.140625 0.000000 -11.218750 5.640625q-4.078125 5.640625 -4.078125 15.546875q0.000000 9.906250 4.078125 15.546875q4.078125 5.640625 11.218750 5.640625q7.125000 0.000000 11.203125 -5.640625q4.078125 -5.640625 4.078125 -15.546875M18.109375 -46.390625q2.843750 -4.875000 7.156250 -7.234375q4.328125 -2.375000 10.328125 -2.375000q9.968750 0.000000 16.187500 7.906250q6.234375 7.906250 6.234375 20.796875q0.000000 12.890625 -6.234375 20.812500q-6.218750 7.906250 -16.187500 7.906250q-6.000000 0.000000 -10.328125 -2.375000q-4.312500 -2.375000 -7.156250 -7.250000l0.000000 8.203125l-9.031250 0.000000l0.000000 -75.984375l9.031250 0.000000z"/>
<path id="c_5099edb83619131346ae654950954dea" d="M9.421875 -75.984375l8.984375 0.000000l0.000000 75.984375l-8.984375 0.000000z"/>
<path id="c_3b515ad41f960e225ec85275856806ca" d="M8.500000 -21.578125l0.000000 -33.109375l8.984375 0.000000l0.000000 32.765625q0.000000 7.765625 3.015625 11.656250q3.031250 3.875000 9.093750 3.875000q7.265625 0.000000 11.484375 -4.640625q4.234375 -4.640625 4.234375 -12.656250l0.000000 -31.000000l8.984375 0.000000l0.000000 54.687500l-8.984375 0.000000l0.000000 -8.406250q-3.265625 4.984375 -7.593750 7.406250q-4.312500 2.421875 -10.031250 2.421875q-9.421875 0.000000 -14.312500 -5.859375q-4.875000 -5.859375 -4.875000 -17.140625M31.109375 -56.000000z"/>
<path id="c_0bce5afba2dc6b9024b26277c38ad8e8" d="M56.203125 -29.593750l0.000000 4.390625l-41.312500 0.000000q0.593750 9.281250 5.593750 14.140625q5.000000 4.859375 13.937500 4.859375q5.171875 0.000000 10.031250 -1.265625q4.859375 -1.265625 9.656250 -3.812500l0.000000 8.500000q-4.843750 2.046875 -9.921875 3.125000q-5.078125 1.078125 -10.296875 1.078125q-13.093750 0.000000 -20.734375 -7.609375q-7.640625 -7.625000 -7.640625 -20.625000q0.000000 -13.421875 7.250000 -21.296875q7.250000 -7.890625 19.562500 -7.890625q11.031250 0.000000 17.453125 7.109375q6.421875 7.093750 6.421875 19.296875M47.218750 -32.234375q-0.093750 -7.359375 -4.125000 -11.750000q-4.031250 -4.406250 -10.671875 -4.406250q-7.515625 0.000000 -12.031250 4.250000q-4.515625 4.250000 -5.203125 11.968750z"/>
</defs>
<g style="fill: #000000; opacity: 1.000000" transform="translate(396.565000,66.800625)scale(0.144000)">
<use xlink:href="#c_5cc9741494d2ad8f9764e03ae145569f"/>
<use xlink:href="#c_5099edb83619131346ae654950954dea" x="63.476562"/>
<use xlink:href="#c_3b515ad41f960e225ec85275856806ca" x="91.259766"/>
<use xlink:href="#c_0bce5afba2dc6b9024b26277c38ad8e8" x="154.638672"/>
</g>
</g>
<g id="line2d42">
<path style="fill: none; stroke: #228b22; stroke-width: 1.000000; stroke-linejoin: round; stroke-linecap: square;  opacity: 1.000000"  d="M360.565000 82.507500L380.725000 82.507500"/>
</g>
<g id="line2d43">
</g>
<g id="text17">
<defs>
<path id="c_e3864de5dabf2f8dd9eee74726882ec1" d="M45.406250 -27.984375q0.000000 -9.765625 -4.031250 -15.125000q-4.015625 -5.375000 -11.296875 -5.375000q-7.218750 0.000000 -11.250000 5.375000q-4.031250 5.359375 -4.031250 15.125000q0.000000 9.718750 4.031250 15.093750q4.031250 5.375000 11.250000 5.375000q7.281250 0.000000 11.296875 -5.375000q4.031250 -5.375000 4.031250 -15.093750M54.390625 -6.781250q0.000000 13.953125 -6.203125 20.765625q-6.187500 6.812500 -18.984375 6.812500q-4.734375 0.000000 -8.937500 -0.703125q-4.203125 -0.703125 -8.156250 -2.171875l0.000000 -8.734375q3.953125 2.140625 7.812500 3.156250q3.859375 1.031250 7.859375 1.031250q8.843750 0.000000 13.234375 -4.609375q4.390625 -4.609375 4.390625 -13.937500l0.000000 -4.453125q-2.781250 4.843750 -7.125000 7.234375q-4.343750 2.390625 -10.406250 2.390625q-10.046875 0.000000 -16.203125 -7.656250q-6.156250 -7.671875 -6.156250 -20.328125q0.000000 -12.687500 6.156250 -20.343750q6.156250 -7.671875 16.203125 -7.671875q6.062500 0.000000 10.406250 2.390625q4.343750 2.390625 7.125000 7.218750l0.000000 -8.296875l8.984375 0.000000z"/>
<path id="c_6ec8d5749226675394676a5d2a3b468b" d="M41.109375 -46.296875q-1.515625 -0.875000 -3.296875 -1.281250q-1.781250 -0.421875 -3.921875 -0.421875q-7.625000 0.000000 -11.703125 4.953125q-4.078125 4.953125 -4.078125 14.234375l0.000000 28.812500l-9.031250 0.000000l0.000000 -54.687500l9.031250 0.000000l0.000000 8.500000q2.843750 -4.984375 7.375000 -7.390625q4.546875 -2.421875 11.046875 -2.421875q0.921875 0.000000 2.046875 0.125000q1.125000 0.109375 2.484375 0.359375z"/>
<path id="c_fe791a90f5471e2ab20a5ed41a7fa451" d="M54.890625 -33.015625l0.000000 33.015625l-8.984375 0.000000l0.000000 -32.718750q0.000000 -7.765625 -3.031250 -11.609375q-3.031250 -3.859375 -9.078125 -3.859375q-7.281250 0.000000 -11.484375 4.640625q-4.203125 4.625000 -4.203125 12.640625l0.000000 30.906250l-9.031250 0.000000l0.000000 -54.687500l9.031250 0.000000l0.000000 8.500000q3.234375 -4.937500 7.593750 -7.375000q4.375000 -2.437500 10.093750 -2.437500q9.421875 0.000000 14.250000 5.828125q4.843750 5.828125 4.843750 17.156250"/>
</defs>
<g style="fill: #000000; opacity: 1.000000" transform="translate(396.565000,87.547500)scale(0.144000)">
<use xlink:href="#c_e3864de5dabf2f8dd9eee74726882ec1"/>
<use xlink:href="#c_6ec8d5749226675394676a5d2a3b468b" x="63.476562"/>
<use xlink:href="#c_0bce5afba2dc6b9024b26277c38ad8e8" x="102.339844"/>
<use xlink:href="#c_0bce5afba2dc6b9024b26277c38ad8e8" x="163.863281"/>
<use xlink:href="#c_fe791a90f5471e2ab20a5ed41a7fa451" x="225.386719"/>
</g>
</g>
<g id="line2d44">
<path style="fill: none; stroke: #ff0000; stroke-width: 1.000000; stroke-linejoin: round; stroke-linecap: square;  opacity: 1.000000"  d="M360.565000 103.254375L380.725000 103.254375"/>
</g>
<g id="line2d45">
</g>
<g id="text18">
<defs>
<path id="c_d821beae607506e87470f334d9ff47af" d="M45.406250 -46.390625l0.000000 -29.593750l8.984375 0.000000l0.000000 75.984375l-8.984375 0.000000l0.000000 -8.203125q-2.828125 4.875000 -7.156250 7.250000q-4.312500 2.375000 -10.375000 2.375000q-9.906250 0.000000 -16.140625 -7.906250q-6.218750 -7.921875 -6.218750 -20.812500q0.000000 -12.890625 6.218750 -20.796875q6.234375 -7.906250 16.140625 -7.906250q6.062500 0.000000 10.375000 2.375000q4.328125 2.359375 7.156250 7.234375M14.796875 -27.296875q0.000000 9.906250 4.078125 15.546875q4.078125 5.640625 11.203125 5.640625q7.125000 0.000000 11.218750 -5.640625q4.109375 -5.640625 4.109375 -15.546875q0.000000 -9.906250 -4.109375 -15.546875q-4.093750 -5.640625 -11.218750 -5.640625q-7.125000 0.000000 -11.203125 5.640625q-4.078125 5.640625 -4.078125 15.546875"/>
</defs>
<g style="fill: #000000; opacity: 1.000000" transform="translate(396.565000,108.294375)scale(0.144000)">
<use xlink:href="#c_6ec8d5749226675394676a5d2a3b468b"/>
<use xlink:href="#c_0bce5afba2dc6b9024b26277c38ad8e8" x="38.863281"/>
<use xlink:href="#c_d821beae607506e87470f334d9ff47af" x="100.386719"/>
</g>
</g>
<g id="line2d46">
<path style="fill: none; stroke: #696969; stroke-width: 1.000000; stroke-linejoin: round; stroke-linecap: square;  opacity: 1.000000"  d="M360.565000 124.001250L380.725000 124.001250"/>
</g>
<g id="line2d47">
</g>
<g id="text19">
<defs>
<path id="c_6a63bda47b2f3da1cec6aadd80692cfe" d="M9.421875 -54.687500l8.984375 0.000000l0.000000 54.687500l-8.984375 0.000000zM9.421875 -75.984375l8.984375 0.000000l0.000000 11.390625l-8.984375 0.000000z"/>
<path id="c_74d54c94aa871ec39e2bc6697dde6c00" d="M54.890625 -33.015625l0.000000 33.015625l-8.984375 0.000000l0.000000 -32.718750q0.000000 -7.765625 -3.031250 -11.609375q-3.031250 -3.859375 -9.078125 -3.859375q-7.281250 0.000000 -11.484375 4.640625q-4.203125 4.625000 -4.203125 12.640625l0.000000 30.906250l-9.031250 0.000000l0.000000 -75.984375l9.031250 0.000000l0.000000 29.796875q3.234375 -4.937500 7.593750 -7.375000q4.375000 -2.437500 10.093750 -2.437500q9.421875 0.000000 14.250000 5.828125q4.843750 5.828125 4.843750 17.156250"/>
<path id="c_0f8c41144cfbf448378cb6fd1cc8e549" d="M18.312500 -70.218750l0.000000 15.531250l18.500000 0.000000l0.000000 6.984375l-18.500000 0.000000l0.000000 29.687500q0.000000 6.687500 1.828125 8.593750q1.828125 1.906250 7.453125 1.906250l9.218750 0.000000l0.000000 7.515625l-9.218750 0.000000q-10.406250 0.000000 -14.359375 -3.875000q-3.953125 -3.890625 -3.953125 -14.140625l0.000000 -29.687500l-6.593750 0.000000l0.000000 -6.984375l6.593750 0.000000l0.000000 -15.531250z"/>
<path id="c_8e0810ad13fe20a2a87a2619799b154d" d="M44.281250 -53.078125l0.000000 8.500000q-3.796875 -1.953125 -7.906250 -2.921875q-4.093750 -0.984375 -8.500000 -0.984375q-6.687500 0.000000 -10.031250 2.046875q-3.343750 2.046875 -3.343750 6.156250q0.000000 3.125000 2.390625 4.906250q2.390625 1.781250 9.625000 3.390625l3.078125 0.687500q9.562500 2.046875 13.593750 5.781250q4.031250 3.734375 4.031250 10.421875q0.000000 7.625000 -6.031250 12.078125q-6.031250 4.437500 -16.578125 4.437500q-4.390625 0.000000 -9.156250 -0.859375q-4.765625 -0.859375 -10.031250 -2.562500l0.000000 -9.281250q4.984375 2.593750 9.812500 3.890625q4.828125 1.281250 9.578125 1.281250q6.343750 0.000000 9.750000 -2.171875q3.421875 -2.171875 3.421875 -6.125000q0.000000 -3.656250 -2.468750 -5.609375q-2.453125 -1.953125 -10.812500 -3.765625l-3.125000 -0.734375q-8.343750 -1.750000 -12.062500 -5.390625q-3.703125 -3.640625 -3.703125 -9.984375q0.000000 -7.718750 5.468750 -11.906250q5.468750 -4.203125 15.531250 -4.203125q4.968750 0.000000 9.359375 0.734375q4.406250 0.718750 8.109375 2.187500"/>
</defs>
<g style="fill: #000000; opacity: 1.000000" transform="translate(396.565000,129.041250)scale(0.144000)">
<use xlink:href="#c_5099edb83619131346ae654950954dea"/>
<use xlink:href="#c_6a63bda47b2f3da1cec6aadd80692cfe" x="27.783203"/>
<use xlink:href="#c_e3864de5dabf2f8dd9eee74726882ec1" x="55.566406"/>
<use xlink:href="#c_74d54c94aa871ec39e2bc6697dde6c00" x="119.042969"/>
<use xlink:href="#c_0f8c41144cfbf448378cb6fd1cc8e549" x="182.421875"/>
<use xlink:href="#c_fe791a90f5471e2ab20a5ed41a7fa451" x="221.630859"/>
<use xlink:href="#c_0bce5afba2dc6b9024b26277c38ad8e8" x="285.009766"/>
<use xlink:href="#c_8e0810ad13fe20a2a87a2619799b154d" x="346.533203"/>
<use xlink:href="#c_8e0810ad13fe20a2a87a2619799b154d" x="398.632813"/>
</g>
</g>
<g id="line2d48">
<path style="fill: none; stroke: #ff00ff; stroke-width: 1.000000; stroke-linejoin: round; stroke-linecap: square;  opacity: 1.000000"  d="M360.565000 144.748125L380.725000 144.748125"/>
</g>
<g id="line2d49">
</g>
<g id="text20">
<defs>
<path id="c_7b26b13f539f13a4c64eef23b6952d29" d="M4.890625 -31.390625l26.312500 0.000000l0.000000 8.000000l-26.312500 0.000000z"/>
<path id="c_4653c6dfde66c7610eae0911760d3490" d="M52.000000 -44.187500q3.375000 -6.062500 8.062500 -8.937500q4.687500 -2.875000 11.031250 -2.875000q8.546875 0.000000 13.187500 5.984375q4.640625 5.968750 4.640625 17.000000l0.000000 33.015625l-9.031250 0.000000l0.000000 -32.718750q0.000000 -7.859375 -2.796875 -11.656250q-2.781250 -3.812500 -8.484375 -3.812500q-6.984375 0.000000 -11.046875 4.640625q-4.046875 4.625000 -4.046875 12.640625l0.000000 30.906250l-9.031250 0.000000l0.000000 -32.718750q0.000000 -7.906250 -2.781250 -11.687500q-2.781250 -3.781250 -8.593750 -3.781250q-6.890625 0.000000 -10.953125 4.656250q-4.046875 4.656250 -4.046875 12.625000l0.000000 30.906250l-9.031250 0.000000l0.000000 -54.687500l9.031250 0.000000l0.000000 8.500000q3.078125 -5.031250 7.375000 -7.421875q4.296875 -2.390625 10.203125 -2.390625q5.968750 0.000000 10.140625 3.031250q4.171875 3.015625 6.171875 8.781250"/>
<path id="c_01d93a582460e35a7945ca50d148ffeb" d="M34.281250 -27.484375q-10.890625 0.000000 -15.093750 2.484375q-4.203125 2.484375 -4.203125 8.500000q0.000000 4.781250 3.156250 7.593750q3.156250 2.796875 8.562500 2.796875q7.484375 0.000000 12.000000 -5.296875q4.515625 -5.296875 4.515625 -14.078125l0.000000 -2.000000zM52.203125 -31.203125l0.000000 31.203125l-8.984375 0.000000l0.000000 -8.296875q-3.078125 4.968750 -7.671875 7.343750q-4.593750 2.375000 -11.234375 2.375000q-8.390625 0.000000 -13.359375 -4.718750q-4.953125 -4.718750 -4.953125 -12.625000q0.000000 -9.218750 6.171875 -13.906250q6.187500 -4.687500 18.437500 -4.687500l12.609375 0.000000l0.000000 -0.890625q0.000000 -6.203125 -4.078125 -9.593750q-4.078125 -3.390625 -11.453125 -3.390625q-4.687500 0.000000 -9.140625 1.125000q-4.437500 1.125000 -8.531250 3.375000l0.000000 -8.312500q4.921875 -1.906250 9.562500 -2.843750q4.640625 -0.953125 9.031250 -0.953125q11.875000 0.000000 17.734375 6.156250q5.859375 6.140625 5.859375 18.640625"/>
</defs>
<g style="fill: #000000; opacity: 1.000000" transform="translate(396.565000,149.788125)scale(0.144000)">
<use xlink:href="#c_e3864de5dabf2f8dd9eee74726882ec1"/>
<use xlink:href="#c_6ec8d5749226675394676a5d2a3b468b" x="63.476562"/>
<use xlink:href="#c_0bce5afba2dc6b9024b26277c38ad8e8" x="102.339844"/>
<use xlink:href="#c_0bce5afba2dc6b9024b26277c38ad8e8" x="163.863281"/>
<use xlink:href="#c_fe791a90f5471e2ab20a5ed41a7fa451" x="225.386719"/>
<use xlink:href="#c_7b26b13f539f13a4c64eef23b6952d29" x="288.765625"/>
<use xlink:href="#c_4653c6dfde66c7610eae0911760d3490" x="324.849609"/>
<use xlink:href="#c_01d93a582460e35a7945ca50d148ffeb" x="422.261719"/>
<use xlink:href="#c_e3864de5dabf2f8dd9eee74726882ec1" x="483.541016"/>
<use xlink:href="#c_0bce5afba2dc6b9024b26277c38ad8e8" x="547.017578"/>
<use xlink:href="#c_fe791a90f5471e2ab20a5ed41a7fa451" x="608.541016"/>
<use xlink:href="#c_0f8c41144cfbf448378cb6fd1cc8e549" x="671.919922"/>
<use xlink:href="#c_01d93a582460e35a7945ca50d148ffeb" x="711.128906"/>
</g>
</g>
<g id="line2d50">
<path style="fill: none; stroke: #ffff00; stroke-width: 1.000000; stroke-linejoin: round; stroke-linecap: square;  opacity: 1.000000"  d="M360.565000 165.495000L380.725000 165.495000"/>
</g>
<g id="line2d51">
</g>
<g id="text21">
<defs>
<path id="c_3fe22c4af425ac970aec982ae9662abe" d="M32.171875 5.078125q-3.796875 9.765625 -7.421875 12.734375q-3.609375 2.984375 -9.656250 2.984375l-7.187500 0.000000l0.000000 -7.515625l5.281250 0.000000q3.703125 0.000000 5.750000 -1.765625q2.062500 -1.750000 4.546875 -8.296875l1.609375 -4.093750l-22.109375 -53.812500l9.515625 0.000000l17.093750 42.765625l17.093750 -42.765625l9.515625 0.000000z"/>
<path id="c_f05dd90d41f04bb96ef1ca503cc2044b" d="M30.609375 -48.390625q-7.218750 0.000000 -11.421875 5.640625q-4.203125 5.640625 -4.203125 15.453125q0.000000 9.812500 4.171875 15.453125q4.187500 5.640625 11.453125 5.640625q7.187500 0.000000 11.375000 -5.656250q4.203125 -5.671875 4.203125 -15.437500q0.000000 -9.718750 -4.203125 -15.406250q-4.187500 -5.687500 -11.375000 -5.687500M30.609375 -56.000000q11.718750 0.000000 18.406250 7.625000q6.703125 7.609375 6.703125 21.078125q0.000000 13.421875 -6.703125 21.078125q-6.687500 7.640625 -18.406250 7.640625q-11.765625 0.000000 -18.437500 -7.640625q-6.656250 -7.656250 -6.656250 -21.078125q0.000000 -13.468750 6.656250 -21.078125q6.671875 -7.625000 18.437500 -7.625000"/>
<path id="c_57adaa7083d7229075db8bc2c5b2febe" d="M4.203125 -54.687500l8.984375 0.000000l11.234375 42.671875l11.171875 -42.671875l10.593750 0.000000l11.234375 42.671875l11.187500 -42.671875l8.984375 0.000000l-14.312500 54.687500l-10.593750 0.000000l-11.765625 -44.828125l-11.812500 44.828125l-10.609375 0.000000z"/>
</defs>
<g style="fill: #000000; opacity: 1.000000" transform="translate(396.565000,170.535000)scale(0.144000)">
<use xlink:href="#c_5cc9741494d2ad8f9764e03ae145569f"/>
<use xlink:href="#c_5099edb83619131346ae654950954dea" x="63.476562"/>
<use xlink:href="#c_3b515ad41f960e225ec85275856806ca" x="91.259766"/>
<use xlink:href="#c_0bce5afba2dc6b9024b26277c38ad8e8" x="154.638672"/>
<use xlink:href="#c_7b26b13f539f13a4c64eef23b6952d29" x="216.162109"/>
<use xlink:href="#c_3fe22c4af425ac970aec982ae9662abe" x="250.496094"/>
<use xlink:href="#c_0bce5afba2dc6b9024b26277c38ad8e8" x="309.675781"/>
<use xlink:href="#c_5099edb83619131346ae654950954dea" x="371.199219"/>
<use xlink:href="#c_5099edb83619131346ae654950954dea" x="398.982422"/>
<use xlink:href="#c_f05dd90d41f04bb96ef1ca503cc2044b" x="426.765625"/>
<use xlink:href="#c_57adaa7083d7229075db8bc2c5b2febe" x="487.947266"/>
</g>
</g>
<g id="line2d52">
<path style="fill: none; stroke: #8a2be2; stroke-width: 1.000000; stroke-linejoin: round; stroke-linecap: square;  opacity: 1.000000"  d="M360.565000 186.241875L380.725000 186.241875"/>
</g>
<g id="line2d53">
</g>
<g id="text22">
<g style="fill: #000000; opacity: 1.000000" transform="translate(396.565000,191.281875)scale(0.144000)">
<use xlink:href="#c_74d54c94aa871ec39e2bc6697dde6c00"/>
<use xlink:href="#c_3b515ad41f960e225ec85275856806ca" x="63.378906"/>
<use xlink:href="#c_0bce5afba2dc6b9024b26277c38ad8e8" x="126.757812"/>
</g>
</g>
<g id="line2d54">
<path style="fill: none; stroke: #00ffff; stroke-width: 1.000000; stroke-linejoin: round; stroke-linecap: square;  opacity: 1.000000"  d="M360.565000 206.988750L380.725000 206.988750"/>
</g>
<g id="line2d55">
</g>
<g id="text23">
<g style="fill: #000000; opacity: 1.000000" transform="translate(396.565000,212.028750)scale(0.144000)">
<use xlink:href="#c_8e0810ad13fe20a2a87a2619799b154d"/>
<use xlink:href="#c_01d93a582460e35a7945ca50d148ffeb" x="52.099609"/>
<use xlink:href="#c_0f8c41144cfbf448378cb6fd1cc8e549" x="113.378906"/>
<use xlink:href="#c_3b515ad41f960e225ec85275856806ca" x="152.587891"/>
<use xlink:href="#c_6ec8d5749226675394676a5d2a3b468b" x="215.966797"/>
<use xlink:href="#c_01d93a582460e35a7945ca50d148ffeb" x="257.080078"/>
<use xlink:href="#c_0f8c41144cfbf448378cb6fd1cc8e549" x="318.359375"/>
<use xlink:href="#c_6a63bda47b2f3da1cec6aadd80692cfe" x="357.568359"/>
<use xlink:href="#c_f05dd90d41f04bb96ef1ca503cc2044b" x="385.351562"/>
<use xlink:href="#c_fe791a90f5471e2ab20a5ed41a7fa451" x="446.533203"/>
</g>
</g>
<g id="line2d56">
<path style="fill: none; stroke: #ffa500; stroke-width: 1.000000; stroke-linejoin: round; stroke-linecap: square;  opacity: 1.000000"  d="M360.565000 227.735625L380.725000 227.735625"/>
</g>
<g id="line2d57">
</g>
<g id="text24">
<defs>
<path id="c_c48ceabac27bf136feba2f4bf2716ab6" d="M2.984375 -54.687500l9.515625 0.000000l17.093750 45.890625l17.093750 -45.890625l9.515625 0.000000l-20.515625 54.687500l-12.203125 0.000000z"/>
</defs>
<g style="fill: #000000; opacity: 1.000000" transform="translate(396.565000,232.775625)scale(0.144000)">
<use xlink:href="#c_c48ceabac27bf136feba2f4bf2716ab6"/>
<use xlink:href="#c_01d93a582460e35a7945ca50d148ffeb" x="59.179687"/>
<use xlink:href="#c_5099edb83619131346ae654950954dea" x="120.458984"/>
<use xlink:href="#c_3b515ad41f960e225ec85275856806ca" x="148.242187"/>
<use xlink:href="#c_0bce5afba2dc6b9024b26277c38ad8e8" x="211.621094"/>
</g>
</g>
</g>
</g>
</g>
</svg>
