<?xml version="1.0" standalone="no"?>
<!DOCTYPE svg PUBLIC "-//W3C//DTD SVG 1.1//EN"
  "http://www.w3.org/Graphics/SVG/1.1/DTD/svg11.dtd">
<!-- Created with matplotlib (http://matplotlib.sourceforge.net/) -->
<svg width="576pt" height="432pt" viewBox="0 0 576 432"
   xmlns="http://www.w3.org/2000/svg"
   xmlns:xlink="http://www.w3.org/1999/xlink"
   version="1.1"
   id="svg1">
<g id="figure1">
<g id="patch1">
<path style="fill: #ffffff; stroke: #ffffff; stroke-width: 1.000000; stroke-linejoin: round; stroke-linecap: square;  opacity: 1.000000"  d="M0.000000 432.000000L576.000000 432.000000L576.000000 0.000000
L0.000000 0.000000L0.000000 432.000000"/>
</g>
<g id="axes1">
<g id="patch2">
<path style="fill: #ffffff; opacity: 1.000000"  d="M72.000000 388.800000L518.400000 388.800000L518.400000 43.200000
L72.000000 43.200000L72.000000 388.800000"/>
</g>
<g id="line2d1">
<defs>
  <clipPath id="p50431ccdcb28178602d99d9270004dde">
<rect x="72.000000" y="43.200000" width="446.400000" height="345.600000"/>
  </clipPath>
</defs><path style="fill: none; stroke: #0000ff; stroke-width: 1.000000; stroke-linejoin: round; stroke-linecap: square;  opacity: 1.000000" clip-path="url(#p50431ccdcb28178602d99d9270004dde)" d="M72.000000 388.756800L82.503529 388.722240L93.007059 388.061280
L98.258824 387.132480L107.011765 385.162560L114.014118 383.633280
L119.265882 381.330720L122.767059 378.319680L124.517647 377.222400
L129.769412 371.908800L133.270588 369.947520L135.021176 368.655840
L138.522353 367.554240L140.272941 367.407360L145.524706 364.284000
L150.776471 361.454400L157.778824 361.264320L161.280000 360.508320
L163.030588 361.260000L166.531765 360.305280L168.282353 360.689760
L171.783529 359.588160L173.534118 360.499680L175.284706 359.022240
L180.536471 358.642080L185.788235 357.350400L187.538824 356.015520
L189.289412 355.380480L191.040000 354.110400L192.790588 352.192320
L194.541176 353.272320L196.291765 351.894240L199.792941 350.542080
L206.795294 347.384160L210.296471 348.654240L213.797647 347.906880
L215.548235 348.576480L219.049412 348.727680L222.550588 347.842080
L226.051765 348.762240L229.552941 346.744800L231.303529 347.004000
L234.804706 348.783840L236.555294 349.367040L238.305882 350.352000
L240.056471 351.855360L241.807059 352.270080L243.557647 353.147040
L245.308235 355.466880L250.560000 359.739360L252.310588 360.240480
L261.063529 367.420320L262.814118 368.513280L266.315294 371.748960
L271.567059 374.738400L273.317647 376.263360L275.068235 376.224480
L276.818824 377.546400L278.569412 377.468640L282.070588 377.853120
L287.322353 378.501120L289.072941 378.151200L292.574118 379.075680
L297.825882 380.358720L301.327059 380.678400L303.077647 381.084480
L304.828235 380.669760L306.578824 380.764800L308.329412 381.373920
L310.080000 381.144960L311.830588 381.853440L313.581176 381.866400
L320.583529 383.585760L322.334118 383.637600L324.084706 384.302880
L329.336471 385.032960L339.840000 387.192960L345.091765 387.776160
L348.592941 388.152000L362.597647 388.614240L381.854118 388.800000
L516.649412 388.800000L518.400000 388.800000L518.400000 388.800000"/>
</g>
<g id="line2d2">
<path style="fill: none; stroke: #228b22; stroke-width: 1.000000; stroke-linejoin: round; stroke-linecap: square;  opacity: 1.000000" clip-path="url(#p50431ccdcb28178602d99d9270004dde)" d="M72.000000 388.800000L157.778824 388.488960L178.785882 386.799840
L184.037647 386.095680L227.802353 384.423840L229.552941 384.683040
L233.054118 384.600960L236.555294 384.937920L247.058824 385.598880
L252.310588 385.771680L269.816471 385.439040L273.317647 385.106400
L276.818824 384.842880L278.569412 384.467040L280.320000 384.583680
L283.821176 383.711040L287.322353 383.054400L289.072941 382.574880
L292.574118 380.989440L299.576471 379.512000L303.077647 379.092960
L304.828235 378.531360L306.578824 378.397440L308.329412 377.356320
L313.581176 375.775200L318.832941 373.960800L320.583529 373.507200
L322.334118 374.120640L324.084706 373.934880L325.835294 374.332320
L327.585882 373.740480L336.338824 372.824640L338.089412 371.926080
L339.840000 371.844000L343.341176 370.936800L346.842353 370.046880
L350.343529 368.150400L357.345882 366.953760L360.847059 365.597280
L362.597647 365.580000L364.348235 365.001120L374.851765 358.957440
L381.854118 353.004480L383.604706 350.248320L385.355294 348.658560
L387.105882 347.794560L388.856471 346.338720L390.607059 346.347360
L392.357647 345.876480L395.858824 347.220000L397.609412 346.429440
L401.110588 348.032160L402.861176 348.818400L406.362353 348.433920
L408.112941 347.483520L409.863529 347.725440L411.614118 347.116320
L415.115294 347.220000L416.865882 345.984480L418.616471 345.928320
L422.117647 344.049120L423.868235 344.571840L425.618824 343.630080
L427.369412 345.638880L430.870588 344.390400L432.621176 344.887200
L434.371765 344.316960L436.122353 345.176640L437.872941 346.451040
L439.623529 346.593600L443.124706 349.963200L450.127059 361.234080
L451.877647 363.739680L453.628235 367.416000L457.129412 372.604320
L458.880000 376.060320L460.630588 377.926560L462.381176 380.790720
L467.632941 385.486560L472.884706 387.534240L479.887059 388.376640
L500.894118 388.800000L518.400000 388.800000L518.400000 388.800000"/>
</g>
<g id="line2d3">
<path style="fill: none; stroke: #ff0000; stroke-width: 1.000000; stroke-linejoin: round; stroke-linecap: square;  opacity: 1.000000" clip-path="url(#p50431ccdcb28178602d99d9270004dde)" d="M72.000000 388.800000L199.792941 388.501920L205.044706 387.927360
L206.795294 387.581760L212.047059 385.244640L231.303529 380.665440
L233.054118 380.587680L234.804706 379.853280L236.555294 379.507680
L240.056471 377.542080L241.807059 376.233120L245.308235 374.561280
L247.058824 373.524480L250.560000 373.615200L257.562353 374.220000
L261.063529 375.464160L264.564706 373.826880L271.567059 374.042880
L273.317647 373.619520L275.068235 373.563360L283.821176 371.377440
L285.571765 371.429280L289.072941 369.874080L290.823529 369.455040
L292.574118 368.634240L294.324706 366.914880L296.075294 366.595200
L297.825882 365.627520L299.576471 364.275360L301.327059 363.458880
L304.828235 360.279360L306.578824 360.387360L308.329412 358.434720
L311.830588 355.592160L313.581176 356.028480L317.082353 353.652480
L318.832941 353.505600L320.583529 353.833920L322.334118 352.382400
L324.084706 351.691200L327.585882 352.235520L329.336471 351.535680
L331.087059 352.512000L334.588235 351.764640L338.089412 351.492480
L339.840000 352.395360L341.590588 351.159840L345.091765 350.961120
L346.842353 351.449280L348.592941 352.654560L350.343529 352.671840
L352.094118 353.393280L353.844706 354.490560L355.595294 355.000320
L357.345882 356.434560L360.847059 358.089120L362.597647 359.601120
L364.348235 359.704800L366.098824 360.789120L367.849412 360.270720
L369.600000 361.294560L373.101176 360.931680L374.851765 362.059200
L376.602353 362.452320L378.352941 361.856160L380.103529 361.968480
L381.854118 362.668320L383.604706 361.661760L385.355294 361.562400
L387.105882 360.080640L388.856471 359.462880L392.357647 358.970400
L394.108235 359.592480L404.611765 367.666560L409.863529 369.891360
L411.614118 371.075040L413.364706 371.813760L415.115294 373.338720
L418.616471 375.006240L420.367059 375.334560L423.868235 376.997760
L425.618824 377.727840L436.122353 380.030400L439.623529 380.764800
L441.374118 380.881440L443.124706 381.589920L444.875294 381.654720
L450.127059 382.976640L451.877647 382.665600L455.378824 383.132160
L458.880000 383.836320L467.632941 385.408800L471.134118 386.056800
L474.635294 386.575200L476.385882 387.288000L479.887059 387.568800
L483.388235 387.996480L495.642353 388.359360L506.145882 388.609920
L518.400000 388.800000L518.400000 388.800000"/>
</g>
<g id="line2d4">
<path style="fill: none; stroke: #696969; stroke-width: 1.000000; stroke-linejoin: round; stroke-linecap: square;  opacity: 1.000000" clip-path="url(#p50431ccdcb28178602d99d9270004dde)" d="M72.000000 388.800000L192.790588 388.562400L201.543529 388.298880
L210.296471 387.918720L212.047059 387.529920L213.797647 387.905760
L215.548235 387.162720L222.550588 386.583840L229.552941 386.095680
L231.303529 386.156160L234.804706 385.719840L236.555294 385.698240
L238.305882 384.890400L240.056471 385.400160L241.807059 384.635520
L243.557647 385.179840L245.308235 384.117120L247.058824 384.778080
L248.809412 383.404320L250.560000 383.520960L254.061176 383.097600
L255.811765 383.516640L259.312941 383.123520L261.063529 383.296320
L262.814118 381.576960L264.564706 383.097600L266.315294 383.127840
L268.065882 381.529440L269.816471 382.860000L271.567059 381.468960
L276.818824 381.693600L278.569412 382.358880L280.320000 382.250880
L282.070588 380.544480L283.821176 381.533760L287.322353 380.682720
L289.072941 379.533600L290.823529 380.466720L292.574118 379.442880
L294.324706 380.319840L296.075294 378.609120L297.825882 377.861760
L303.077647 376.976160L304.828235 375.891840L306.578824 376.012800
L308.329412 372.898080L310.080000 373.753440L311.830588 374.207040
L313.581176 370.729440L317.082353 374.133600L318.832941 371.835360
L322.334118 371.943360L324.084706 371.511360L325.835294 371.558880
L327.585882 371.964960L329.336471 369.770400L331.087059 372.241440
L332.837647 369.662400L334.588235 371.930400L336.338824 368.552160
L338.089412 369.364320L339.840000 370.612800L341.590588 369.070560
L343.341176 368.275680L345.091765 366.033600L346.842353 368.085600
L348.592941 367.368480L350.343529 365.761440L352.094118 367.359840
L353.844706 367.053120L355.595294 368.176320L357.345882 366.543360
L359.096471 364.279680L362.597647 363.160800L364.348235 361.916640
L366.098824 358.784640L367.849412 359.985600L369.600000 354.836160
L371.350588 358.063200L374.851765 351.574560L376.602353 349.138080
L378.352941 351.367200L380.103529 342.684000L385.355294 343.673280
L387.105882 340.480800L388.856471 342.472320L390.607059 347.375520
L392.357647 345.837600L394.108235 345.492000L397.609412 346.641120
L399.360000 342.852480L401.110588 346.476960L402.861176 348.105600
L404.611765 345.453120L406.362353 345.625920L408.112941 349.012800
L409.863529 346.692960L411.614118 345.124800L413.364706 345.479040
L415.115294 342.334080L416.865882 346.848480L418.616471 347.220000
L420.367059 342.740160L422.117647 342.865440L423.868235 346.295520
L425.618824 344.930400L427.369412 344.481120L429.120000 340.597440
L430.870588 345.759840L432.621176 346.589280L434.371765 347.902560
L436.122353 353.406240L439.623529 356.676480L441.374118 360.512640
L446.625882 368.517600L448.376471 370.323360L450.127059 373.645440
L451.877647 375.347520L457.129412 381.672000L458.880000 383.711040
L460.630588 384.933600L462.381176 385.693920L464.131765 386.825760
L474.635294 388.376640L483.388235 388.717920L506.145882 388.800000
L518.400000 388.800000L518.400000 388.800000"/>
</g>
<g id="line2d5">
<path style="fill: none; stroke: #ff00ff; stroke-width: 1.000000; stroke-linejoin: round; stroke-linecap: square;  opacity: 1.000000" clip-path="url(#p50431ccdcb28178602d99d9270004dde)" d="M72.000000 388.800000L222.550588 388.709280L224.301176 388.100160
L226.051765 386.808480L227.802353 377.641440L229.552941 356.935680
L231.303529 342.493920L233.054118 308.167200L234.804706 289.811520
L238.305882 239.120640L240.056471 241.479360L241.807059 238.740480
L243.557647 251.514720L245.308235 240.088320L247.058824 234.792000
L248.809412 246.486240L252.310588 259.104960L254.061176 273.140640
L255.811765 278.303040L257.562353 301.475520L259.312941 319.913280
L261.063529 328.596480L262.814118 333.633600L264.564706 335.750400
L266.315294 333.270720L269.816471 349.025760L271.567059 350.563680
L273.317647 350.166240L275.068235 357.786720L278.569412 363.769920
L280.320000 364.690080L282.070588 366.145920L285.571765 373.641120
L287.322353 375.049440L289.072941 375.710400L290.823529 374.734080
L294.324706 379.248480L297.825882 379.162080L299.576471 379.784160
L301.327059 379.200960L303.077647 379.969920L308.329412 380.622240
L310.080000 381.529440L313.581176 382.190400L315.331765 381.909600
L317.082353 382.263840L322.334118 381.710880L324.084706 382.147200
L327.585882 381.961440L331.087059 381.983040L332.837647 381.723840
L334.588235 380.859840L336.338824 381.434400L339.840000 381.650400
L341.590588 382.695840L343.341176 382.963680L345.091765 383.598720
L348.592941 383.732640L350.343529 384.536160L357.345882 385.741440
L359.096471 386.648640L360.847059 386.890560L364.348235 387.966240
L369.600000 388.648800L381.854118 388.800000L518.400000 388.800000
L518.400000 388.800000"/>
</g>
<g id="line2d6">
<path style="fill: none; stroke: #ffff00; stroke-width: 1.000000; stroke-linejoin: round; stroke-linecap: square;  opacity: 1.000000" clip-path="url(#p50431ccdcb28178602d99d9270004dde)" d="M72.000000 388.800000L318.832941 388.571040L320.583529 388.441440
L324.084706 387.551520L325.835294 386.640000L327.585882 384.821280
L329.336471 384.397920L331.087059 383.300640L332.837647 379.913760
L334.588235 378.902880L336.338824 379.235520L338.089412 378.911520
L341.590588 373.580640L343.341176 368.366400L345.091765 367.852320
L346.842353 366.357600L350.343529 358.849440L352.094118 354.140640
L353.844706 342.256320L355.595294 336.726720L357.345882 335.832480
L359.096471 331.473600L364.348235 302.840640L366.098824 300.257280
L367.849412 301.898880L369.600000 298.032480L371.350588 292.485600
L373.101176 276.557760L374.851765 273.019680L376.602353 278.454240
L378.352941 261.329760L380.103529 248.806080L381.854118 222.458400
L383.604706 248.037120L385.355294 258.301440L387.105882 278.553600
L388.856471 309.579840L390.607059 313.584480L392.357647 306.279360
L394.108235 313.420320L395.858824 329.996160L397.609412 330.009120
L399.360000 321.956640L402.861176 351.488160L404.611765 350.853120
L406.362353 355.216320L408.112941 362.910240L409.863529 365.515200
L411.614118 373.654080L413.364706 378.462240L416.865882 383.948640
L418.616471 387.944640L420.367059 388.609920L425.618824 388.800000
L518.400000 388.800000L518.400000 388.800000"/>
</g>
<g id="line2d7">
<path style="fill: none; stroke: #8a2be2; stroke-width: 1.000000; stroke-linejoin: round; stroke-linecap: square;  opacity: 1.000000" clip-path="url(#p50431ccdcb28178602d99d9270004dde)" d="M72.000000 388.800000L75.501176 388.765440L77.251765 388.316160
L79.002353 387.119520L80.752941 384.553440L82.503529 379.041120
L84.254118 375.649920L86.004706 370.003680L87.755294 370.379520
L89.505882 369.869760L91.256471 368.828640L93.007059 371.563200
L94.757647 372.980160L96.508235 375.999840L98.258824 375.719040
L100.009412 377.300160L101.760000 377.442720L103.510588 375.140160
L105.261176 375.045120L107.011765 377.174880L108.762353 376.306560
L112.263529 371.610720L114.014118 371.584800L115.764706 369.580320
L117.515294 363.147840L119.265882 361.916640L121.016471 355.259520
L122.767059 358.555680L124.517647 346.710240L126.268235 345.755520
L128.018824 337.569120L129.769412 319.092480L131.520000 320.276160
L133.270588 254.862720L135.021176 271.689120L136.771765 181.751040
L138.522353 139.860000L140.272941 107.477280L142.023529 49.511520
L143.774118 48.180960L145.524706 127.224000L147.275294 155.256480
L149.025882 325.702080L150.776471 378.056160L152.527059 385.011360
L154.277647 387.637920L156.028235 388.735200L166.531765 388.800000
L518.400000 388.800000L518.400000 388.800000"/>
</g>
<g id="line2d8">
<path style="fill: none; stroke: #00ffff; stroke-width: 1.000000; stroke-linejoin: round; stroke-linecap: square;  opacity: 1.000000" clip-path="url(#p50431ccdcb28178602d99d9270004dde)" d="M72.000000 388.800000L206.795294 388.484640L212.047059 387.374400
L215.548235 386.169120L217.298824 384.808320L219.049412 384.229440
L220.800000 381.486240L224.301176 377.840160L226.051765 376.958880
L227.802353 377.460000L229.552941 376.250400L231.303529 376.578720
L234.804706 376.034400L236.555294 375.325920L238.305882 375.079680
L240.056471 376.302240L241.807059 375.840000L243.557647 374.677920
L245.308235 375.274080L248.809412 374.461920L250.560000 375.498720
L252.310588 374.228640L254.061176 373.831200L255.811765 374.604480
L261.063529 372.708000L262.814118 371.658240L264.564706 372.047040
L266.315294 369.342720L268.065882 370.383840L269.816471 366.500160
L271.567059 368.020800L273.317647 367.584480L275.068235 365.372640
L276.818824 365.078880L278.569412 364.188960L282.070588 361.156320
L283.821176 361.359360L285.571765 360.970560L287.322353 358.344000
L289.072941 359.195040L290.823529 355.518720L292.574118 356.987520
L294.324706 359.778240L296.075294 349.414560L297.825882 352.671840
L299.576471 354.192480L301.327059 351.401760L303.077647 349.721280
L304.828235 351.963360L306.578824 350.701920L308.329412 350.943840
L310.080000 351.544320L311.830588 351.233280L313.581176 351.280800
L315.331765 349.470720L317.082353 349.777440L318.832941 349.401600
L324.084706 350.364960L325.835294 349.375680L327.585882 349.077600
L331.087059 351.436320L332.837647 349.272000L334.588235 354.019680
L336.338824 353.190240L338.089412 354.615840L339.840000 355.021920
L341.590588 356.421600L343.341176 356.201280L345.091765 356.801760
L346.842353 358.836480L348.592941 357.315840L350.343529 359.389440
L352.094118 358.447680L355.595294 359.955360L357.345882 359.527680
L364.348235 362.400480L366.098824 362.093760L367.849412 364.772160
L369.600000 365.320800L371.350588 365.001120L374.851765 365.821920
L376.602353 365.333760L378.352941 366.647040L380.103529 367.048800
L381.854118 366.439680L383.604706 367.943040L385.355294 366.655680
L387.105882 366.996960L388.856471 367.705440L392.357647 367.593120
L394.108235 368.686080L395.858824 368.124480L397.609412 370.794240
L399.360000 370.020960L401.110588 370.353600L404.611765 370.517760
L406.362353 374.099040L408.112941 372.677760L409.863529 371.947680
L411.614118 372.228480L413.364706 373.377600L415.115294 375.334560
L416.865882 374.950080L423.868235 378.617760L425.618824 380.108160
L427.369412 379.503360L430.870588 382.160160L434.371765 382.665600
L437.872941 384.315840L441.374118 385.361280L444.875294 385.248960
L446.625882 386.316000L448.376471 386.082720L453.628235 387.167040
L455.378824 386.532000L457.129412 387.171360L458.880000 386.881920
L460.630588 387.594720L465.882353 387.888480L467.632941 388.164960
L469.383529 388.026720L472.884706 388.359360L479.887059 388.540800
L518.400000 388.800000L518.400000 388.800000"/>
</g>
<g id="line2d9">
<path style="fill: none; stroke: #ffa500; stroke-width: 1.000000; stroke-linejoin: round; stroke-linecap: square;  opacity: 1.000000" clip-path="url(#p50431ccdcb28178602d99d9270004dde)" d="M72.000000 388.800000L222.550588 388.484640L227.802353 388.260000
L233.054118 388.268640L248.809412 387.884160L262.814118 386.506080
L268.065882 385.711200L269.816471 385.741440L289.072941 382.034880
L294.324706 379.844640L296.075294 379.499040L299.576471 378.181440
L306.578824 376.349760L310.080000 374.526720L311.830588 374.073120
L318.832941 370.807200L320.583529 370.379520L322.334118 370.660320
L324.084706 370.323360L325.835294 370.586880L327.585882 369.714240
L334.588235 368.565120L336.338824 368.871840L338.089412 368.007840
L339.840000 368.115840L341.590588 367.403040L348.592941 366.081120
L350.343529 365.005440L353.844706 364.897440L357.345882 364.746240
L359.096471 364.344480L360.847059 363.445920L362.597647 363.718080
L364.348235 363.445920L369.600000 361.247040L371.350588 360.529920
L380.103529 355.207680L381.854118 352.944000L383.604706 350.071200
L385.355294 348.520320L387.105882 347.790240L388.856471 346.394880
L390.607059 346.373280L392.357647 346.001760L395.858824 347.703840
L397.609412 346.805280L401.110588 348.252480L402.861176 349.142400
L404.611765 349.405920L406.362353 349.263360L408.112941 348.343200
L409.863529 348.334560L411.614118 347.988960L415.115294 348.153120
L416.865882 346.887360L418.616471 346.822560L420.367059 346.239360
L422.117647 345.085920L423.868235 345.703680L425.618824 344.520000
L427.369412 346.381920L430.870588 345.025440L432.621176 345.034080
L434.371765 344.148480L437.872941 346.243680L439.623529 346.520160
L441.374118 347.820480L443.124706 349.673760L446.625882 355.207680
L453.628235 365.904000L457.129412 369.792000L458.880000 373.105440
L460.630588 375.075360L462.381176 377.732160L464.131765 379.658880
L465.882353 380.959200L467.632941 382.760640L476.385882 386.717760
L490.390588 388.251360L502.644706 388.501920L518.400000 388.800000
L518.400000 388.800000"/>
</g>
<g id="matplotlib.axis1">
<g id="xtick1">
<g id="line2d10">
<defs><path id="m30e32995789d870ad79a2e54c91cf9c6" d="M0.000000 0.000000L0.000000 -4.000000"/></defs>
<g ><use style="fill: none; stroke: #000000; stroke-width: 0.500000; stroke-linejoin: round; stroke-linecap: butt;  opacity: 1.000000" xlink:href="#m30e32995789d870ad79a2e54c91cf9c6" x="72.000000" y="388.800000"/>
</g></g>
<g id="line2d11">
<defs><path id="m9281cae24120827b11d5ea8a7ad3e96b" d="M0.000000 0.000000L0.000000 4.000000"/></defs>
<g ><use style="fill: none; stroke: #000000; stroke-width: 0.500000; stroke-linejoin: round; stroke-linecap: butt;  opacity: 1.000000" xlink:href="#m9281cae24120827b11d5ea8a7ad3e96b" x="72.000000" y="43.200000"/>
</g></g>
<g id="text1">
<defs>
<path id="c_7a2040fe3b94fcd41d0a72c84e93b115" d="M31.781250 -66.406250q-7.609375 0.000000 -11.453125 7.500000q-3.828125 7.484375 -3.828125 22.531250q0.000000 14.984375 3.828125 22.484375q3.843750 7.500000 11.453125 7.500000q7.671875 0.000000 11.500000 -7.500000q3.843750 -7.500000 3.843750 -22.484375q0.000000 -15.046875 -3.843750 -22.531250q-3.828125 -7.500000 -11.500000 -7.500000M31.781250 -74.218750q12.265625 0.000000 18.734375 9.703125q6.468750 9.687500 6.468750 28.140625q0.000000 18.406250 -6.468750 28.109375q-6.468750 9.687500 -18.734375 9.687500q-12.250000 0.000000 -18.718750 -9.687500q-6.468750 -9.703125 -6.468750 -28.109375q0.000000 -18.453125 6.468750 -28.140625q6.468750 -9.703125 18.718750 -9.703125"/>
</defs>
<g style="fill: #000000; opacity: 1.000000" transform="translate(68.976562,401.706250)scale(0.120000)">
<use xlink:href="#c_7a2040fe3b94fcd41d0a72c84e93b115"/>
</g>
</g>
</g>
<g id="xtick2">
<g id="line2d12">
<g ><use style="fill: none; stroke: #000000; stroke-width: 0.500000; stroke-linejoin: round; stroke-linecap: butt;  opacity: 1.000000" xlink:href="#m30e32995789d870ad79a2e54c91cf9c6" x="159.529412" y="388.800000"/>
</g></g>
<g id="line2d13">
<g ><use style="fill: none; stroke: #000000; stroke-width: 0.500000; stroke-linejoin: round; stroke-linecap: butt;  opacity: 1.000000" xlink:href="#m9281cae24120827b11d5ea8a7ad3e96b" x="159.529412" y="43.200000"/>
</g></g>
<g id="text2">
<defs>
<path id="c_1260a2df50f305f3db244e29828f968e" d="M10.796875 -72.906250l38.718750 0.000000l0.000000 8.312500l-29.687500 0.000000l0.000000 17.859375q2.140625 -0.734375 4.281250 -1.093750q2.156250 -0.359375 4.312500 -0.359375q12.203125 0.000000 19.328125 6.687500q7.140625 6.687500 7.140625 18.109375q0.000000 11.765625 -7.328125 18.296875q-7.328125 6.515625 -20.656250 6.515625q-4.593750 0.000000 -9.359375 -0.781250q-4.750000 -0.781250 -9.828125 -2.343750l0.000000 -9.921875q4.390625 2.390625 9.078125 3.562500q4.687500 1.171875 9.906250 1.171875q8.453125 0.000000 13.375000 -4.437500q4.937500 -4.437500 4.937500 -12.062500q0.000000 -7.609375 -4.937500 -12.046875q-4.921875 -4.453125 -13.375000 -4.453125q-3.953125 0.000000 -7.890625 0.875000q-3.921875 0.875000 -8.015625 2.734375z"/>
</defs>
<g style="fill: #000000; opacity: 1.000000" transform="translate(152.748162,401.706250)scale(0.120000)">
<use xlink:href="#c_1260a2df50f305f3db244e29828f968e"/>
<use xlink:href="#c_7a2040fe3b94fcd41d0a72c84e93b115" x="63.623047"/>
</g>
</g>
</g>
<g id="xtick3">
<g id="line2d14">
<g ><use style="fill: none; stroke: #000000; stroke-width: 0.500000; stroke-linejoin: round; stroke-linecap: butt;  opacity: 1.000000" xlink:href="#m30e32995789d870ad79a2e54c91cf9c6" x="247.058824" y="388.800000"/>
</g></g>
<g id="line2d15">
<g ><use style="fill: none; stroke: #000000; stroke-width: 0.500000; stroke-linejoin: round; stroke-linecap: butt;  opacity: 1.000000" xlink:href="#m9281cae24120827b11d5ea8a7ad3e96b" x="247.058824" y="43.200000"/>
</g></g>
<g id="text3">
<defs>
<path id="c_42baa63129a918535c52adb20d687ea7" d="M12.406250 -8.296875l16.109375 0.000000l0.000000 -55.625000l-17.531250 3.515625l0.000000 -8.984375l17.437500 -3.515625l9.859375 0.000000l0.000000 64.609375l16.109375 0.000000l0.000000 8.296875l-41.984375 0.000000z"/>
</defs>
<g style="fill: #000000; opacity: 1.000000" transform="translate(236.652574,401.706250)scale(0.120000)">
<use xlink:href="#c_42baa63129a918535c52adb20d687ea7"/>
<use xlink:href="#c_7a2040fe3b94fcd41d0a72c84e93b115" x="63.623047"/>
<use xlink:href="#c_7a2040fe3b94fcd41d0a72c84e93b115" x="127.246094"/>
</g>
</g>
</g>
<g id="xtick4">
<g id="line2d16">
<g ><use style="fill: none; stroke: #000000; stroke-width: 0.500000; stroke-linejoin: round; stroke-linecap: butt;  opacity: 1.000000" xlink:href="#m30e32995789d870ad79a2e54c91cf9c6" x="334.588235" y="388.800000"/>
</g></g>
<g id="line2d17">
<g ><use style="fill: none; stroke: #000000; stroke-width: 0.500000; stroke-linejoin: round; stroke-linecap: butt;  opacity: 1.000000" xlink:href="#m9281cae24120827b11d5ea8a7ad3e96b" x="334.588235" y="43.200000"/>
</g></g>
<g id="text4">
<g style="fill: #000000; opacity: 1.000000" transform="translate(324.181985,401.706250)scale(0.120000)">
<use xlink:href="#c_42baa63129a918535c52adb20d687ea7"/>
<use xlink:href="#c_1260a2df50f305f3db244e29828f968e" x="63.623047"/>
<use xlink:href="#c_7a2040fe3b94fcd41d0a72c84e93b115" x="127.246094"/>
</g>
</g>
</g>
<g id="xtick5">
<g id="line2d18">
<g ><use style="fill: none; stroke: #000000; stroke-width: 0.500000; stroke-linejoin: round; stroke-linecap: butt;  opacity: 1.000000" xlink:href="#m30e32995789d870ad79a2e54c91cf9c6" x="422.117647" y="388.800000"/>
</g></g>
<g id="line2d19">
<g ><use style="fill: none; stroke: #000000; stroke-width: 0.500000; stroke-linejoin: round; stroke-linecap: butt;  opacity: 1.000000" xlink:href="#m9281cae24120827b11d5ea8a7ad3e96b" x="422.117647" y="43.200000"/>
</g></g>
<g id="text5">
<defs>
<path id="c_ed3f3ed3ebfbd18bcb9c012009a68ad1" d="M19.187500 -8.296875l34.421875 0.000000l0.000000 8.296875l-46.281250 0.000000l0.000000 -8.296875q5.609375 -5.812500 15.296875 -15.593750q9.703125 -9.796875 12.187500 -12.640625q4.734375 -5.312500 6.609375 -9.000000q1.890625 -3.687500 1.890625 -7.250000q0.000000 -5.812500 -4.078125 -9.468750q-4.078125 -3.671875 -10.625000 -3.671875q-4.640625 0.000000 -9.796875 1.609375q-5.140625 1.609375 -11.000000 4.890625l0.000000 -9.968750q5.953125 -2.390625 11.125000 -3.609375q5.187500 -1.218750 9.484375 -1.218750q11.328125 0.000000 18.062500 5.671875q6.734375 5.656250 6.734375 15.125000q0.000000 4.500000 -1.687500 8.531250q-1.671875 4.015625 -6.125000 9.484375q-1.218750 1.421875 -7.765625 8.187500q-6.531250 6.765625 -18.453125 18.921875"/>
</defs>
<g style="fill: #000000; opacity: 1.000000" transform="translate(411.492647,401.706250)scale(0.120000)">
<use xlink:href="#c_ed3f3ed3ebfbd18bcb9c012009a68ad1"/>
<use xlink:href="#c_7a2040fe3b94fcd41d0a72c84e93b115" x="63.623047"/>
<use xlink:href="#c_7a2040fe3b94fcd41d0a72c84e93b115" x="127.246094"/>
</g>
</g>
</g>
<g id="xtick6">
<g id="line2d20">
<g ><use style="fill: none; stroke: #000000; stroke-width: 0.500000; stroke-linejoin: round; stroke-linecap: butt;  opacity: 1.000000" xlink:href="#m30e32995789d870ad79a2e54c91cf9c6" x="509.647059" y="388.800000"/>
</g></g>
<g id="line2d21">
<g ><use style="fill: none; stroke: #000000; stroke-width: 0.500000; stroke-linejoin: round; stroke-linecap: butt;  opacity: 1.000000" xlink:href="#m9281cae24120827b11d5ea8a7ad3e96b" x="509.647059" y="43.200000"/>
</g></g>
<g id="text6">
<g style="fill: #000000; opacity: 1.000000" transform="translate(499.022059,401.706250)scale(0.120000)">
<use xlink:href="#c_ed3f3ed3ebfbd18bcb9c012009a68ad1"/>
<use xlink:href="#c_1260a2df50f305f3db244e29828f968e" x="63.623047"/>
<use xlink:href="#c_7a2040fe3b94fcd41d0a72c84e93b115" x="127.246094"/>
</g>
</g>
</g>
</g>
<g id="matplotlib.axis2">
<g id="ytick1">
<g id="line2d22">
<defs><path id="m3400efa6b1638b3fea9e19e898273957" d="M0.000000 0.000000L4.000000 0.000000"/></defs>
<g ><use style="fill: none; stroke: #000000; stroke-width: 0.500000; stroke-linejoin: round; stroke-linecap: butt;  opacity: 1.000000" xlink:href="#m3400efa6b1638b3fea9e19e898273957" x="72.000000" y="388.800000"/>
</g></g>
<g id="line2d23">
<defs><path id="m20b58b2501143cb5e0a5e8f1ef6f1643" d="M0.000000 0.000000L-4.000000 0.000000"/></defs>
<g ><use style="fill: none; stroke: #000000; stroke-width: 0.500000; stroke-linejoin: round; stroke-linecap: butt;  opacity: 1.000000" xlink:href="#m20b58b2501143cb5e0a5e8f1ef6f1643" x="518.400000" y="388.800000"/>
</g></g>
<g id="text7">
<g style="fill: #000000; opacity: 1.000000" transform="translate(61.953125,393.167188)scale(0.120000)">
<use xlink:href="#c_7a2040fe3b94fcd41d0a72c84e93b115"/>
</g>
</g>
</g>
<g id="ytick2">
<g id="line2d24">
<g ><use style="fill: none; stroke: #000000; stroke-width: 0.500000; stroke-linejoin: round; stroke-linecap: butt;  opacity: 1.000000" xlink:href="#m3400efa6b1638b3fea9e19e898273957" x="72.000000" y="345.600000"/>
</g></g>
<g id="line2d25">
<g ><use style="fill: none; stroke: #000000; stroke-width: 0.500000; stroke-linejoin: round; stroke-linecap: butt;  opacity: 1.000000" xlink:href="#m20b58b2501143cb5e0a5e8f1ef6f1643" x="518.400000" y="345.600000"/>
</g></g>
<g id="text8">
<g style="fill: #000000; opacity: 1.000000" transform="translate(31.906250,349.967188)scale(0.120000)">
<use xlink:href="#c_42baa63129a918535c52adb20d687ea7"/>
<use xlink:href="#c_7a2040fe3b94fcd41d0a72c84e93b115" x="63.623047"/>
<use xlink:href="#c_7a2040fe3b94fcd41d0a72c84e93b115" x="127.246094"/>
<use xlink:href="#c_7a2040fe3b94fcd41d0a72c84e93b115" x="190.869141"/>
<use xlink:href="#c_7a2040fe3b94fcd41d0a72c84e93b115" x="254.492188"/>
</g>
</g>
</g>
<g id="ytick3">
<g id="line2d26">
<g ><use style="fill: none; stroke: #000000; stroke-width: 0.500000; stroke-linejoin: round; stroke-linecap: butt;  opacity: 1.000000" xlink:href="#m3400efa6b1638b3fea9e19e898273957" x="72.000000" y="302.400000"/>
</g></g>
<g id="line2d27">
<g ><use style="fill: none; stroke: #000000; stroke-width: 0.500000; stroke-linejoin: round; stroke-linecap: butt;  opacity: 1.000000" xlink:href="#m20b58b2501143cb5e0a5e8f1ef6f1643" x="518.400000" y="302.400000"/>
</g></g>
<g id="text9">
<g style="fill: #000000; opacity: 1.000000" transform="translate(31.468750,306.767187)scale(0.120000)">
<use xlink:href="#c_ed3f3ed3ebfbd18bcb9c012009a68ad1"/>
<use xlink:href="#c_7a2040fe3b94fcd41d0a72c84e93b115" x="63.623047"/>
<use xlink:href="#c_7a2040fe3b94fcd41d0a72c84e93b115" x="127.246094"/>
<use xlink:href="#c_7a2040fe3b94fcd41d0a72c84e93b115" x="190.869141"/>
<use xlink:href="#c_7a2040fe3b94fcd41d0a72c84e93b115" x="254.492188"/>
</g>
</g>
</g>
<g id="ytick4">
<g id="line2d28">
<g ><use style="fill: none; stroke: #000000; stroke-width: 0.500000; stroke-linejoin: round; stroke-linecap: butt;  opacity: 1.000000" xlink:href="#m3400efa6b1638b3fea9e19e898273957" x="72.000000" y="259.200000"/>
</g></g>
<g id="line2d29">
<g ><use style="fill: none; stroke: #000000; stroke-width: 0.500000; stroke-linejoin: round; stroke-linecap: butt;  opacity: 1.000000" xlink:href="#m20b58b2501143cb5e0a5e8f1ef6f1643" x="518.400000" y="259.200000"/>
</g></g>
<g id="text10">
<defs>
<path id="c_3dcfa38a02242cb63ec6726c6e70be7a" d="M40.578125 -39.312500q7.078125 1.515625 11.046875 6.312500q3.984375 4.781250 3.984375 11.812500q0.000000 10.781250 -7.421875 16.703125q-7.421875 5.906250 -21.093750 5.906250q-4.578125 0.000000 -9.437500 -0.906250q-4.859375 -0.906250 -10.031250 -2.718750l0.000000 -9.515625q4.093750 2.390625 8.968750 3.609375q4.890625 1.218750 10.218750 1.218750q9.265625 0.000000 14.125000 -3.656250q4.859375 -3.656250 4.859375 -10.640625q0.000000 -6.453125 -4.515625 -10.078125q-4.515625 -3.640625 -12.562500 -3.640625l-8.500000 0.000000l0.000000 -8.109375l8.890625 0.000000q7.265625 0.000000 11.125000 -2.906250q3.859375 -2.906250 3.859375 -8.375000q0.000000 -5.609375 -3.984375 -8.609375q-3.968750 -3.015625 -11.390625 -3.015625q-4.062500 0.000000 -8.703125 0.890625q-4.640625 0.875000 -10.203125 2.718750l0.000000 -8.781250q5.625000 -1.562500 10.531250 -2.343750q4.906250 -0.781250 9.250000 -0.781250q11.234375 0.000000 17.765625 5.109375q6.546875 5.093750 6.546875 13.781250q0.000000 6.062500 -3.468750 10.234375q-3.468750 4.171875 -9.859375 5.781250"/>
</defs>
<g style="fill: #000000; opacity: 1.000000" transform="translate(31.515625,263.567187)scale(0.120000)">
<use xlink:href="#c_3dcfa38a02242cb63ec6726c6e70be7a"/>
<use xlink:href="#c_7a2040fe3b94fcd41d0a72c84e93b115" x="63.623047"/>
<use xlink:href="#c_7a2040fe3b94fcd41d0a72c84e93b115" x="127.246094"/>
<use xlink:href="#c_7a2040fe3b94fcd41d0a72c84e93b115" x="190.869141"/>
<use xlink:href="#c_7a2040fe3b94fcd41d0a72c84e93b115" x="254.492188"/>
</g>
</g>
</g>
<g id="ytick5">
<g id="line2d30">
<g ><use style="fill: none; stroke: #000000; stroke-width: 0.500000; stroke-linejoin: round; stroke-linecap: butt;  opacity: 1.000000" xlink:href="#m3400efa6b1638b3fea9e19e898273957" x="72.000000" y="216.000000"/>
</g></g>
<g id="line2d31">
<g ><use style="fill: none; stroke: #000000; stroke-width: 0.500000; stroke-linejoin: round; stroke-linecap: butt;  opacity: 1.000000" xlink:href="#m20b58b2501143cb5e0a5e8f1ef6f1643" x="518.400000" y="216.000000"/>
</g></g>
<g id="text11">
<defs>
<path id="c_a0416418d96557a09b8c1332d34883ba" d="M37.796875 -64.312500l-24.906250 38.921875l24.906250 0.000000zM35.203125 -72.906250l12.406250 0.000000l0.000000 47.515625l10.406250 0.000000l0.000000 8.203125l-10.406250 0.000000l0.000000 17.187500l-9.812500 0.000000l0.000000 -17.187500l-32.906250 0.000000l0.000000 -9.515625z"/>
</defs>
<g style="fill: #000000; opacity: 1.000000" transform="translate(31.187500,220.367187)scale(0.120000)">
<use xlink:href="#c_a0416418d96557a09b8c1332d34883ba"/>
<use xlink:href="#c_7a2040fe3b94fcd41d0a72c84e93b115" x="63.623047"/>
<use xlink:href="#c_7a2040fe3b94fcd41d0a72c84e93b115" x="127.246094"/>
<use xlink:href="#c_7a2040fe3b94fcd41d0a72c84e93b115" x="190.869141"/>
<use xlink:href="#c_7a2040fe3b94fcd41d0a72c84e93b115" x="254.492188"/>
</g>
</g>
</g>
<g id="ytick6">
<g id="line2d32">
<g ><use style="fill: none; stroke: #000000; stroke-width: 0.500000; stroke-linejoin: round; stroke-linecap: butt;  opacity: 1.000000" xlink:href="#m3400efa6b1638b3fea9e19e898273957" x="72.000000" y="172.800000"/>
</g></g>
<g id="line2d33">
<g ><use style="fill: none; stroke: #000000; stroke-width: 0.500000; stroke-linejoin: round; stroke-linecap: butt;  opacity: 1.000000" xlink:href="#m20b58b2501143cb5e0a5e8f1ef6f1643" x="518.400000" y="172.800000"/>
</g></g>
<g id="text12">
<g style="fill: #000000; opacity: 1.000000" transform="translate(31.515625,177.167187)scale(0.120000)">
<use xlink:href="#c_1260a2df50f305f3db244e29828f968e"/>
<use xlink:href="#c_7a2040fe3b94fcd41d0a72c84e93b115" x="63.623047"/>
<use xlink:href="#c_7a2040fe3b94fcd41d0a72c84e93b115" x="127.246094"/>
<use xlink:href="#c_7a2040fe3b94fcd41d0a72c84e93b115" x="190.869141"/>
<use xlink:href="#c_7a2040fe3b94fcd41d0a72c84e93b115" x="254.492188"/>
</g>
</g>
</g>
<g id="ytick7">
<g id="line2d34">
<g ><use style="fill: none; stroke: #000000; stroke-width: 0.500000; stroke-linejoin: round; stroke-linecap: butt;  opacity: 1.000000" xlink:href="#m3400efa6b1638b3fea9e19e898273957" x="72.000000" y="129.600000"/>
</g></g>
<g id="line2d35">
<g ><use style="fill: none; stroke: #000000; stroke-width: 0.500000; stroke-linejoin: round; stroke-linecap: butt;  opacity: 1.000000" xlink:href="#m20b58b2501143cb5e0a5e8f1ef6f1643" x="518.400000" y="129.600000"/>
</g></g>
<g id="text13">
<defs>
<path id="c_cc8d6d580d1b10c8632f7a42cd53db8a" d="M33.015625 -40.375000q-6.640625 0.000000 -10.531250 4.546875q-3.875000 4.531250 -3.875000 12.437500q0.000000 7.859375 3.875000 12.437500q3.890625 4.562500 10.531250 4.562500q6.640625 0.000000 10.515625 -4.562500q3.875000 -4.578125 3.875000 -12.437500q0.000000 -7.906250 -3.875000 -12.437500q-3.875000 -4.546875 -10.515625 -4.546875M52.593750 -71.296875l0.000000 8.984375q-3.718750 -1.750000 -7.500000 -2.671875q-3.781250 -0.937500 -7.500000 -0.937500q-9.765625 0.000000 -14.921875 6.593750q-5.140625 6.593750 -5.875000 19.921875q2.875000 -4.250000 7.218750 -6.515625q4.359375 -2.265625 9.578125 -2.265625q10.984375 0.000000 17.359375 6.671875q6.375000 6.656250 6.375000 18.125000q0.000000 11.234375 -6.640625 18.031250q-6.640625 6.781250 -17.671875 6.781250q-12.656250 0.000000 -19.343750 -9.687500q-6.687500 -9.703125 -6.687500 -28.109375q0.000000 -17.281250 8.203125 -27.562500q8.203125 -10.281250 22.015625 -10.281250q3.718750 0.000000 7.500000 0.734375q3.781250 0.734375 7.890625 2.187500"/>
</defs>
<g style="fill: #000000; opacity: 1.000000" transform="translate(31.437500,133.967187)scale(0.120000)">
<use xlink:href="#c_cc8d6d580d1b10c8632f7a42cd53db8a"/>
<use xlink:href="#c_7a2040fe3b94fcd41d0a72c84e93b115" x="63.623047"/>
<use xlink:href="#c_7a2040fe3b94fcd41d0a72c84e93b115" x="127.246094"/>
<use xlink:href="#c_7a2040fe3b94fcd41d0a72c84e93b115" x="190.869141"/>
<use xlink:href="#c_7a2040fe3b94fcd41d0a72c84e93b115" x="254.492188"/>
</g>
</g>
</g>
<g id="ytick8">
<g id="line2d36">
<g ><use style="fill: none; stroke: #000000; stroke-width: 0.500000; stroke-linejoin: round; stroke-linecap: butt;  opacity: 1.000000" xlink:href="#m3400efa6b1638b3fea9e19e898273957" x="72.000000" y="86.400000"/>
</g></g>
<g id="line2d37">
<g ><use style="fill: none; stroke: #000000; stroke-width: 0.500000; stroke-linejoin: round; stroke-linecap: butt;  opacity: 1.000000" xlink:href="#m20b58b2501143cb5e0a5e8f1ef6f1643" x="518.400000" y="86.400000"/>
</g></g>
<g id="text14">
<defs>
<path id="c_956f18cfdaf972f35a6c2b4aaac2532b" d="M8.203125 -72.906250l46.875000 0.000000l0.000000 4.203125l-26.468750 68.703125l-10.296875 0.000000l24.906250 -64.593750l-35.015625 0.000000z"/>
</defs>
<g style="fill: #000000; opacity: 1.000000" transform="translate(31.578125,90.767187)scale(0.120000)">
<use xlink:href="#c_956f18cfdaf972f35a6c2b4aaac2532b"/>
<use xlink:href="#c_7a2040fe3b94fcd41d0a72c84e93b115" x="63.623047"/>
<use xlink:href="#c_7a2040fe3b94fcd41d0a72c84e93b115" x="127.246094"/>
<use xlink:href="#c_7a2040fe3b94fcd41d0a72c84e93b115" x="190.869141"/>
<use xlink:href="#c_7a2040fe3b94fcd41d0a72c84e93b115" x="254.492188"/>
</g>
</g>
</g>
<g id="ytick9">
<g id="line2d38">
<g ><use style="fill: none; stroke: #000000; stroke-width: 0.500000; stroke-linejoin: round; stroke-linecap: butt;  opacity: 1.000000" xlink:href="#m3400efa6b1638b3fea9e19e898273957" x="72.000000" y="43.200000"/>
</g></g>
<g id="line2d39">
<g ><use style="fill: none; stroke: #000000; stroke-width: 0.500000; stroke-linejoin: round; stroke-linecap: butt;  opacity: 1.000000" xlink:href="#m20b58b2501143cb5e0a5e8f1ef6f1643" x="518.400000" y="43.200000"/>
</g></g>
<g id="text15">
<defs>
<path id="c_bef35738d52871942e50b9de9b122bab" d="M31.781250 -34.625000q-7.031250 0.000000 -11.062500 3.765625q-4.015625 3.765625 -4.015625 10.343750q0.000000 6.593750 4.015625 10.359375q4.031250 3.765625 11.062500 3.765625q7.031250 0.000000 11.078125 -3.781250q4.062500 -3.796875 4.062500 -10.343750q0.000000 -6.578125 -4.031250 -10.343750q-4.015625 -3.765625 -11.109375 -3.765625M21.921875 -38.812500q-6.343750 -1.562500 -9.890625 -5.906250q-3.531250 -4.359375 -3.531250 -10.609375q0.000000 -8.734375 6.218750 -13.812500q6.234375 -5.078125 17.062500 -5.078125q10.890625 0.000000 17.093750 5.078125q6.203125 5.078125 6.203125 13.812500q0.000000 6.250000 -3.546875 10.609375q-3.531250 4.343750 -9.828125 5.906250q7.125000 1.656250 11.093750 6.500000q3.984375 4.828125 3.984375 11.796875q0.000000 10.609375 -6.468750 16.281250q-6.468750 5.656250 -18.531250 5.656250q-12.046875 0.000000 -18.531250 -5.656250q-6.468750 -5.671875 -6.468750 -16.281250q0.000000 -6.968750 4.000000 -11.796875q4.015625 -4.843750 11.140625 -6.500000M18.312500 -54.390625q0.000000 5.656250 3.531250 8.828125q3.546875 3.171875 9.937500 3.171875q6.359375 0.000000 9.937500 -3.171875q3.593750 -3.171875 3.593750 -8.828125q0.000000 -5.671875 -3.593750 -8.843750q-3.578125 -3.171875 -9.937500 -3.171875q-6.390625 0.000000 -9.937500 3.171875q-3.531250 3.171875 -3.531250 8.843750"/>
</defs>
<g style="fill: #000000; opacity: 1.000000" transform="translate(31.406250,47.567187)scale(0.120000)">
<use xlink:href="#c_bef35738d52871942e50b9de9b122bab"/>
<use xlink:href="#c_7a2040fe3b94fcd41d0a72c84e93b115" x="63.623047"/>
<use xlink:href="#c_7a2040fe3b94fcd41d0a72c84e93b115" x="127.246094"/>
<use xlink:href="#c_7a2040fe3b94fcd41d0a72c84e93b115" x="190.869141"/>
<use xlink:href="#c_7a2040fe3b94fcd41d0a72c84e93b115" x="254.492188"/>
</g>
</g>
</g>
</g>
<g id="patch3">
<path style="fill: none; stroke: #000000; stroke-width: 1.000000; stroke-linejoin: round; stroke-linecap: square;  opacity: 1.000000"  d="M72.000000 43.200000L518.400000 43.200000"/>
</g>
<g id="patch4">
<path style="fill: none; stroke: #000000; stroke-width: 1.000000; stroke-linejoin: round; stroke-linecap: square;  opacity: 1.000000"  d="M518.400000 388.800000L518.400000 43.200000"/>
</g>
<g id="patch5">
<path style="fill: none; stroke: #000000; stroke-width: 1.000000; stroke-linejoin: round; stroke-linecap: square;  opacity: 1.000000"  d="M72.000000 388.800000L518.400000 388.800000"/>
</g>
<g id="patch6">
<path style="fill: none; stroke: #000000; stroke-width: 1.000000; stroke-linejoin: round; stroke-linecap: square;  opacity: 1.000000"  d="M72.000000 388.800000L72.000000 43.200000"/>
</g>
<g id="legend1">
<g id="patch7">
<path style="fill: #ffffff; stroke: #000000; stroke-width: 1.000000; stroke-linejoin: round; stroke-linecap: square;  opacity: 1.000000"  d="M350.485000 238.738750L511.200000 238.738750L511.200000 50.400000
L350.485000 50.400000L350.485000 238.738750z"/>
</g>
<g id="line2d40">
<path style="fill: none; stroke: #0000ff; stroke-width: 1.000000; stroke-linejoin: round; stroke-linecap: square;  opacity: 1.000000"  d="M360.565000 61.760625L380.725000 61.760625"/>
</g>
<g id="line2d41">
</g>
<g id="text16">
<defs>
<path id="c_5cc9741494d2ad8f9764e03ae145569f" d="M48.687500 -27.296875q0.000000 -9.906250 -4.078125 -15.546875q-4.078125 -5.640625 -11.203125 -5.640625q-7.140625 0.000000 -11.218750 5.640625q-4.078125 5.640625 -4.078125 15.546875q0.000000 9.906250 4.078125 15.546875q4.078125 5.640625 11.218750 5.640625q7.125000 0.000000 11.203125 -5.640625q4.078125 -5.640625 4.078125 -15.546875M18.109375 -46.390625q2.843750 -4.875000 7.156250 -7.234375q4.328125 -2.375000 10.328125 -2.375000q9.968750 0.000000 16.187500 7.906250q6.234375 7.906250 6.234375 20.796875q0.000000 12.890625 -6.234375 20.812500q-6.218750 7.906250 -16.187500 7.906250q-6.000000 0.000000 -10.328125 -2.375000q-4.312500 -2.375000 -7.156250 -7.250000l0.000000 8.203125l-9.031250 0.000000l0.000000 -75.984375l9.031250 0.000000z"/>
<path id="c_5099edb83619131346ae654950954dea" d="M9.421875 -75.984375l8.984375 0.000000l0.000000 75.984375l-8.984375 0.000000z"/>
<path id="c_3b515ad41f960e225ec85275856806ca" d="M8.500000 -21.578125l0.000000 -33.109375l8.984375 0.000000l0.000000 32.765625q0.000000 7.765625 3.015625 11.656250q3.031250 3.875000 9.093750 3.875000q7.265625 0.000000 11.484375 -4.640625q4.234375 -4.640625 4.234375 -12.656250l0.000000 -31.000000l8.984375 0.000000l0.000000 54.687500l-8.984375 0.000000l0.000000 -8.406250q-3.265625 4.984375 -7.593750 7.406250q-4.312500 2.421875 -10.031250 2.421875q-9.421875 0.000000 -14.312500 -5.859375q-4.875000 -5.859375 -4.875000 -17.140625M31.109375 -56.000000z"/>
<path id="c_0bce5afba2dc6b9024b26277c38ad8e8" d="M56.203125 -29.593750l0.000000 4.390625l-41.312500 0.000000q0.593750 9.281250 5.593750 14.140625q5.000000 4.859375 13.937500 4.859375q5.171875 0.000000 10.031250 -1.265625q4.859375 -1.265625 9.656250 -3.812500l0.000000 8.500000q-4.843750 2.046875 -9.921875 3.125000q-5.078125 1.078125 -10.296875 1.078125q-13.093750 0.000000 -20.734375 -7.609375q-7.640625 -7.625000 -7.640625 -20.625000q0.000000 -13.421875 7.250000 -21.296875q7.250000 -7.890625 19.562500 -7.890625q11.031250 0.000000 17.453125 7.109375q6.421875 7.093750 6.421875 19.296875M47.218750 -32.234375q-0.093750 -7.359375 -4.125000 -11.750000q-4.031250 -4.406250 -10.671875 -4.406250q-7.515625 0.000000 -12.031250 4.250000q-4.515625 4.250000 -5.203125 11.968750z"/>
</defs>
<g style="fill: #000000; opacity: 1.000000" transform="translate(396.565000,66.800625)scale(0.144000)">
<use xlink:href="#c_5cc9741494d2ad8f9764e03ae145569f"/>
<use xlink:href="#c_5099edb83619131346ae654950954dea" x="63.476562"/>
<use xlink:href="#c_3b515ad41f960e225ec85275856806ca" x="91.259766"/>
<use xlink:href="#c_0bce5afba2dc6b9024b26277c38ad8e8" x="154.638672"/>
</g>
</g>
<g id="line2d42">
<path style="fill: none; stroke: #228b22; stroke-width: 1.000000; stroke-linejoin: round; stroke-linecap: square;  opacity: 1.000000"  d="M360.565000 82.507500L380.725000 82.507500"/>
</g>
<g id="line2d43">
</g>
<g id="text17">
<defs>
<path id="c_e3864de5dabf2f8dd9eee74726882ec1" d="M45.406250 -27.984375q0.000000 -9.765625 -4.031250 -15.125000q-4.015625 -5.375000 -11.296875 -5.375000q-7.218750 0.000000 -11.250000 5.375000q-4.031250 5.359375 -4.031250 15.125000q0.000000 9.718750 4.031250 15.093750q4.031250 5.375000 11.250000 5.375000q7.281250 0.000000 11.296875 -5.375000q4.031250 -5.375000 4.031250 -15.093750M54.390625 -6.781250q0.000000 13.953125 -6.203125 20.765625q-6.187500 6.812500 -18.984375 6.812500q-4.734375 0.000000 -8.937500 -0.703125q-4.203125 -0.703125 -8.156250 -2.171875l0.000000 -8.734375q3.953125 2.140625 7.812500 3.156250q3.859375 1.031250 7.859375 1.031250q8.843750 0.000000 13.234375 -4.609375q4.390625 -4.609375 4.390625 -13.937500l0.000000 -4.453125q-2.781250 4.843750 -7.125000 7.234375q-4.343750 2.390625 -10.406250 2.390625q-10.046875 0.000000 -16.203125 -7.656250q-6.156250 -7.671875 -6.156250 -20.328125q0.000000 -12.687500 6.156250 -20.343750q6.156250 -7.671875 16.203125 -7.671875q6.062500 0.000000 10.406250 2.390625q4.343750 2.390625 7.125000 7.218750l0.000000 -8.296875l8.984375 0.000000z"/>
<path id="c_6ec8d5749226675394676a5d2a3b468b" d="M41.109375 -46.296875q-1.515625 -0.875000 -3.296875 -1.281250q-1.781250 -0.421875 -3.921875 -0.421875q-7.625000 0.000000 -11.703125 4.953125q-4.078125 4.953125 -4.078125 14.234375l0.000000 28.812500l-9.031250 0.000000l0.000000 -54.687500l9.031250 0.000000l0.000000 8.500000q2.843750 -4.984375 7.375000 -7.390625q4.546875 -2.421875 11.046875 -2.421875q0.921875 0.000000 2.046875 0.125000q1.125000 0.109375 2.484375 0.359375z"/>
<path id="c_fe791a90f5471e2ab20a5ed41a7fa451" d="M54.890625 -33.015625l0.000000 33.015625l-8.984375 0.000000l0.000000 -32.718750q0.000000 -7.765625 -3.031250 -11.609375q-3.031250 -3.859375 -9.078125 -3.859375q-7.281250 0.000000 -11.484375 4.640625q-4.203125 4.625000 -4.203125 12.640625l0.000000 30.906250l-9.031250 0.000000l0.000000 -54.687500l9.031250 0.000000l0.000000 8.500000q3.234375 -4.937500 7.593750 -7.375000q4.375000 -2.437500 10.093750 -2.437500q9.421875 0.000000 14.250000 5.828125q4.843750 5.828125 4.843750 17.156250"/>
</defs>
<g style="fill: #000000; opacity: 1.000000" transform="translate(396.565000,87.547500)scale(0.144000)">
<use xlink:href="#c_e3864de5dabf2f8dd9eee74726882ec1"/>
<use xlink:href="#c_6ec8d5749226675394676a5d2a3b468b" x="63.476562"/>
<use xlink:href="#c_0bce5afba2dc6b9024b26277c38ad8e8" x="102.339844"/>
<use xlink:href="#c_0bce5afba2dc6b9024b26277c38ad8e8" x="163.863281"/>
<use xlink:href="#c_fe791a90f5471e2ab20a5ed41a7fa451" x="225.386719"/>
</g>
</g>
<g id="line2d44">
<path style="fill: none; stroke: #ff0000; stroke-width: 1.000000; stroke-linejoin: round; stroke-linecap: square;  opacity: 1.000000"  d="M360.565000 103.254375L380.725000 103.254375"/>
</g>
<g id="line2d45">
</g>
<g id="text18">
<defs>
<path id="c_d821beae607506e87470f334d9ff47af" d="M45.406250 -46.390625l0.000000 -29.593750l8.984375 0.000000l0.000000 75.984375l-8.984375 0.000000l0.000000 -8.203125q-2.828125 4.875000 -7.156250 7.250000q-4.312500 2.375000 -10.375000 2.375000q-9.906250 0.000000 -16.140625 -7.906250q-6.218750 -7.921875 -6.218750 -20.812500q0.000000 -12.890625 6.218750 -20.796875q6.234375 -7.906250 16.140625 -7.906250q6.062500 0.000000 10.375000 2.375000q4.328125 2.359375 7.156250 7.234375M14.796875 -27.296875q0.000000 9.906250 4.078125 15.546875q4.078125 5.640625 11.203125 5.640625q7.125000 0.000000 11.218750 -5.640625q4.109375 -5.640625 4.109375 -15.546875q0.000000 -9.906250 -4.109375 -15.546875q-4.093750 -5.640625 -11.218750 -5.640625q-7.125000 0.000000 -11.203125 5.640625q-4.078125 5.640625 -4.078125 15.546875"/>
</defs>
<g style="fill: #000000; opacity: 1.000000" transform="translate(396.565000,108.294375)scale(0.144000)">
<use xlink:href="#c_6ec8d5749226675394676a5d2a3b468b"/>
<use xlink:href="#c_0bce5afba2dc6b9024b26277c38ad8e8" x="38.863281"/>
<use xlink:href="#c_d821beae607506e87470f334d9ff47af" x="100.386719"/>
</g>
</g>
<g id="line2d46">
<path style="fill: none; stroke: #696969; stroke-width: 1.000000; stroke-linejoin: round; stroke-linecap: square;  opacity: 1.000000"  d="M360.565000 124.001250L380.725000 124.001250"/>
</g>
<g id="line2d47">
</g>
<g id="text19">
<defs>
<path id="c_6a63bda47b2f3da1cec6aadd80692cfe" d="M9.421875 -54.687500l8.984375 0.000000l0.000000 54.687500l-8.984375 0.000000zM9.421875 -75.984375l8.984375 0.000000l0.000000 11.390625l-8.984375 0.000000z"/>
<path id="c_74d54c94aa871ec39e2bc6697dde6c00" d="M54.890625 -33.015625l0.000000 33.015625l-8.984375 0.000000l0.000000 -32.718750q0.000000 -7.765625 -3.031250 -11.609375q-3.031250 -3.859375 -9.078125 -3.859375q-7.281250 0.000000 -11.484375 4.640625q-4.203125 4.625000 -4.203125 12.640625l0.000000 30.906250l-9.031250 0.000000l0.000000 -75.984375l9.031250 0.000000l0.000000 29.796875q3.234375 -4.937500 7.593750 -7.375000q4.375000 -2.437500 10.093750 -2.437500q9.421875 0.000000 14.250000 5.828125q4.843750 5.828125 4.843750 17.156250"/>
<path id="c_0f8c41144cfbf448378cb6fd1cc8e549" d="M18.312500 -70.218750l0.000000 15.531250l18.500000 0.000000l0.000000 6.984375l-18.500000 0.000000l0.000000 29.687500q0.000000 6.687500 1.828125 8.593750q1.828125 1.906250 7.453125 1.906250l9.218750 0.000000l0.000000 7.515625l-9.218750 0.000000q-10.406250 0.000000 -14.359375 -3.875000q-3.953125 -3.890625 -3.953125 -14.140625l0.000000 -29.687500l-6.593750 0.000000l0.000000 -6.984375l6.593750 0.000000l0.000000 -15.531250z"/>
<path id="c_8e0810ad13fe20a2a87a2619799b154d" d="M44.281250 -53.078125l0.000000 8.500000q-3.796875 -1.953125 -7.906250 -2.921875q-4.093750 -0.984375 -8.500000 -0.984375q-6.687500 0.000000 -10.031250 2.046875q-3.343750 2.046875 -3.343750 6.156250q0.000000 3.125000 2.390625 4.906250q2.390625 1.781250 9.625000 3.390625l3.078125 0.687500q9.562500 2.046875 13.593750 5.781250q4.031250 3.734375 4.031250 10.421875q0.000000 7.625000 -6.031250 12.078125q-6.031250 4.437500 -16.578125 4.437500q-4.390625 0.000000 -9.156250 -0.859375q-4.765625 -0.859375 -10.031250 -2.562500l0.000000 -9.281250q4.984375 2.593750 9.812500 3.890625q4.828125 1.281250 9.578125 1.281250q6.343750 0.000000 9.750000 -2.171875q3.421875 -2.171875 3.421875 -6.125000q0.000000 -3.656250 -2.468750 -5.609375q-2.453125 -1.953125 -10.812500 -3.765625l-3.125000 -0.734375q-8.343750 -1.750000 -12.062500 -5.390625q-3.703125 -3.640625 -3.703125 -9.984375q0.000000 -7.718750 5.468750 -11.906250q5.468750 -4.203125 15.531250 -4.203125q4.968750 0.000000 9.359375 0.734375q4.406250 0.718750 8.109375 2.187500"/>
</defs>
<g style="fill: #000000; opacity: 1.000000" transform="translate(396.565000,129.041250)scale(0.144000)">
<use xlink:href="#c_5099edb83619131346ae654950954dea"/>
<use xlink:href="#c_6a63bda47b2f3da1cec6aadd80692cfe" x="27.783203"/>
<use xlink:href="#c_e3864de5dabf2f8dd9eee74726882ec1" x="55.566406"/>
<use xlink:href="#c_74d54c94aa871ec39e2bc6697dde6c00" x="119.042969"/>
<use xlink:href="#c_0f8c41144cfbf448378cb6fd1cc8e549" x="182.421875"/>
<use xlink:href="#c_fe791a90f5471e2ab20a5ed41a7fa451" x="221.630859"/>
<use xlink:href="#c_0bce5afba2dc6b9024b26277c38ad8e8" x="285.009766"/>
<use xlink:href="#c_8e0810ad13fe20a2a87a2619799b154d" x="346.533203"/>
<use xlink:href="#c_8e0810ad13fe20a2a87a2619799b154d" x="398.632813"/>
</g>
</g>
<g id="line2d48">
<path style="fill: none; stroke: #ff00ff; stroke-width: 1.000000; stroke-linejoin: round; stroke-linecap: square;  opacity: 1.000000"  d="M360.565000 144.748125L380.725000 144.748125"/>
</g>
<g id="line2d49">
</g>
<g id="text20">
<defs>
<path id="c_7b26b13f539f13a4c64eef23b6952d29" d="M4.890625 -31.390625l26.312500 0.000000l0.000000 8.000000l-26.312500 0.000000z"/>
<path id="c_4653c6dfde66c7610eae0911760d3490" d="M52.000000 -44.187500q3.375000 -6.062500 8.062500 -8.937500q4.687500 -2.875000 11.031250 -2.875000q8.546875 0.000000 13.187500 5.984375q4.640625 5.968750 4.640625 17.000000l0.000000 33.015625l-9.031250 0.000000l0.000000 -32.718750q0.000000 -7.859375 -2.796875 -11.656250q-2.781250 -3.812500 -8.484375 -3.812500q-6.984375 0.000000 -11.046875 4.640625q-4.046875 4.625000 -4.046875 12.640625l0.000000 30.906250l-9.031250 0.000000l0.000000 -32.718750q0.000000 -7.906250 -2.781250 -11.687500q-2.781250 -3.781250 -8.593750 -3.781250q-6.890625 0.000000 -10.953125 4.656250q-4.046875 4.656250 -4.046875 12.625000l0.000000 30.906250l-9.031250 0.000000l0.000000 -54.687500l9.031250 0.000000l0.000000 8.500000q3.078125 -5.031250 7.375000 -7.421875q4.296875 -2.390625 10.203125 -2.390625q5.968750 0.000000 10.140625 3.031250q4.171875 3.015625 6.171875 8.781250"/>
<path id="c_01d93a582460e35a7945ca50d148ffeb" d="M34.281250 -27.484375q-10.890625 0.000000 -15.093750 2.484375q-4.203125 2.484375 -4.203125 8.500000q0.000000 4.781250 3.156250 7.593750q3.156250 2.796875 8.562500 2.796875q7.484375 0.000000 12.000000 -5.296875q4.515625 -5.296875 4.515625 -14.078125l0.000000 -2.000000zM52.203125 -31.203125l0.000000 31.203125l-8.984375 0.000000l0.000000 -8.296875q-3.078125 4.968750 -7.671875 7.343750q-4.593750 2.375000 -11.234375 2.375000q-8.390625 0.000000 -13.359375 -4.718750q-4.953125 -4.718750 -4.953125 -12.625000q0.000000 -9.218750 6.171875 -13.906250q6.187500 -4.687500 18.437500 -4.687500l12.609375 0.000000l0.000000 -0.890625q0.000000 -6.203125 -4.078125 -9.593750q-4.078125 -3.390625 -11.453125 -3.390625q-4.687500 0.000000 -9.140625 1.125000q-4.437500 1.125000 -8.531250 3.375000l0.000000 -8.312500q4.921875 -1.906250 9.562500 -2.843750q4.640625 -0.953125 9.031250 -0.953125q11.875000 0.000000 17.734375 6.156250q5.859375 6.140625 5.859375 18.640625"/>
</defs>
<g style="fill: #000000; opacity: 1.000000" transform="translate(396.565000,149.788125)scale(0.144000)">
<use xlink:href="#c_e3864de5dabf2f8dd9eee74726882ec1"/>
<use xlink:href="#c_6ec8d5749226675394676a5d2a3b468b" x="63.476562"/>
<use xlink:href="#c_0bce5afba2dc6b9024b26277c38ad8e8" x="102.339844"/>
<use xlink:href="#c_0bce5afba2dc6b9024b26277c38ad8e8" x="163.863281"/>
<use xlink:href="#c_fe791a90f5471e2ab20a5ed41a7fa451" x="225.386719"/>
<use xlink:href="#c_7b26b13f539f13a4c64eef23b6952d29" x="288.765625"/>
<use xlink:href="#c_4653c6dfde66c7610eae0911760d3490" x="324.849609"/>
<use xlink:href="#c_01d93a582460e35a7945ca50d148ffeb" x="422.261719"/>
<use xlink:href="#c_e3864de5dabf2f8dd9eee74726882ec1" x="483.541016"/>
<use xlink:href="#c_0bce5afba2dc6b9024b26277c38ad8e8" x="547.017578"/>
<use xlink:href="#c_fe791a90f5471e2ab20a5ed41a7fa451" x="608.541016"/>
<use xlink:href="#c_0f8c41144cfbf448378cb6fd1cc8e549" x="671.919922"/>
<use xlink:href="#c_01d93a582460e35a7945ca50d148ffeb" x="711.128906"/>
</g>
</g>
<g id="line2d50">
<path style="fill: none; stroke: #ffff00; stroke-width: 1.000000; stroke-linejoin: round; stroke-linecap: square;  opacity: 1.000000"  d="M360.565000 165.495000L380.725000 165.495000"/>
</g>
<g id="line2d51">
</g>
<g id="text21">
<defs>
<path id="c_3fe22c4af425ac970aec982ae9662abe" d="M32.171875 5.078125q-3.796875 9.765625 -7.421875 12.734375q-3.609375 2.984375 -9.656250 2.984375l-7.187500 0.000000l0.000000 -7.515625l5.281250 0.000000q3.703125 0.000000 5.750000 -1.765625q2.062500 -1.750000 4.546875 -8.296875l1.609375 -4.093750l-22.109375 -53.812500l9.515625 0.000000l17.093750 42.765625l17.093750 -42.765625l9.515625 0.000000z"/>
<path id="c_f05dd90d41f04bb96ef1ca503cc2044b" d="M30.609375 -48.390625q-7.218750 0.000000 -11.421875 5.640625q-4.203125 5.640625 -4.203125 15.453125q0.000000 9.812500 4.171875 15.453125q4.187500 5.640625 11.453125 5.640625q7.187500 0.000000 11.375000 -5.656250q4.203125 -5.671875 4.203125 -15.437500q0.000000 -9.718750 -4.203125 -15.406250q-4.187500 -5.687500 -11.375000 -5.687500M30.609375 -56.000000q11.718750 0.000000 18.406250 7.625000q6.703125 7.609375 6.703125 21.078125q0.000000 13.421875 -6.703125 21.078125q-6.687500 7.640625 -18.406250 7.640625q-11.765625 0.000000 -18.437500 -7.640625q-6.656250 -7.656250 -6.656250 -21.078125q0.000000 -13.468750 6.656250 -21.078125q6.671875 -7.625000 18.437500 -7.625000"/>
<path id="c_57adaa7083d7229075db8bc2c5b2febe" d="M4.203125 -54.687500l8.984375 0.000000l11.234375 42.671875l11.171875 -42.671875l10.593750 0.000000l11.234375 42.671875l11.187500 -42.671875l8.984375 0.000000l-14.312500 54.687500l-10.593750 0.000000l-11.765625 -44.828125l-11.812500 44.828125l-10.609375 0.000000z"/>
</defs>
<g style="fill: #000000; opacity: 1.000000" transform="translate(396.565000,170.535000)scale(0.144000)">
<use xlink:href="#c_5cc9741494d2ad8f9764e03ae145569f"/>
<use xlink:href="#c_5099edb83619131346ae654950954dea" x="63.476562"/>
<use xlink:href="#c_3b515ad41f960e225ec85275856806ca" x="91.259766"/>
<use xlink:href="#c_0bce5afba2dc6b9024b26277c38ad8e8" x="154.638672"/>
<use xlink:href="#c_7b26b13f539f13a4c64eef23b6952d29" x="216.162109"/>
<use xlink:href="#c_3fe22c4af425ac970aec982ae9662abe" x="250.496094"/>
<use xlink:href="#c_0bce5afba2dc6b9024b26277c38ad8e8" x="309.675781"/>
<use xlink:href="#c_5099edb83619131346ae654950954dea" x="371.199219"/>
<use xlink:href="#c_5099edb83619131346ae654950954dea" x="398.982422"/>
<use xlink:href="#c_f05dd90d41f04bb96ef1ca503cc2044b" x="426.765625"/>
<use xlink:href="#c_57adaa7083d7229075db8bc2c5b2febe" x="487.947266"/>
</g>
</g>
<g id="line2d52">
<path style="fill: none; stroke: #8a2be2; stroke-width: 1.000000; stroke-linejoin: round; stroke-linecap: square;  opacity: 1.000000"  d="M360.565000 186.241875L380.725000 186.241875"/>
</g>
<g id="line2d53">
</g>
<g id="text22">
<g style="fill: #000000; opacity: 1.000000" transform="translate(396.565000,191.281875)scale(0.144000)">
<use xlink:href="#c_74d54c94aa871ec39e2bc6697dde6c00"/>
<use xlink:href="#c_3b515ad41f960e225ec85275856806ca" x="63.378906"/>
<use xlink:href="#c_0bce5afba2dc6b9024b26277c38ad8e8" x="126.757812"/>
</g>
</g>
<g id="line2d54">
<path style="fill: none; stroke: #00ffff; stroke-width: 1.000000; stroke-linejoin: round; stroke-linecap: square;  opacity: 1.000000"  d="M360.565000 206.988750L380.725000 206.988750"/>
</g>
<g id="line2d55">
</g>
<g id="text23">
<g style="fill: #000000; opacity: 1.000000" transform="translate(396.565000,212.028750)scale(0.144000)">
<use xlink:href="#c_8e0810ad13fe20a2a87a2619799b154d"/>
<use xlink:href="#c_01d93a582460e35a7945ca50d148ffeb" x="52.099609"/>
<use xlink:href="#c_0f8c41144cfbf448378cb6fd1cc8e549" x="113.378906"/>
<use xlink:href="#c_3b515ad41f960e225ec85275856806ca" x="152.587891"/>
<use xlink:href="#c_6ec8d5749226675394676a5d2a3b468b" x="215.966797"/>
<use xlink:href="#c_01d93a582460e35a7945ca50d148ffeb" x="257.080078"/>
<use xlink:href="#c_0f8c41144cfbf448378cb6fd1cc8e549" x="318.359375"/>
<use xlink:href="#c_6a63bda47b2f3da1cec6aadd80692cfe" x="357.568359"/>
<use xlink:href="#c_f05dd90d41f04bb96ef1ca503cc2044b" x="385.351562"/>
<use xlink:href="#c_fe791a90f5471e2ab20a5ed41a7fa451" x="446.533203"/>
</g>
</g>
<g id="line2d56">
<path style="fill: none; stroke: #ffa500; stroke-width: 1.000000; stroke-linejoin: round; stroke-linecap: square;  opacity: 1.000000"  d="M360.565000 227.735625L380.725000 227.735625"/>
</g>
<g id="line2d57">
</g>
<g id="text24">
<defs>
<path id="c_c48ceabac27bf136feba2f4bf2716ab6" d="M2.984375 -54.687500l9.515625 0.000000l17.093750 45.890625l17.093750 -45.890625l9.515625 0.000000l-20.515625 54.687500l-12.203125 0.000000z"/>
</defs>
<g style="fill: #000000; opacity: 1.000000" transform="translate(396.565000,232.775625)scale(0.144000)">
<use xlink:href="#c_c48ceabac27bf136feba2f4bf2716ab6"/>
<use xlink:href="#c_01d93a582460e35a7945ca50d148ffeb" x="59.179687"/>
<use xlink:href="#c_5099edb83619131346ae654950954dea" x="120.458984"/>
<use xlink:href="#c_3b515ad41f960e225ec85275856806ca" x="148.242187"/>
<use xlink:href="#c_0bce5afba2dc6b9024b26277c38ad8e8" x="211.621094"/>
</g>
</g>
</g>
</g>
</g>
</svg>
